%TF.GenerationSoftware,Altium Limited,Altium Designer,21.8.1 (53)*%
G04 Layer_Color=128*
%FSLAX45Y45*%
%MOMM*%
%TF.SameCoordinates,046F884E-5673-4B57-908A-D09F833A34A9*%
%TF.FilePolarity,Positive*%
%TF.FileFunction,Drillmap*%
%TF.Part,Single*%
G01*
G75*
%TA.AperFunction,NonConductor*%
%ADD46C,0.12700*%
D46*
X11240000Y11524000D02*
X11300000D01*
X11270000Y11494000D02*
Y11554000D01*
X10986000Y11524000D02*
X11046000D01*
X11016000Y11494000D02*
Y11554000D01*
X10732000Y11524000D02*
X10792000D01*
X10762000Y11494000D02*
Y11554000D01*
X10478000Y11524000D02*
X10538000D01*
X10508000Y11494000D02*
Y11554000D01*
X10224000Y11524000D02*
X10284000D01*
X10254000Y11494000D02*
Y11554000D01*
X9970000Y11524000D02*
X10030000D01*
X10000000Y11494000D02*
Y11554000D01*
X11240000Y10000000D02*
X11300000D01*
X11270000Y9970000D02*
Y10030000D01*
X10986000Y10000000D02*
X11046000D01*
X11016000Y9970000D02*
Y10030000D01*
X10732000Y10000000D02*
X10792000D01*
X10762000Y9970000D02*
Y10030000D01*
X10478000Y10000000D02*
X10538000D01*
X10508000Y9970000D02*
Y10030000D01*
X10224000Y10000000D02*
X10284000D01*
X10254000Y9970000D02*
Y10030000D01*
X9970000Y10000000D02*
X10030000D01*
X10000000Y9970000D02*
Y10030000D01*
X15020000Y10000000D02*
X15080000D01*
X15050000Y9970000D02*
Y10030000D01*
X15274001Y10000000D02*
X15334000D01*
X15303999Y9970000D02*
Y10030000D01*
X15528000Y10000000D02*
X15588000D01*
X15558000Y9970000D02*
Y10030000D01*
X15782001Y10000000D02*
X15842000D01*
X15812000Y9970000D02*
Y10030000D01*
X16036000Y10000000D02*
X16096001D01*
X16066000Y9970000D02*
Y10030000D01*
X16289999Y10000000D02*
X16350000D01*
X16320000Y9970000D02*
Y10030000D01*
X15020000Y11524000D02*
X15080000D01*
X15050000Y11494000D02*
Y11554000D01*
X15274001Y11524000D02*
X15334000D01*
X15303999Y11494000D02*
Y11554000D01*
X15528000Y11524000D02*
X15588000D01*
X15558000Y11494000D02*
Y11554000D01*
X15782001Y11524000D02*
X15842000D01*
X15812000Y11494000D02*
Y11554000D01*
X16036000Y11524000D02*
X16096001D01*
X16066000Y11494000D02*
Y11554000D01*
X16289999Y11524000D02*
X16350000D01*
X16320000Y11494000D02*
Y11554000D01*
X11240000Y9614000D02*
X11300000D01*
X11270000Y9584000D02*
Y9644000D01*
X10986000Y9614000D02*
X11046000D01*
X11016000Y9584000D02*
Y9644000D01*
X10732000Y9614000D02*
X10792000D01*
X10762000Y9584000D02*
Y9644000D01*
X10478000Y9614000D02*
X10538000D01*
X10508000Y9584000D02*
Y9644000D01*
X10224000Y9614000D02*
X10284000D01*
X10254000Y9584000D02*
Y9644000D01*
X9970000Y9614000D02*
X10030000D01*
X10000000Y9584000D02*
Y9644000D01*
X11240000Y8090000D02*
X11300000D01*
X11270000Y8060000D02*
Y8120000D01*
X10986000Y8090000D02*
X11046000D01*
X11016000Y8060000D02*
Y8120000D01*
X10732000Y8090000D02*
X10792000D01*
X10762000Y8060000D02*
Y8120000D01*
X10478000Y8090000D02*
X10538000D01*
X10508000Y8060000D02*
Y8120000D01*
X10224000Y8090000D02*
X10284000D01*
X10254000Y8060000D02*
Y8120000D01*
X9970000Y8090000D02*
X10030000D01*
X10000000Y8060000D02*
Y8120000D01*
X15020000Y8090000D02*
X15080000D01*
X15050000Y8060000D02*
Y8120000D01*
X15274001Y8090000D02*
X15334000D01*
X15303999Y8060000D02*
Y8120000D01*
X15528000Y8090000D02*
X15588000D01*
X15558000Y8060000D02*
Y8120000D01*
X15782001Y8090000D02*
X15842000D01*
X15812000Y8060000D02*
Y8120000D01*
X16036000Y8090000D02*
X16096001D01*
X16066000Y8060000D02*
Y8120000D01*
X16289999Y8090000D02*
X16350000D01*
X16320000Y8060000D02*
Y8120000D01*
X15020000Y9614000D02*
X15080000D01*
X15050000Y9584000D02*
Y9644000D01*
X15274001Y9614000D02*
X15334000D01*
X15303999Y9584000D02*
Y9644000D01*
X15528000Y9614000D02*
X15588000D01*
X15558000Y9584000D02*
Y9644000D01*
X15782001Y9614000D02*
X15842000D01*
X15812000Y9584000D02*
Y9644000D01*
X16036000Y9614000D02*
X16096001D01*
X16066000Y9584000D02*
Y9644000D01*
X16289999Y9614000D02*
X16350000D01*
X16320000Y9584000D02*
Y9644000D01*
X16289999Y7704000D02*
X16350000D01*
X16320000Y7674000D02*
Y7734000D01*
X16036000Y7704000D02*
X16096001D01*
X16066000Y7674000D02*
Y7734000D01*
X15782001Y7704000D02*
X15842000D01*
X15812000Y7674000D02*
Y7734000D01*
X15528000Y7704000D02*
X15588000D01*
X15558000Y7674000D02*
Y7734000D01*
X15274001Y7704000D02*
X15334000D01*
X15303999Y7674000D02*
Y7734000D01*
X15020000Y7704000D02*
X15080000D01*
X15050000Y7674000D02*
Y7734000D01*
X16289999Y6180000D02*
X16350000D01*
X16320000Y6150000D02*
Y6210000D01*
X16036000Y6180000D02*
X16096001D01*
X16066000Y6150000D02*
Y6210000D01*
X15782001Y6180000D02*
X15842000D01*
X15812000Y6150000D02*
Y6210000D01*
X15528000Y6180000D02*
X15588000D01*
X15558000Y6150000D02*
Y6210000D01*
X15274001Y6180000D02*
X15334000D01*
X15303999Y6150000D02*
Y6210000D01*
X15020000Y6180000D02*
X15080000D01*
X15050000Y6150000D02*
Y6210000D01*
X9970000Y6180000D02*
X10030000D01*
X10000000Y6150000D02*
Y6210000D01*
X10224000Y6180000D02*
X10284000D01*
X10254000Y6150000D02*
Y6210000D01*
X10478000Y6180000D02*
X10538000D01*
X10508000Y6150000D02*
Y6210000D01*
X10732000Y6180000D02*
X10792000D01*
X10762000Y6150000D02*
Y6210000D01*
X10986000Y6180000D02*
X11046000D01*
X11016000Y6150000D02*
Y6210000D01*
X11240000Y6180000D02*
X11300000D01*
X11270000Y6150000D02*
Y6210000D01*
X9970000Y7704000D02*
X10030000D01*
X10000000Y7674000D02*
Y7734000D01*
X10224000Y7704000D02*
X10284000D01*
X10254000Y7674000D02*
Y7734000D01*
X10478000Y7704000D02*
X10538000D01*
X10508000Y7674000D02*
Y7734000D01*
X10732000Y7704000D02*
X10792000D01*
X10762000Y7674000D02*
Y7734000D01*
X10986000Y7704000D02*
X11046000D01*
X11016000Y7674000D02*
Y7734000D01*
X11240000Y7704000D02*
X11300000D01*
X11270000Y7674000D02*
Y7734000D01*
X13759911Y9453587D02*
X13789909D01*
X13774910Y9438587D02*
Y9468587D01*
X12760000Y9625000D02*
X12790000D01*
X12775000Y9610000D02*
Y9640000D01*
X13635001Y6575000D02*
X13664999D01*
X13650000Y6560000D02*
Y6590000D01*
X12305000Y8336900D02*
X12335000D01*
X12320000Y8321900D02*
Y8351900D01*
X12055000Y8336900D02*
X12085000D01*
X12070000Y8321900D02*
Y8351900D01*
X12860001Y10050000D02*
X12889999D01*
X12875000Y10035000D02*
Y10065000D01*
X14710001Y10200000D02*
X14739999D01*
X14725000Y10185000D02*
Y10215000D01*
X12310000Y10250000D02*
X12340000D01*
X12325000Y10235000D02*
Y10265000D01*
X9284600Y9049600D02*
X9314600D01*
X9299600Y9034600D02*
Y9064600D01*
X9000000Y9100000D02*
X9100000D01*
X9050000Y9050000D02*
Y9150000D01*
X13635001Y9090000D02*
X13685001D01*
X13660001Y9065000D02*
Y9115000D01*
X17625000Y10200000D02*
X17725000D01*
X17675000Y10150000D02*
Y10250000D01*
X18000000Y9650000D02*
X18100000D01*
X18050000Y9600000D02*
Y9700000D01*
X14275000Y9250000D02*
X14375000D01*
X14325000Y9200000D02*
Y9300000D01*
X15700000Y9225000D02*
X15800000D01*
X15750000Y9175000D02*
Y9275000D01*
X16225000Y7450000D02*
X16325000D01*
X16275000Y7400000D02*
Y7500000D01*
X10250000Y8500000D02*
X10350000D01*
X10300000Y8450000D02*
Y8550000D01*
X13000000Y9800000D02*
X13050000D01*
X13025000Y9775000D02*
Y9825000D01*
X17475000Y11250000D02*
X17525000D01*
X17500000Y11225000D02*
Y11275000D01*
X17025000Y11250000D02*
X17075000D01*
X17050000Y11225000D02*
Y11275000D01*
X16625000Y11250000D02*
X16675000D01*
X16650000Y11225000D02*
Y11275000D01*
X16125000Y11250000D02*
X16175000D01*
X16150000Y11225000D02*
Y11275000D01*
X10550000Y11300000D02*
X10600000D01*
X10575000Y11275000D02*
Y11325000D01*
X10075000Y11300000D02*
X10125000D01*
X10100000Y11275000D02*
Y11325000D01*
X12375000Y10950000D02*
X12425000D01*
X12400000Y10925000D02*
Y10975000D01*
X12375000Y10575000D02*
X12425000D01*
X12400000Y10550000D02*
Y10600000D01*
X11900000Y10950000D02*
X11950000D01*
X11925000Y10925000D02*
Y10975000D01*
X11900000Y10575000D02*
X11950000D01*
X11925000Y10550000D02*
Y10600000D01*
X15700000Y6475000D02*
X15750000D01*
X15725000Y6450000D02*
Y6500000D01*
X16750000D02*
X16850000D01*
X16800000Y6450000D02*
Y6550000D01*
X15450000Y7225000D02*
X15550000D01*
X15500000Y7175000D02*
Y7275000D01*
X14475000Y6800000D02*
X14525000D01*
X14500000Y6775000D02*
Y6825000D01*
X14225000Y6800000D02*
X14275000D01*
X14250000Y6775000D02*
Y6825000D01*
X13925000Y6800000D02*
X13975000D01*
X13950000Y6775000D02*
Y6825000D01*
X15000000Y6875000D02*
X15100000D01*
X15050000Y6825000D02*
Y6925000D01*
X14475000Y7300000D02*
X14575000D01*
X14525000Y7250000D02*
Y7350000D01*
X13160001Y7050000D02*
X13189999D01*
X13175000Y7035000D02*
Y7065000D01*
X13035001Y7400000D02*
X13064999D01*
X13050000Y7385000D02*
Y7415000D01*
X13075000Y6875000D02*
X13175000D01*
X13125000Y6825000D02*
Y6925000D01*
X12275000Y6750000D02*
X12325000D01*
X12300000Y6725000D02*
Y6775000D01*
X11925000Y6750000D02*
X11975000D01*
X11950000Y6725000D02*
Y6775000D01*
X11475000Y6750000D02*
X11525000D01*
X11500000Y6725000D02*
Y6775000D01*
X11075000Y6650000D02*
X11125000D01*
X11100000Y6625000D02*
Y6675000D01*
X17675000Y7175000D02*
X17775000D01*
X17725000Y7125000D02*
Y7225000D01*
X17675000Y7825000D02*
X17775000D01*
X17725000Y7775000D02*
Y7875000D01*
X17670000Y8095000D02*
X17770000D01*
X17720000Y8045000D02*
Y8145000D01*
X15235001Y6650000D02*
X15264999D01*
X15250000Y6635000D02*
Y6665000D01*
X13114999Y9454496D02*
X13145000D01*
X13130000Y9439496D02*
Y9469496D01*
X13053864Y9328296D02*
X13083864D01*
X13068864Y9313296D02*
Y9343296D01*
X12565000Y9080000D02*
X12615000D01*
X12590000Y9055000D02*
Y9105000D01*
X13805000Y8510000D02*
X13835001D01*
X13820000Y8495000D02*
Y8525000D01*
X13625000Y8460000D02*
X13655000D01*
X13639999Y8445000D02*
Y8475000D01*
X13505000Y8480000D02*
X13535001D01*
X13520000Y8465000D02*
Y8495000D01*
X13164999Y8550000D02*
X13195000D01*
X13180000Y8535000D02*
Y8565000D01*
X12610000Y8400000D02*
X12640000D01*
X12625000Y8385000D02*
Y8415000D01*
X14075000Y8300000D02*
X14125000D01*
X14100000Y8275000D02*
Y8325000D01*
X14350000Y8300000D02*
X14400000D01*
X14375000Y8275000D02*
Y8325000D01*
X14700000Y8300000D02*
X14750000D01*
X14725000Y8275000D02*
Y8325000D01*
X9915000Y9830000D02*
X9945000D01*
X9930000Y9815000D02*
Y9845000D01*
X12615000Y9680000D02*
X12645000D01*
X12630000Y9665000D02*
Y9695000D01*
X12615000Y6513800D02*
X12645000D01*
X12630000Y6498800D02*
Y6528800D01*
X11252500Y6576900D02*
X11282500D01*
X11267500Y6561900D02*
Y6591900D01*
X12998647Y10056354D02*
X13028645D01*
X13013646Y10041354D02*
Y10071354D01*
X13178984Y10438100D02*
X13208984D01*
X13193983Y10423100D02*
Y10453100D01*
X9289600Y7525400D02*
X9319600D01*
X9304600Y7510400D02*
Y7540400D01*
X9370400Y6570000D02*
X9400400D01*
X9385400Y6555000D02*
Y6585000D01*
X10745000Y7536200D02*
X10775000D01*
X10760000Y7521200D02*
Y7551200D01*
X9950000Y7350000D02*
X10050000D01*
X10000000Y7300000D02*
Y7400000D01*
X11005000Y7536200D02*
X11035000D01*
X11020000Y7521200D02*
Y7551200D01*
X11252500Y7405400D02*
X11282500D01*
X11267500Y7390400D02*
Y7420400D01*
X10500000Y7350000D02*
X10600000D01*
X10550000Y7300000D02*
Y7400000D01*
X11300000Y7150000D02*
X11400000D01*
X11350000Y7100000D02*
Y7200000D01*
X13059045Y11052520D02*
X13089046D01*
X13074046Y11037520D02*
Y11067520D01*
X14575000Y10450000D02*
X14605000D01*
X14589999Y10435000D02*
Y10465000D01*
X13755000Y10360000D02*
X13785001D01*
X13770000Y10345000D02*
Y10375000D01*
X13625000Y10290000D02*
X13655000D01*
X13639999Y10275000D02*
Y10305000D01*
X13505000Y10300000D02*
X13535001D01*
X13520000Y10285000D02*
Y10315000D01*
X13055000Y10850000D02*
X13085001D01*
X13070000Y10835000D02*
Y10865000D01*
X12995000Y11010000D02*
X13025000D01*
X13010001Y10995000D02*
Y11025000D01*
X17350000Y6100000D02*
X17450000D01*
X17400000Y6050000D02*
Y6150000D01*
X16500000Y7900000D02*
X16600000D01*
X16550000Y7850000D02*
Y7950000D01*
X17625000Y10775000D02*
X17725000D01*
X17675000Y10725000D02*
Y10825000D01*
X17625000Y9675000D02*
X17725000D01*
X17675000Y9625000D02*
Y9725000D01*
X9050000Y7700000D02*
X9150000D01*
X9100000Y7650000D02*
Y7750000D01*
X9050000Y7000000D02*
X9150000D01*
X9100000Y6950000D02*
Y7050000D01*
X9015000Y9695000D02*
X9115000D01*
X9065000Y9645000D02*
Y9745000D01*
X9275000Y11070000D02*
X9305000D01*
X9290000Y11055000D02*
Y11085000D01*
X9361871Y10125426D02*
X9391871D01*
X9376871Y10110426D02*
Y10140425D01*
X8675000Y11600000D02*
X8725000D01*
X8700000Y11575000D02*
Y11625000D01*
X8175000Y11100000D02*
X8225000D01*
X8200000Y11075000D02*
Y11125000D01*
X8175000Y10900000D02*
X8225000D01*
X8200000Y10875000D02*
Y10925000D01*
X8175000Y10700000D02*
X8225000D01*
X8200000Y10675000D02*
Y10725000D01*
X8175000Y10500000D02*
X8225000D01*
X8200000Y10475000D02*
Y10525000D01*
X8175000Y10300000D02*
X8225000D01*
X8200000Y10275000D02*
Y10325000D01*
X8175000Y10100000D02*
X8225000D01*
X8200000Y10075000D02*
Y10125000D01*
X8175000Y9900000D02*
X8225000D01*
X8200000Y9875000D02*
Y9925000D01*
X8175000Y9700000D02*
X8225000D01*
X8200000Y9675000D02*
Y9725000D01*
X8175000Y9500000D02*
X8225000D01*
X8200000Y9475000D02*
Y9525000D01*
X8175000Y9300000D02*
X8225000D01*
X8200000Y9275000D02*
Y9325000D01*
X8750000Y9100000D02*
X8850000D01*
X8800000Y9050000D02*
Y9150000D01*
X9020000Y11032500D02*
X9120000D01*
X9070000Y10982500D02*
Y11082500D01*
X8175000Y8000000D02*
X8225000D01*
X8200000Y7975000D02*
Y8025000D01*
X8175000Y7800000D02*
X8225000D01*
X8200000Y7775000D02*
Y7825000D01*
X8175000Y7600000D02*
X8225000D01*
X8200000Y7575000D02*
Y7625000D01*
X8175000Y7400000D02*
X8225000D01*
X8200000Y7375000D02*
Y7425000D01*
X8175000Y7200000D02*
X8225000D01*
X8200000Y7175000D02*
Y7225000D01*
X8175000Y7000000D02*
X8225000D01*
X8200000Y6975000D02*
Y7025000D01*
X8175000Y6800000D02*
X8225000D01*
X8200000Y6775000D02*
Y6825000D01*
X8175000Y6600000D02*
X8225000D01*
X8200000Y6575000D02*
Y6625000D01*
X8550000Y8100000D02*
X8650000D01*
X8600000Y8050000D02*
Y8150000D01*
X8675000Y6100000D02*
X8725000D01*
X8700000Y6075000D02*
Y6125000D01*
X9365000Y8790000D02*
X9395000D01*
X9380000Y8775000D02*
Y8805000D01*
X14014999Y11141153D02*
X14045000D01*
X14030000Y11126154D02*
Y11156153D01*
X15205000Y10970000D02*
X15235001D01*
X15220000Y10955000D02*
Y10985000D01*
X15445000Y10970000D02*
X15475000D01*
X15460001Y10955000D02*
Y10985000D01*
X11450000Y10950000D02*
X11500000D01*
X11475000Y10925000D02*
Y10975000D01*
X10500000Y10950000D02*
X10550000D01*
X10525000Y10925000D02*
Y10975000D01*
X10975000Y10950000D02*
X11025000D01*
X11000000Y10925000D02*
Y10975000D01*
X12385000Y11150000D02*
X12415000D01*
X12400000Y11135000D02*
Y11165000D01*
X9365000Y8220000D02*
X9395000D01*
X9380000Y8205000D02*
Y8235000D01*
X13160001Y6700000D02*
X13189999D01*
X13175000Y6685000D02*
Y6715000D01*
X17905000Y8250000D02*
X17935001D01*
X17920000Y8235000D02*
Y8265000D01*
X17911710Y8725780D02*
X17941710D01*
X17926711Y8710780D02*
Y8740780D01*
X12625000Y6750000D02*
X12675000D01*
X12650000Y6725000D02*
Y6775000D01*
X10225000Y6400000D02*
X10275000D01*
X10250000Y6375000D02*
Y6425000D01*
X13246001Y9063100D02*
X13275999D01*
X13261000Y9048100D02*
Y9078100D01*
X9916038Y9050149D02*
X9946038D01*
X9931038Y9035149D02*
Y9065149D01*
X9185000Y11150000D02*
X9215000D01*
X9200000Y11135000D02*
Y11165000D01*
X9289600Y8236407D02*
X9319600D01*
X9304600Y8221407D02*
Y8251407D01*
X15975000Y8450000D02*
X16025000D01*
X16000000Y8425000D02*
Y8475000D01*
X17000000Y8450000D02*
X17100000D01*
X17050000Y8400000D02*
Y8500000D01*
X15909341Y8084355D02*
X15959340D01*
X15934340Y8059355D02*
Y8109355D01*
X15752676Y8261588D02*
X15782677D01*
X15767677Y8246588D02*
Y8276588D01*
X15216277Y8572872D02*
X15246275D01*
X15231276Y8557872D02*
Y8587872D01*
X15295000Y8420000D02*
X15325000D01*
X15310001Y8405000D02*
Y8435000D01*
X13960001Y8575000D02*
X13989999D01*
X13975000Y8560000D02*
Y8590000D01*
X17664874Y8929828D02*
X17694875D01*
X17679875Y8914828D02*
Y8944828D01*
X15750000Y11000000D02*
X15850000D01*
X15800000Y10950000D02*
Y11050000D01*
X16625000Y11000000D02*
X16675000D01*
X16650000Y10975000D02*
Y11025000D01*
X17935001Y8850000D02*
X17964999D01*
X17950000Y8835000D02*
Y8865000D01*
X18000000Y10200000D02*
X18100000D01*
X18050000Y10150000D02*
Y10250000D01*
X18000000Y10775000D02*
X18100000D01*
X18050000Y10725000D02*
Y10825000D01*
X10000000Y9400000D02*
X10100000D01*
X10050000Y9350000D02*
Y9450000D01*
X17325000Y6500000D02*
X17425000D01*
X17375000Y6450000D02*
Y6550000D01*
X16300000Y6500000D02*
X16400000D01*
X16350000Y6450000D02*
Y6550000D01*
X17675000Y7525000D02*
X17775000D01*
X17725000Y7475000D02*
Y7575000D01*
X15400000Y6775000D02*
X15500000D01*
X15450000Y6725000D02*
Y6825000D01*
X15875000Y6775000D02*
X15975000D01*
X15925000Y6725000D02*
Y6825000D01*
X17275000Y8100000D02*
X17375000D01*
X17325000Y8050000D02*
Y8150000D01*
X17250000Y9050000D02*
X17350000D01*
X17300000Y9000000D02*
Y9100000D01*
X16850000Y9050000D02*
X16950000D01*
X16900000Y9000000D02*
Y9100000D01*
X9950000Y8500000D02*
X10050000D01*
X10000000Y8450000D02*
Y8550000D01*
X11252500Y8490000D02*
X11282500D01*
X11267500Y8475000D02*
Y8505000D01*
X13450000Y7400000D02*
X13500000D01*
X13475000Y7375000D02*
Y7425000D01*
X13525000Y7150000D02*
X13575000D01*
X13550000Y7125000D02*
Y7175000D01*
X13675000Y7150000D02*
X13725000D01*
X13700000Y7125000D02*
Y7175000D01*
X15000000Y7200000D02*
X15100000D01*
X15050000Y7150000D02*
Y7250000D01*
X14100000Y7300000D02*
X14200000D01*
X14150000Y7250000D02*
Y7350000D01*
X12250000Y7150000D02*
X12350000D01*
X12300000Y7100000D02*
Y7200000D01*
X14375000Y10575000D02*
X14475000D01*
X14425000Y10525000D02*
Y10625000D01*
X13510001Y6900000D02*
X13610001D01*
X13560001Y6850000D02*
Y6950000D01*
X13628078Y11289337D02*
X13658076D01*
X13643077Y11274337D02*
Y11304337D01*
X13500000Y10700000D02*
X13600000D01*
X13550000Y10650000D02*
Y10750000D01*
X13025000Y10700000D02*
X13125000D01*
X13075000Y10650000D02*
Y10750000D01*
X9975000Y10825000D02*
X10075000D01*
X10025000Y10775000D02*
Y10875000D01*
X11450000Y10575000D02*
X11500000D01*
X11475000Y10550000D02*
Y10600000D01*
X10975000Y10575000D02*
X11025000D01*
X11000000Y10550000D02*
Y10600000D01*
X10500000Y10575000D02*
X10550000D01*
X10525000Y10550000D02*
Y10600000D01*
X15045000Y9020000D02*
X15095000D01*
X15070000Y8995000D02*
Y9045000D01*
X11260000Y10376200D02*
X11290000D01*
X11275000Y10361200D02*
Y10391200D01*
X15911539Y6175000D02*
X15961539D01*
X15936539Y6150000D02*
Y6200000D01*
X15656056Y6175000D02*
X15706056D01*
X15681056Y6150000D02*
Y6200000D01*
X15150000Y6175000D02*
X15200000D01*
X15175000Y6150000D02*
Y6200000D01*
X15400000Y6175000D02*
X15450000D01*
X15425000Y6150000D02*
Y6200000D01*
X17475000Y11000000D02*
X17525000D01*
X17500000Y10975000D02*
Y11025000D01*
X9950000Y6600000D02*
X10050000D01*
X10000000Y6550000D02*
Y6650000D01*
X9950000Y7000000D02*
X10050000D01*
X10000000Y6950000D02*
Y7050000D01*
X12310667Y6291931D02*
X12340667D01*
X12325667Y6276931D02*
Y6306931D01*
X12610000Y11638100D02*
X12640000D01*
X12625000Y11623100D02*
Y11653100D01*
X12745000Y11530900D02*
X12775000D01*
X12760000Y11515900D02*
Y11545900D01*
X12620000Y10311900D02*
X12650000D01*
X12635000Y10296900D02*
Y10326900D01*
X14845000Y10395000D02*
X14875000D01*
X14860001Y10380000D02*
Y10410000D01*
X15659770Y8094503D02*
X15709770D01*
X15684770Y8069503D02*
Y8119503D01*
X15403130Y8097263D02*
X15453130D01*
X15428130Y8072263D02*
Y8122263D01*
X15150339Y8101405D02*
X15200339D01*
X15175339Y8076405D02*
Y8126405D01*
X16475000Y9050000D02*
X16525000D01*
X16500000Y9025000D02*
Y9075000D01*
X16075000Y9050000D02*
X16125000D01*
X16100000Y9025000D02*
Y9075000D01*
X9050000Y8100000D02*
X9150000D01*
X9100000Y8050000D02*
Y8150000D01*
X9900000Y7900000D02*
X10000000D01*
X9950000Y7850000D02*
Y7950000D01*
X14350000Y9025000D02*
X14400000D01*
X14375000Y9000000D02*
Y9050000D01*
X13875000Y9025000D02*
X13925000D01*
X13900000Y9000000D02*
Y9050000D01*
X15975000Y9797835D02*
X16024998D01*
X15999998Y9772835D02*
Y9822835D01*
X15524998Y9797835D02*
X15574998D01*
X15549998Y9772835D02*
Y9822835D01*
X15075000Y9797835D02*
X15124998D01*
X15100000Y9772835D02*
Y9822835D01*
X15825000Y10497835D02*
X15874998D01*
X15850000Y10472835D02*
Y10522835D01*
X16225000Y10250000D02*
X16275000D01*
X16250000Y10225000D02*
Y10275000D01*
X15374998Y10497835D02*
X15424998D01*
X15399998Y10472835D02*
Y10522835D01*
X16125000Y11000000D02*
X16175000D01*
X16150000Y10975000D02*
Y11025000D01*
X17025000Y11000000D02*
X17075000D01*
X17050000Y10975000D02*
Y11025000D01*
X17850000Y11175000D02*
X17950000D01*
X17900000Y11125000D02*
Y11225000D01*
X16550000Y11550000D02*
X16650000D01*
X16600000Y11500000D02*
Y11600000D01*
X17050000Y11550000D02*
X17150000D01*
X17100000Y11500000D02*
Y11600000D01*
X16175165Y11651219D02*
X16225165D01*
X16200165Y11626219D02*
Y11676218D01*
X15925165Y11651219D02*
X15975165D01*
X15950165Y11626219D02*
Y11676218D01*
X15675165Y11651219D02*
X15725165D01*
X15700165Y11626219D02*
Y11676218D01*
X9925165Y11651219D02*
X9975164D01*
X9950165Y11626219D02*
Y11676218D01*
X8225000Y6200000D02*
X8425000D01*
X8325000Y6100000D02*
Y6300000D01*
X17900000Y6200000D02*
X18100000D01*
X18000000Y6100000D02*
Y6300000D01*
X17900000Y11525000D02*
X18100000D01*
X18000000Y11425000D02*
Y11625000D01*
X8225000Y11525000D02*
X8425000D01*
X8325000Y11425000D02*
Y11625000D01*
X15100000Y10800000D02*
X15200000D01*
X15150000Y10750000D02*
Y10850000D01*
X16750000Y6100000D02*
X16850000D01*
X16800000Y6050000D02*
Y6150000D01*
X18025000Y8050000D02*
X18125000D01*
X18075000Y8000000D02*
Y8100000D01*
X18025000Y7100000D02*
X18125000D01*
X18075000Y7050000D02*
Y7150000D01*
X11900000Y9150000D02*
X12000000D01*
X11950000Y9100000D02*
Y9200000D01*
X10930000Y9150000D02*
X11030000D01*
X10980000Y9100000D02*
Y9200000D01*
X15075000Y11050000D02*
X15125000D01*
X15100000Y11025000D02*
Y11075000D01*
X14825000Y11050000D02*
X14875000D01*
X14850000Y11025000D02*
Y11075000D01*
X14525000Y11100000D02*
X14575000D01*
X14550000Y11075000D02*
Y11125000D01*
X14150000Y11050000D02*
X14200000D01*
X14175000Y11025000D02*
Y11075000D01*
X14755000Y9020000D02*
X14805000D01*
X14780000Y8995000D02*
Y9045000D01*
X13657500Y10990000D02*
X13687500D01*
X13672501Y10975000D02*
Y11005000D01*
X13787500Y10987500D02*
X13817500D01*
X13802499Y10972500D02*
Y11002500D01*
X9975000Y10425000D02*
X10075000D01*
X10025000Y10375000D02*
Y10475000D01*
X11450000Y9150000D02*
X11550000D01*
X11500000Y9100000D02*
Y9200000D01*
X17675000Y6800000D02*
X17775000D01*
X17725000Y6750000D02*
Y6850000D01*
X10380000Y9160000D02*
X10480000D01*
X10430000Y9110000D02*
Y9210000D01*
X17550000Y11550000D02*
X17650000D01*
X17600000Y11500000D02*
Y11600000D01*
X13535001Y6155000D02*
X13564999D01*
X13550000Y6140000D02*
Y6170000D01*
X14785001Y6400000D02*
X14814999D01*
X14800000Y6385000D02*
Y6415000D01*
X12485000Y6446900D02*
X12515000D01*
X12500000Y6431900D02*
Y6461900D01*
X13757500Y6636900D02*
X13787500D01*
X13772501Y6621900D02*
Y6651900D01*
X10745000Y11350000D02*
X10775000D01*
X10760000Y11335000D02*
Y11365000D01*
X13246001Y7153100D02*
X13275999D01*
X13261000Y7138100D02*
Y7168100D01*
X13245000Y10970000D02*
X13275000D01*
X13260001Y10955000D02*
Y10985000D01*
X13755000Y11353900D02*
X13785001D01*
X13770000Y11338900D02*
Y11368900D01*
X11253750Y11225400D02*
X11283750D01*
X11268750Y11210400D02*
Y11240400D01*
X12981464Y8143536D02*
X13011464D01*
X12996465Y8128536D02*
Y8158536D01*
X15795000Y7520000D02*
X15825000D01*
X15810001Y7505000D02*
Y7535000D01*
X16055000Y7520000D02*
X16085001D01*
X16070000Y7505000D02*
Y7535000D01*
X15285001Y7490000D02*
X15314999D01*
X15300000Y7475000D02*
Y7505000D01*
X13626500Y7483100D02*
X13656500D01*
X13641499Y7468100D02*
Y7498100D01*
X13755000Y7533900D02*
X13785001D01*
X13770000Y7518900D02*
Y7548900D01*
X13114999Y7533900D02*
X13145000D01*
X13130000Y7518900D02*
Y7548900D01*
X12745000Y7710900D02*
X12775000D01*
X12760000Y7695900D02*
Y7725900D01*
X12615000Y7836900D02*
X12645000D01*
X12630000Y7821900D02*
Y7851900D01*
X15545000Y6440000D02*
X15575000D01*
X15560001Y6425000D02*
Y6455000D01*
X15795000Y6360000D02*
X15825000D01*
X15810001Y6345000D02*
Y6375000D01*
X15542500Y7387500D02*
X15572501D01*
X15557500Y7372500D02*
Y7402500D01*
X14632500Y6725000D02*
X14662500D01*
X14647501Y6710000D02*
Y6740000D01*
X13420000Y7207500D02*
X13450000D01*
X13435001Y7192500D02*
Y7222500D01*
X13505000Y6605000D02*
X13535001D01*
X13520000Y6590000D02*
Y6620000D01*
X15287500Y7237500D02*
X15317500D01*
X15302499Y7222500D02*
Y7252500D01*
X14845000Y6575000D02*
X14875000D01*
X14860001Y6560000D02*
Y6590000D01*
X12981464Y6233536D02*
X13011464D01*
X12996465Y6218536D02*
Y6248536D01*
X12860001Y6188700D02*
X12889999D01*
X12875000Y6173700D02*
Y6203700D01*
X15295000Y6510000D02*
X15325000D01*
X15310001Y6495000D02*
Y6525000D01*
X10745000Y9440000D02*
X10775000D01*
X10760000Y9425000D02*
Y9455000D01*
X15795000Y9430000D02*
X15825000D01*
X15810001Y9415000D02*
Y9445000D01*
X16055000Y9430000D02*
X16085001D01*
X16070000Y9415000D02*
Y9445000D01*
X15285001Y9400000D02*
X15314999D01*
X15300000Y9385000D02*
Y9415000D01*
X13626500Y9393100D02*
X13656500D01*
X13641499Y9378100D02*
Y9408100D01*
X11005000Y9443900D02*
X11035000D01*
X11020000Y9428900D02*
Y9458900D01*
X15545000Y8350000D02*
X15575000D01*
X15560001Y8335000D02*
Y8365000D01*
X15542500Y9297500D02*
X15572501D01*
X15557500Y9282500D02*
Y9312500D01*
X11252500Y9300000D02*
X11282500D01*
X11267500Y9285000D02*
Y9315000D01*
X13420000Y9117500D02*
X13450000D01*
X13435001Y9102500D02*
Y9132500D01*
X15287500Y9147500D02*
X15317500D01*
X15302499Y9132500D02*
Y9162500D01*
X13535001Y8065000D02*
X13564999D01*
X13550000Y8050000D02*
Y8080000D01*
X12860001Y8098700D02*
X12889999D01*
X12875000Y8083700D02*
Y8113700D01*
X12310000Y8200300D02*
X12340000D01*
X12325000Y8185300D02*
Y8215300D01*
X13535001Y9975000D02*
X13564999D01*
X13550000Y9960000D02*
Y9990000D01*
X15287500Y11057500D02*
X15317500D01*
X15302499Y11042500D02*
Y11072500D01*
X13420000Y11027500D02*
X13450000D01*
X13435001Y11012500D02*
Y11042500D01*
X15542500Y11207500D02*
X15572501D01*
X15557500Y11192500D02*
Y11222500D01*
X15795000Y10180000D02*
X15825000D01*
X15810001Y10165000D02*
Y10195000D01*
X15545000Y10260000D02*
X15575000D01*
X15560001Y10245000D02*
Y10275000D01*
X13114999Y11353900D02*
X13145000D01*
X13130000Y11338900D02*
Y11368900D01*
X11005000Y11353900D02*
X11035000D01*
X11020000Y11338900D02*
Y11368900D01*
X15285001Y11310000D02*
X15314999D01*
X15300000Y11295000D02*
Y11325000D01*
X16055000Y11340000D02*
X16085001D01*
X16070000Y11325000D02*
Y11355000D01*
X15795000Y11340000D02*
X15825000D01*
X15810001Y11325000D02*
Y11355000D01*
%TF.MD5,4cc4ed3364473fe9ab62e7087cd207b5*%
M02*
