%TF.GenerationSoftware,Altium Limited,Altium Designer,21.8.1 (53)*%
G04 Layer_Color=128*
%FSLAX45Y45*%
%MOMM*%
%TF.SameCoordinates,046F884E-5673-4B57-908A-D09F833A34A9*%
%TF.FilePolarity,Positive*%
%TF.FileFunction,Paste,Bot*%
%TF.Part,Single*%
G01*
G75*
%TA.AperFunction,SMDPad,CuDef*%
%ADD17R,0.64000X0.60000*%
%ADD18R,0.75000X0.60000*%
%ADD19O,0.60000X1.50000*%
%ADD20R,0.60000X1.50000*%
%ADD21R,0.60000X0.64000*%
%ADD22R,0.64000X0.50000*%
%TA.AperFunction,ConnectorPad*%
%ADD23R,2.00000X0.80000*%
%ADD24R,0.80000X2.00000*%
D17*
X13150000Y6086000D02*
D03*
Y6174000D02*
D03*
X18093240Y8329998D02*
D03*
Y8241998D02*
D03*
X13150000Y9994000D02*
D03*
Y9906000D02*
D03*
X13148000Y8084000D02*
D03*
Y7996000D02*
D03*
D18*
X13292500Y10000000D02*
D03*
X13407500D02*
D03*
X13385001Y6162500D02*
D03*
X13270000D02*
D03*
X13272501Y8082500D02*
D03*
X13387500D02*
D03*
D19*
X13897000Y8250000D02*
D03*
X13770000D02*
D03*
X13642999D02*
D03*
X13516000D02*
D03*
X13389000D02*
D03*
X13262000D02*
D03*
X13135001D02*
D03*
X13008000D02*
D03*
X12881000D02*
D03*
X12754000D02*
D03*
X12627000D02*
D03*
X12500000D02*
D03*
X13897000Y9230000D02*
D03*
X13770000D02*
D03*
X13642999D02*
D03*
X13516000D02*
D03*
X13389000D02*
D03*
X13262000D02*
D03*
X13135001D02*
D03*
X13008000D02*
D03*
X12881000D02*
D03*
X12754000D02*
D03*
X12627000D02*
D03*
X13897000Y10170000D02*
D03*
X13770000D02*
D03*
X13642999D02*
D03*
X13516000D02*
D03*
X13389000D02*
D03*
X13262000D02*
D03*
X13135001D02*
D03*
X13008000D02*
D03*
X12881000D02*
D03*
X12754000D02*
D03*
X12627000D02*
D03*
X12500000D02*
D03*
X13897000Y11150000D02*
D03*
X13770000D02*
D03*
X13642999D02*
D03*
X13516000D02*
D03*
X13389000D02*
D03*
X13262000D02*
D03*
X13135001D02*
D03*
X13008000D02*
D03*
X12881000D02*
D03*
X12754000D02*
D03*
X12627000D02*
D03*
Y7300000D02*
D03*
X12754000D02*
D03*
X12881000D02*
D03*
X13008000D02*
D03*
X13135001D02*
D03*
X13262000D02*
D03*
X13389000D02*
D03*
X13516000D02*
D03*
X13642999D02*
D03*
X13770000D02*
D03*
X13897000D02*
D03*
X12500000Y6320000D02*
D03*
X12627000D02*
D03*
X12754000D02*
D03*
X12881000D02*
D03*
X13008000D02*
D03*
X13135001D02*
D03*
X13262000D02*
D03*
X13389000D02*
D03*
X13516000D02*
D03*
X13642999D02*
D03*
X13770000D02*
D03*
X13897000D02*
D03*
D20*
X12500000Y9230000D02*
D03*
Y11150000D02*
D03*
Y7300000D02*
D03*
D21*
X9818824Y6377999D02*
D03*
X9906824D02*
D03*
X9820159Y11364222D02*
D03*
X9908159D02*
D03*
D22*
X8367500Y8331500D02*
D03*
Y8243500D02*
D03*
D23*
X18100000Y9100000D02*
D03*
Y8975000D02*
D03*
Y8850000D02*
D03*
Y8725000D02*
D03*
Y8600000D02*
D03*
X8240000Y8850000D02*
D03*
Y9100000D02*
D03*
Y8975000D02*
D03*
Y8725000D02*
D03*
Y8600000D02*
D03*
D24*
X9000000Y6100000D02*
D03*
X9125000D02*
D03*
X9250000D02*
D03*
X9375000D02*
D03*
X9500000D02*
D03*
X9000000Y11620000D02*
D03*
X9125000D02*
D03*
X9250000D02*
D03*
X9375000D02*
D03*
X9500000D02*
D03*
%TF.MD5,9ca9d6058d16e1a29818779f97c2aba2*%
M02*
