%TF.GenerationSoftware,Altium Limited,Altium Designer,21.8.1 (53)*%
G04 Layer_Physical_Order=1*
G04 Layer_Color=255*
%FSLAX45Y45*%
%MOMM*%
%TF.SameCoordinates,046F884E-5673-4B57-908A-D09F833A34A9*%
%TF.FilePolarity,Positive*%
%TF.FileFunction,Copper,L1,Top,Signal*%
%TF.Part,Single*%
G01*
G75*
%TA.AperFunction,Conductor*%
%ADD10C,0.25400*%
%ADD11C,0.50000*%
%ADD12C,0.70000*%
%TA.AperFunction,ComponentPad*%
%ADD13C,1.10000*%
%TA.AperFunction,ViaPad*%
%ADD14C,0.50000*%
%ADD15C,1.00000*%
%ADD16C,3.00000*%
G36*
X12607146Y11620600D02*
X12606088Y11621512D01*
X12604794Y11622328D01*
X12603264Y11623048D01*
X12601499Y11623672D01*
X12599499Y11624200D01*
X12597263Y11624632D01*
X12594792Y11624968D01*
X12589143Y11625352D01*
X12585966Y11625400D01*
Y11650800D01*
X12589143Y11650848D01*
X12594792Y11651232D01*
X12597263Y11651568D01*
X12599499Y11652000D01*
X12601499Y11652528D01*
X12603264Y11653152D01*
X12604794Y11653872D01*
X12606088Y11654688D01*
X12607146Y11655600D01*
Y11620600D01*
D02*
G37*
G36*
X15505966Y11594360D02*
X15510349Y11591072D01*
X15515067Y11588178D01*
X15520119Y11585681D01*
X15525504Y11583578D01*
X15531224Y11581871D01*
X15537279Y11580560D01*
X15543669Y11579644D01*
X15550392Y11579123D01*
X15557449Y11578997D01*
X15503003Y11524550D01*
X15502876Y11531608D01*
X15502357Y11538332D01*
X15501440Y11544721D01*
X15500130Y11550776D01*
X15498422Y11556496D01*
X15496320Y11561882D01*
X15493822Y11566934D01*
X15490929Y11571651D01*
X15487640Y11576035D01*
X15483955Y11580083D01*
X15501917Y11598044D01*
X15505966Y11594360D01*
D02*
G37*
G36*
X10074044Y11580083D02*
X10070360Y11576035D01*
X10067072Y11571651D01*
X10064178Y11566934D01*
X10061681Y11561882D01*
X10059578Y11556496D01*
X10057871Y11550776D01*
X10056560Y11544721D01*
X10055644Y11538332D01*
X10055123Y11531608D01*
X10054997Y11524550D01*
X10000550Y11578997D01*
X10007608Y11579123D01*
X10014332Y11579644D01*
X10020721Y11580560D01*
X10026776Y11581871D01*
X10032496Y11583578D01*
X10037882Y11585681D01*
X10042934Y11588178D01*
X10047651Y11591072D01*
X10052035Y11594360D01*
X10056083Y11598044D01*
X10074044Y11580083D01*
D02*
G37*
G36*
X12781052Y11544701D02*
X12782253Y11543746D01*
X12783700Y11542903D01*
X12785394Y11542173D01*
X12787333Y11541555D01*
X12789519Y11541049D01*
X12791951Y11540656D01*
X12794630Y11540375D01*
X12800726Y11540150D01*
X12796583Y11514750D01*
X12793384Y11514713D01*
X12785211Y11514166D01*
X12782960Y11513838D01*
X12779172Y11512963D01*
X12777633Y11512416D01*
X12776332Y11511796D01*
X12775268Y11511104D01*
X12780098Y11545769D01*
X12781052Y11544701D01*
D02*
G37*
G36*
X15008385Y11488040D02*
X15003719Y11493114D01*
X14998955Y11497655D01*
X14994092Y11501662D01*
X14989130Y11505134D01*
X14984068Y11508072D01*
X14978909Y11510476D01*
X14973651Y11512346D01*
X14968294Y11513682D01*
X14962839Y11514483D01*
X14957285Y11514750D01*
X14958925Y11540150D01*
X14964290Y11540397D01*
X14969670Y11541139D01*
X14975064Y11542376D01*
X14980472Y11544108D01*
X14985893Y11546334D01*
X14991330Y11549056D01*
X14996780Y11552272D01*
X15002245Y11555982D01*
X15007722Y11560188D01*
X15013216Y11564888D01*
X15008385Y11488040D01*
D02*
G37*
G36*
X10552357Y11557598D02*
X10557480Y11553212D01*
X10562646Y11549342D01*
X10567854Y11545988D01*
X10573106Y11543150D01*
X10578401Y11540828D01*
X10583740Y11539022D01*
X10589121Y11537732D01*
X10594546Y11536958D01*
X10600014Y11536700D01*
Y11511300D01*
X10594546Y11511042D01*
X10589121Y11510268D01*
X10583740Y11508978D01*
X10578401Y11507172D01*
X10573106Y11504850D01*
X10567854Y11502012D01*
X10562646Y11498658D01*
X10557480Y11494788D01*
X10552357Y11490402D01*
X10547278Y11485500D01*
Y11562500D01*
X10552357Y11557598D01*
D02*
G37*
G36*
X11318812Y11550692D02*
X11323046Y11545971D01*
X11327458Y11541806D01*
X11332049Y11538196D01*
X11336818Y11535142D01*
X11341766Y11532643D01*
X11346892Y11530699D01*
X11352196Y11529311D01*
X11357679Y11528478D01*
X11363339Y11528200D01*
X11359250Y11502800D01*
X11354071Y11502571D01*
X11348789Y11501884D01*
X11343405Y11500738D01*
X11337919Y11499135D01*
X11332331Y11497073D01*
X11326640Y11494553D01*
X11320848Y11491575D01*
X11314953Y11488139D01*
X11302856Y11479892D01*
X11314756Y11555967D01*
X11318812Y11550692D01*
D02*
G37*
G36*
X16319450Y11469003D02*
X16312392Y11468877D01*
X16305669Y11468357D01*
X16299278Y11467440D01*
X16293224Y11466129D01*
X16287505Y11464422D01*
X16282118Y11462319D01*
X16277066Y11459822D01*
X16272350Y11456929D01*
X16267966Y11453640D01*
X16263918Y11449956D01*
X16245956Y11467917D01*
X16249640Y11471966D01*
X16252930Y11476349D01*
X16255823Y11481066D01*
X16258321Y11486118D01*
X16260422Y11491504D01*
X16262129Y11497224D01*
X16263440Y11503279D01*
X16264357Y11509669D01*
X16264877Y11516392D01*
X16265002Y11523450D01*
X16319450Y11469003D01*
D02*
G37*
G36*
X10309123Y11516392D02*
X10309644Y11509669D01*
X10310560Y11503279D01*
X10311871Y11497224D01*
X10313578Y11491504D01*
X10315681Y11486118D01*
X10318178Y11481066D01*
X10321072Y11476349D01*
X10324360Y11471966D01*
X10328044Y11467917D01*
X10310083Y11449956D01*
X10306035Y11453640D01*
X10301651Y11456929D01*
X10296934Y11459822D01*
X10291882Y11462319D01*
X10286496Y11464422D01*
X10280776Y11466129D01*
X10274721Y11467440D01*
X10268332Y11468357D01*
X10261608Y11468877D01*
X10254550Y11469003D01*
X10308997Y11523450D01*
X10309123Y11516392D01*
D02*
G37*
G36*
X13752145Y11336400D02*
X13751088Y11337312D01*
X13749794Y11338128D01*
X13748264Y11338848D01*
X13746500Y11339472D01*
X13744499Y11340000D01*
X13742262Y11340432D01*
X13739792Y11340768D01*
X13734143Y11341152D01*
X13730966Y11341200D01*
Y11366600D01*
X13734143Y11366648D01*
X13739792Y11367032D01*
X13742262Y11367368D01*
X13744499Y11367800D01*
X13746500Y11368328D01*
X13748264Y11368952D01*
X13749794Y11369672D01*
X13751088Y11370488D01*
X13752145Y11371400D01*
Y11336400D01*
D02*
G37*
G36*
X13112146D02*
X13111089Y11337312D01*
X13109795Y11338128D01*
X13108264Y11338848D01*
X13106499Y11339472D01*
X13104498Y11340000D01*
X13102263Y11340432D01*
X13099792Y11340768D01*
X13094144Y11341152D01*
X13090965Y11341200D01*
Y11366600D01*
X13094144Y11366648D01*
X13099792Y11367032D01*
X13102263Y11367368D01*
X13104498Y11367800D01*
X13106499Y11368328D01*
X13108264Y11368952D01*
X13109795Y11369672D01*
X13111089Y11370488D01*
X13112146Y11371400D01*
Y11336400D01*
D02*
G37*
G36*
X11038912Y11370488D02*
X11040206Y11369672D01*
X11041736Y11368952D01*
X11043501Y11368328D01*
X11045501Y11367800D01*
X11047737Y11367368D01*
X11050208Y11367032D01*
X11055856Y11366648D01*
X11059034Y11366600D01*
Y11341200D01*
X11055856Y11341152D01*
X11050208Y11340768D01*
X11047737Y11340432D01*
X11045501Y11340000D01*
X11043501Y11339472D01*
X11041736Y11338848D01*
X11040206Y11338128D01*
X11038912Y11337312D01*
X11037854Y11336400D01*
Y11371400D01*
X11038912Y11370488D01*
D02*
G37*
G36*
X10778912Y11366588D02*
X10780206Y11365772D01*
X10781736Y11365052D01*
X10783501Y11364428D01*
X10785501Y11363900D01*
X10787737Y11363468D01*
X10790208Y11363132D01*
X10795856Y11362748D01*
X10799034Y11362700D01*
Y11337300D01*
X10795856Y11337252D01*
X10790208Y11336868D01*
X10787737Y11336532D01*
X10785501Y11336100D01*
X10783501Y11335572D01*
X10781736Y11334948D01*
X10780206Y11334228D01*
X10778912Y11333412D01*
X10777854Y11332500D01*
Y11367500D01*
X10778912Y11366588D01*
D02*
G37*
G36*
X16052145Y11322500D02*
X16051088Y11323412D01*
X16049794Y11324228D01*
X16048264Y11324948D01*
X16046500Y11325572D01*
X16044499Y11326100D01*
X16042262Y11326532D01*
X16039792Y11326868D01*
X16034145Y11327252D01*
X16030966Y11327300D01*
Y11352700D01*
X16034145Y11352748D01*
X16039792Y11353132D01*
X16042262Y11353468D01*
X16044499Y11353900D01*
X16046500Y11354428D01*
X16048264Y11355052D01*
X16049794Y11355772D01*
X16051088Y11356588D01*
X16052145Y11357500D01*
Y11322500D01*
D02*
G37*
G36*
X15792146D02*
X15791087Y11323412D01*
X15789793Y11324228D01*
X15788264Y11324948D01*
X15786499Y11325572D01*
X15784499Y11326100D01*
X15782263Y11326532D01*
X15779791Y11326868D01*
X15774142Y11327252D01*
X15770966Y11327300D01*
Y11352700D01*
X15774142Y11352748D01*
X15779791Y11353132D01*
X15782263Y11353468D01*
X15784499Y11353900D01*
X15786499Y11354428D01*
X15788264Y11355052D01*
X15789793Y11355772D01*
X15791087Y11356588D01*
X15792146Y11357500D01*
Y11322500D01*
D02*
G37*
G36*
X15282146Y11292500D02*
X15281088Y11293412D01*
X15279794Y11294228D01*
X15278264Y11294948D01*
X15276498Y11295572D01*
X15274500Y11296100D01*
X15272263Y11296532D01*
X15269792Y11296868D01*
X15264143Y11297252D01*
X15260966Y11297300D01*
Y11322700D01*
X15264143Y11322748D01*
X15269792Y11323132D01*
X15272263Y11323468D01*
X15274500Y11323900D01*
X15276498Y11324428D01*
X15278264Y11325052D01*
X15279794Y11325772D01*
X15281088Y11326588D01*
X15282146Y11327500D01*
Y11292500D01*
D02*
G37*
G36*
X18200000Y6000000D02*
X14962929D01*
X14953828Y6030000D01*
X14957169Y6032232D01*
X15014926Y6089989D01*
X15016920Y6091485D01*
X15019601Y6093130D01*
X15022585Y6094604D01*
X15025931Y6095910D01*
X15029675Y6097028D01*
X15033865Y6097935D01*
X15038509Y6098601D01*
X15043623Y6098997D01*
X15049910Y6099109D01*
X15052168Y6099600D01*
X15060585D01*
X15081033Y6105079D01*
X15099367Y6115664D01*
X15114336Y6130633D01*
X15124921Y6148967D01*
X15130400Y6169415D01*
Y6190585D01*
X15126736Y6204254D01*
X15136847Y6224075D01*
X15146156Y6234254D01*
X15207845D01*
X15217152Y6224075D01*
X15227263Y6204254D01*
X15223599Y6190585D01*
Y6169415D01*
X15229080Y6148967D01*
X15239664Y6130633D01*
X15254633Y6115664D01*
X15272968Y6105079D01*
X15293414Y6099600D01*
X15314584D01*
X15335033Y6105079D01*
X15353368Y6115664D01*
X15368336Y6130633D01*
X15378922Y6148967D01*
X15384399Y6169415D01*
Y6190585D01*
X15380737Y6204254D01*
X15390846Y6224075D01*
X15400156Y6234254D01*
X15461845D01*
X15471153Y6224075D01*
X15481264Y6204254D01*
X15477600Y6190585D01*
Y6169415D01*
X15483080Y6148967D01*
X15493665Y6130633D01*
X15508633Y6115664D01*
X15526967Y6105079D01*
X15547415Y6099600D01*
X15568585D01*
X15589034Y6105079D01*
X15607367Y6115664D01*
X15622336Y6130633D01*
X15632921Y6148967D01*
X15638400Y6169415D01*
Y6190585D01*
X15634737Y6204254D01*
X15644847Y6224075D01*
X15654156Y6234254D01*
X15715845D01*
X15725153Y6224075D01*
X15735263Y6204254D01*
X15731599Y6190585D01*
Y6169415D01*
X15737080Y6148967D01*
X15747664Y6130633D01*
X15762633Y6115664D01*
X15780968Y6105079D01*
X15801414Y6099600D01*
X15822585D01*
X15843033Y6105079D01*
X15861366Y6115664D01*
X15876337Y6130633D01*
X15886922Y6148967D01*
X15892400Y6169415D01*
Y6190585D01*
X15888737Y6204254D01*
X15898846Y6224075D01*
X15908156Y6234254D01*
X15956808D01*
X15975989Y6215074D01*
X15977486Y6213080D01*
X15979131Y6210399D01*
X15980605Y6207416D01*
X15981911Y6204070D01*
X15983028Y6200324D01*
X15983936Y6196135D01*
X15984601Y6191491D01*
X15984998Y6186376D01*
X15985109Y6180090D01*
X15985600Y6177832D01*
Y6169415D01*
X15991080Y6148967D01*
X16001665Y6130633D01*
X16016634Y6115664D01*
X16034967Y6105079D01*
X16055415Y6099600D01*
X16076585D01*
X16097034Y6105079D01*
X16115367Y6115664D01*
X16130336Y6130633D01*
X16140921Y6148967D01*
X16146400Y6169415D01*
Y6190585D01*
X16140921Y6211033D01*
X16130336Y6229367D01*
X16115367Y6244336D01*
X16097034Y6254921D01*
X16076585Y6260400D01*
X16068169D01*
X16065910Y6260891D01*
X16059624Y6261003D01*
X16054509Y6261399D01*
X16049866Y6262065D01*
X16045676Y6262972D01*
X16041931Y6264090D01*
X16038583Y6265396D01*
X16035602Y6266870D01*
X16032919Y6268516D01*
X16030927Y6270011D01*
X16000369Y6300569D01*
X15987766Y6308990D01*
X15972900Y6311947D01*
X15874648D01*
X15870560Y6315585D01*
X15857074Y6341947D01*
X15860400Y6349975D01*
Y6370025D01*
X15852727Y6388549D01*
X15838548Y6402727D01*
X15820026Y6410400D01*
X15799976D01*
X15781451Y6402727D01*
X15777708Y6398985D01*
X15777167Y6398911D01*
X15776219Y6398846D01*
X15629320D01*
X15609933Y6428847D01*
X15610400Y6429975D01*
Y6450025D01*
X15602727Y6468549D01*
X15588548Y6482727D01*
X15570026Y6490400D01*
X15549976D01*
X15531451Y6482727D01*
X15517273Y6468549D01*
X15512219Y6456346D01*
X15370049D01*
X15362308Y6467566D01*
X15354755Y6486346D01*
X15360400Y6499975D01*
Y6520025D01*
X15371178Y6536154D01*
X15908910D01*
X16229990Y6215074D01*
X16231485Y6213080D01*
X16233130Y6210399D01*
X16234604Y6207416D01*
X16235910Y6204070D01*
X16237029Y6200324D01*
X16237936Y6196135D01*
X16238602Y6191491D01*
X16238997Y6186376D01*
X16239108Y6180090D01*
X16239600Y6177832D01*
Y6169415D01*
X16245081Y6148967D01*
X16255664Y6130633D01*
X16270633Y6115664D01*
X16288966Y6105079D01*
X16309415Y6099600D01*
X16330585D01*
X16351033Y6105079D01*
X16369366Y6115664D01*
X16384335Y6130633D01*
X16394920Y6148967D01*
X16400400Y6169415D01*
Y6190585D01*
X16394920Y6211033D01*
X16384335Y6229367D01*
X16369366Y6244336D01*
X16351033Y6254921D01*
X16330585Y6260400D01*
X16322169D01*
X16319910Y6260891D01*
X16313625Y6261003D01*
X16308508Y6261399D01*
X16303865Y6262065D01*
X16299677Y6262972D01*
X16295930Y6264090D01*
X16292584Y6265396D01*
X16289603Y6266870D01*
X16287146Y6268376D01*
X16277980Y6283631D01*
X16284338Y6298191D01*
X16293990Y6311153D01*
X17460001D01*
X17474866Y6314111D01*
X17487468Y6322531D01*
X17877469Y6712532D01*
X17885890Y6725134D01*
X17888847Y6740000D01*
Y8175880D01*
X17909975Y8199600D01*
X17930025D01*
X17948549Y8207273D01*
X17962727Y8221451D01*
X17970399Y8239975D01*
Y8260025D01*
X17962727Y8278549D01*
X17962357Y8278920D01*
X17962202Y8281203D01*
Y8689995D01*
X17969437Y8697231D01*
X17977110Y8715755D01*
Y8735805D01*
X17969437Y8754329D01*
X17955260Y8768507D01*
X17951543Y8770047D01*
X17954964Y8799600D01*
X17960025D01*
X17964700Y8801537D01*
X17969666Y8802524D01*
X17973872Y8805336D01*
X17978549Y8807273D01*
X17982127Y8810852D01*
X17986336Y8813664D01*
X17989148Y8817872D01*
X17992728Y8821451D01*
X17994664Y8826127D01*
X17997476Y8830335D01*
X17998463Y8835299D01*
X18000400Y8839975D01*
Y8845036D01*
X18001387Y8850000D01*
X18000400Y8854964D01*
Y8860025D01*
X17998463Y8864701D01*
X17997476Y8869665D01*
X17994664Y8873874D01*
X17992728Y8878549D01*
X17989148Y8882128D01*
X17986336Y8886336D01*
X17926387Y8946285D01*
Y10975000D01*
X17922476Y10994665D01*
X17911336Y11011336D01*
X17736336Y11186336D01*
X17719666Y11197476D01*
X17700000Y11201387D01*
X15700000D01*
X15680334Y11197476D01*
X15663664Y11186336D01*
X15641631Y11164303D01*
X15625293Y11166247D01*
X15607899Y11197475D01*
Y11217525D01*
X15631870Y11238053D01*
X15836137D01*
X15851003Y11241011D01*
X15863605Y11249431D01*
X15875168Y11260994D01*
X15877469Y11262531D01*
X15916090Y11301153D01*
X16036220D01*
X16037166Y11301089D01*
X16037709Y11301015D01*
X16041451Y11297273D01*
X16059975Y11289600D01*
X16080025D01*
X16098549Y11297273D01*
X16112727Y11311451D01*
X16120399Y11329975D01*
Y11350025D01*
X16115417Y11362053D01*
X16124654Y11383364D01*
X16131648Y11392053D01*
X16226900D01*
X16241766Y11395010D01*
X16254369Y11403431D01*
X16284926Y11433989D01*
X16286920Y11435485D01*
X16289603Y11437130D01*
X16292584Y11438604D01*
X16295930Y11439910D01*
X16299677Y11441028D01*
X16303865Y11441935D01*
X16308508Y11442601D01*
X16313625Y11442997D01*
X16319910Y11443109D01*
X16322169Y11443600D01*
X16330585D01*
X16351033Y11449079D01*
X16369366Y11459664D01*
X16384335Y11474633D01*
X16394920Y11492967D01*
X16400400Y11513415D01*
Y11534585D01*
X16394920Y11555033D01*
X16384335Y11573367D01*
X16369366Y11588336D01*
X16351033Y11598921D01*
X16330585Y11604400D01*
X16309415D01*
X16288966Y11598921D01*
X16270633Y11588336D01*
X16255664Y11573367D01*
X16245081Y11555033D01*
X16239600Y11534585D01*
Y11526168D01*
X16239108Y11523910D01*
X16238997Y11517624D01*
X16238602Y11512509D01*
X16237936Y11507865D01*
X16237029Y11503675D01*
X16235910Y11499931D01*
X16234604Y11496584D01*
X16233130Y11493602D01*
X16231483Y11490919D01*
X16229990Y11488927D01*
X16210809Y11469746D01*
X16162157D01*
X16152847Y11479925D01*
X16142737Y11499747D01*
X16146400Y11513415D01*
Y11534585D01*
X16140921Y11555033D01*
X16130336Y11573367D01*
X16115367Y11588336D01*
X16097034Y11598921D01*
X16076585Y11604400D01*
X16055415D01*
X16034967Y11598921D01*
X16016634Y11588336D01*
X16001665Y11573367D01*
X15991080Y11555033D01*
X15985600Y11534585D01*
Y11513415D01*
X15989262Y11499747D01*
X15979153Y11479925D01*
X15969846Y11469746D01*
X15908156D01*
X15898846Y11479925D01*
X15888737Y11499747D01*
X15892400Y11513415D01*
Y11534585D01*
X15886922Y11555033D01*
X15876337Y11573367D01*
X15861366Y11588336D01*
X15843033Y11598921D01*
X15822585Y11604400D01*
X15801414D01*
X15780968Y11598921D01*
X15762633Y11588336D01*
X15747664Y11573367D01*
X15737080Y11555033D01*
X15731599Y11534585D01*
Y11513415D01*
X15735263Y11499747D01*
X15725153Y11479925D01*
X15715845Y11469746D01*
X15654156D01*
X15644847Y11479925D01*
X15634737Y11499747D01*
X15638400Y11513415D01*
Y11534585D01*
X15632921Y11555033D01*
X15622336Y11573367D01*
X15607367Y11588336D01*
X15589034Y11598921D01*
X15568585Y11604400D01*
X15560168D01*
X15557910Y11604891D01*
X15551624Y11605003D01*
X15546509Y11605399D01*
X15541866Y11606065D01*
X15537675Y11606972D01*
X15533931Y11608090D01*
X15530585Y11609396D01*
X15527602Y11610870D01*
X15524919Y11612516D01*
X15522926Y11614011D01*
X15492369Y11644569D01*
X15479765Y11652990D01*
X15464900Y11655947D01*
X12756963D01*
X12742097Y11652990D01*
X12729494Y11644569D01*
X12703116Y11618190D01*
X12682714Y11625466D01*
X12675400Y11629847D01*
Y11648125D01*
X12667727Y11666649D01*
X12653549Y11680827D01*
X12635025Y11688500D01*
X12614975D01*
X12596451Y11680827D01*
X12592708Y11677085D01*
X12592166Y11677011D01*
X12591219Y11676946D01*
X11395788D01*
X11375272Y11698536D01*
X11385379Y11725000D01*
X18200000D01*
Y6000000D01*
D02*
G37*
G36*
X13660953Y11307025D02*
X13662262Y11306285D01*
X13663808Y11305632D01*
X13665585Y11305067D01*
X13667599Y11304588D01*
X13669846Y11304196D01*
X13675044Y11303674D01*
X13677992Y11303544D01*
X13681178Y11303500D01*
X13682909Y11278100D01*
X13679736Y11278048D01*
X13674104Y11277633D01*
X13671649Y11277270D01*
X13669431Y11276803D01*
X13667451Y11276232D01*
X13665712Y11275558D01*
X13664211Y11274780D01*
X13662949Y11273898D01*
X13661925Y11272912D01*
X13659875Y11307852D01*
X13660953Y11307025D01*
D02*
G37*
G36*
X11287662Y11241988D02*
X11288956Y11241172D01*
X11290486Y11240452D01*
X11292251Y11239828D01*
X11294251Y11239300D01*
X11296487Y11238868D01*
X11298958Y11238532D01*
X11304607Y11238148D01*
X11307784Y11238100D01*
Y11212700D01*
X11304607Y11212652D01*
X11298958Y11212268D01*
X11296487Y11211932D01*
X11294251Y11211500D01*
X11292251Y11210972D01*
X11290486Y11210348D01*
X11288956Y11209628D01*
X11287662Y11208812D01*
X11286604Y11207900D01*
Y11242900D01*
X11287662Y11241988D01*
D02*
G37*
G36*
X15539645Y11190000D02*
X15538588Y11190912D01*
X15537294Y11191728D01*
X15535764Y11192448D01*
X15534000Y11193072D01*
X15531999Y11193600D01*
X15529762Y11194032D01*
X15527292Y11194368D01*
X15521645Y11194752D01*
X15518466Y11194800D01*
Y11220200D01*
X15521645Y11220248D01*
X15527292Y11220632D01*
X15529762Y11220968D01*
X15531999Y11221400D01*
X15534000Y11221928D01*
X15535764Y11222552D01*
X15537294Y11223272D01*
X15538588Y11224088D01*
X15539645Y11225000D01*
Y11190000D01*
D02*
G37*
G36*
X14048912Y11157741D02*
X14050206Y11156925D01*
X14051736Y11156206D01*
X14053500Y11155581D01*
X14055501Y11155053D01*
X14057738Y11154622D01*
X14060208Y11154286D01*
X14065855Y11153901D01*
X14069034Y11153853D01*
Y11128453D01*
X14065855Y11128405D01*
X14060208Y11128021D01*
X14057738Y11127685D01*
X14055501Y11127254D01*
X14053500Y11126726D01*
X14051736Y11126101D01*
X14050206Y11125382D01*
X14048912Y11124566D01*
X14047855Y11123654D01*
Y11158653D01*
X14048912Y11157741D01*
D02*
G37*
G36*
X14012146Y11123654D02*
X14011089Y11124566D01*
X14009795Y11125382D01*
X14008264Y11126101D01*
X14006499Y11126726D01*
X14004498Y11127254D01*
X14002263Y11127685D01*
X13999792Y11128021D01*
X13994144Y11128405D01*
X13990965Y11128453D01*
Y11153853D01*
X13994144Y11153901D01*
X13999792Y11154286D01*
X14002263Y11154622D01*
X14004498Y11155053D01*
X14006499Y11155581D01*
X14008264Y11156206D01*
X14009795Y11156925D01*
X14011089Y11157741D01*
X14012146Y11158653D01*
Y11123654D01*
D02*
G37*
G36*
X14734131Y11110932D02*
X14746735Y11102511D01*
X14761600Y11099554D01*
X15145509D01*
X15181154Y11063910D01*
Y11003780D01*
X15181088Y11002834D01*
X15181015Y11002291D01*
X15177274Y10998549D01*
X15169600Y10980025D01*
Y10959975D01*
X15177274Y10941451D01*
X15191451Y10927273D01*
X15209975Y10919600D01*
X15230025D01*
X15233653Y10921103D01*
X15263654Y10903180D01*
Y10718591D01*
X15109709Y10564646D01*
X14812500D01*
X14797633Y10561689D01*
X14785031Y10553268D01*
X14669453Y10437691D01*
X14640401Y10451063D01*
Y10460025D01*
X14632727Y10478549D01*
X14618549Y10492727D01*
X14600024Y10500400D01*
X14579974D01*
X14561452Y10492727D01*
X14557709Y10488985D01*
X14557166Y10488911D01*
X14556219Y10488846D01*
X13486092D01*
X13473846Y10501091D01*
Y10993720D01*
X13473911Y10994666D01*
X13473985Y10995208D01*
X13477727Y10998951D01*
X13485400Y11017475D01*
Y11037525D01*
X13477727Y11056049D01*
X13463548Y11070227D01*
X13458527Y11072307D01*
X13464494Y11102307D01*
X13996220D01*
X13997166Y11102243D01*
X13997708Y11102169D01*
X14001451Y11098427D01*
X14019975Y11090754D01*
X14040025D01*
X14058549Y11098427D01*
X14062291Y11102169D01*
X14062833Y11102243D01*
X14063780Y11102307D01*
X14358905D01*
X14373772Y11105264D01*
X14386374Y11113685D01*
X14413841Y11141153D01*
X14703909D01*
X14734131Y11110932D01*
D02*
G37*
G36*
X13109764Y11073843D02*
X13107561Y11071562D01*
X13103896Y11067283D01*
X13102435Y11065286D01*
X13101225Y11063383D01*
X13100262Y11061575D01*
X13099547Y11059862D01*
X13099081Y11058243D01*
X13098862Y11056719D01*
X13098892Y11055290D01*
X13071774Y11077417D01*
X13073071Y11077641D01*
X13074477Y11078088D01*
X13075993Y11078758D01*
X13077620Y11079651D01*
X13079356Y11080766D01*
X13081201Y11082104D01*
X13085220Y11085447D01*
X13089680Y11089681D01*
X13109764Y11073843D01*
D02*
G37*
G36*
X13022748Y11045856D02*
X13023132Y11040208D01*
X13023468Y11037737D01*
X13023900Y11035501D01*
X13024428Y11033501D01*
X13025052Y11031736D01*
X13025772Y11030206D01*
X13026588Y11028912D01*
X13027499Y11027854D01*
X12992500D01*
X12993411Y11028912D01*
X12994228Y11030206D01*
X12994948Y11031736D01*
X12995572Y11033501D01*
X12996100Y11035501D01*
X12996532Y11037737D01*
X12996867Y11040208D01*
X12997252Y11045856D01*
X12997301Y11049034D01*
X13022701D01*
X13022748Y11045856D01*
D02*
G37*
G36*
X15319089Y11038588D02*
X15318272Y11037294D01*
X15317552Y11035764D01*
X15316928Y11033999D01*
X15316400Y11031999D01*
X15315968Y11029763D01*
X15315633Y11027292D01*
X15315248Y11021644D01*
X15315199Y11018466D01*
X15289799D01*
X15289752Y11021644D01*
X15289368Y11027292D01*
X15289032Y11029763D01*
X15288600Y11031999D01*
X15288072Y11033999D01*
X15287448Y11035764D01*
X15286728Y11037294D01*
X15285912Y11038588D01*
X15285001Y11039646D01*
X15320000D01*
X15319089Y11038588D01*
D02*
G37*
G36*
X13451588Y11008588D02*
X13450772Y11007294D01*
X13450052Y11005764D01*
X13449428Y11003999D01*
X13448900Y11001999D01*
X13448468Y10999763D01*
X13448132Y10997292D01*
X13447748Y10991643D01*
X13447701Y10988466D01*
X13422301D01*
X13422252Y10991643D01*
X13421867Y10997292D01*
X13421532Y10999763D01*
X13421100Y11001999D01*
X13420572Y11003999D01*
X13419948Y11005764D01*
X13419228Y11007294D01*
X13418411Y11008588D01*
X13417500Y11009646D01*
X13452499D01*
X13451588Y11008588D01*
D02*
G37*
G36*
X15232748Y11005856D02*
X15233131Y11000208D01*
X15233469Y10997737D01*
X15233900Y10995501D01*
X15234428Y10993501D01*
X15235052Y10991736D01*
X15235773Y10990206D01*
X15236588Y10988912D01*
X15237500Y10987854D01*
X15202499D01*
X15203412Y10988912D01*
X15204228Y10990206D01*
X15204948Y10991736D01*
X15205573Y10993501D01*
X15206100Y10995501D01*
X15206532Y10997737D01*
X15206868Y11000208D01*
X15207253Y11005856D01*
X15207300Y11009034D01*
X15232700D01*
X15232748Y11005856D01*
D02*
G37*
G36*
X13276588Y10951088D02*
X13275772Y10949794D01*
X13275052Y10948264D01*
X13274428Y10946499D01*
X13273900Y10944499D01*
X13273468Y10942263D01*
X13273132Y10939792D01*
X13272748Y10934143D01*
X13272701Y10930966D01*
X13247301D01*
X13247252Y10934143D01*
X13246867Y10939792D01*
X13246532Y10942263D01*
X13246100Y10944499D01*
X13245572Y10946499D01*
X13244948Y10948264D01*
X13244228Y10949794D01*
X13243411Y10951088D01*
X13242500Y10952146D01*
X13277499D01*
X13276588Y10951088D01*
D02*
G37*
G36*
X14572147Y10432500D02*
X14571088Y10433412D01*
X14569794Y10434228D01*
X14568263Y10434948D01*
X14566499Y10435572D01*
X14564499Y10436100D01*
X14562263Y10436532D01*
X14559792Y10436868D01*
X14554144Y10437252D01*
X14550966Y10437300D01*
Y10462700D01*
X14554144Y10462748D01*
X14559792Y10463132D01*
X14562263Y10463468D01*
X14564499Y10463900D01*
X14566499Y10464428D01*
X14568263Y10465052D01*
X14569794Y10465772D01*
X14571088Y10466588D01*
X14572147Y10467500D01*
Y10432500D01*
D02*
G37*
G36*
X13176131Y10420600D02*
X13175072Y10421512D01*
X13173778Y10422328D01*
X13172247Y10423048D01*
X13170483Y10423672D01*
X13168483Y10424200D01*
X13166248Y10424632D01*
X13163776Y10424968D01*
X13158128Y10425352D01*
X13154950Y10425400D01*
Y10450800D01*
X13158128Y10450848D01*
X13163776Y10451232D01*
X13166248Y10451568D01*
X13168483Y10452000D01*
X13170483Y10452528D01*
X13172247Y10453152D01*
X13173778Y10453872D01*
X13175072Y10454688D01*
X13176131Y10455600D01*
Y10420600D01*
D02*
G37*
G36*
X14878912Y10411588D02*
X14880206Y10410772D01*
X14881737Y10410052D01*
X14883501Y10409428D01*
X14885501Y10408900D01*
X14887737Y10408468D01*
X14890208Y10408132D01*
X14895856Y10407748D01*
X14899034Y10407700D01*
Y10382300D01*
X14895856Y10382252D01*
X14890208Y10381868D01*
X14887737Y10381532D01*
X14885501Y10381100D01*
X14883501Y10380572D01*
X14881737Y10379948D01*
X14880206Y10379228D01*
X14878912Y10378412D01*
X14877853Y10377500D01*
Y10412500D01*
X14878912Y10411588D01*
D02*
G37*
G36*
X11294704Y10391849D02*
X11295973Y10390979D01*
X11297481Y10390210D01*
X11299226Y10389544D01*
X11301209Y10388981D01*
X11303431Y10388520D01*
X11305891Y10388161D01*
X11311524Y10387751D01*
X11314698Y10387700D01*
X11313280Y10362300D01*
X11310097Y10362256D01*
X11301954Y10361590D01*
X11299708Y10361191D01*
X11297697Y10360703D01*
X11295920Y10360126D01*
X11294377Y10359461D01*
X11293068Y10358706D01*
X11291993Y10357863D01*
X11293673Y10392823D01*
X11294704Y10391849D01*
D02*
G37*
G36*
X13788911Y10376588D02*
X13790205Y10375772D01*
X13791736Y10375052D01*
X13793501Y10374428D01*
X13795502Y10373900D01*
X13797737Y10373468D01*
X13800208Y10373132D01*
X13805856Y10372748D01*
X13809035Y10372700D01*
Y10347300D01*
X13805856Y10347252D01*
X13800208Y10346868D01*
X13797737Y10346532D01*
X13795502Y10346100D01*
X13793501Y10345572D01*
X13791736Y10344948D01*
X13790205Y10344228D01*
X13788911Y10343412D01*
X13787854Y10342500D01*
Y10377500D01*
X13788911Y10376588D01*
D02*
G37*
G36*
X12616327Y10295277D02*
X12615296Y10296251D01*
X12614027Y10297121D01*
X12612519Y10297890D01*
X12610774Y10298556D01*
X12608791Y10299119D01*
X12606569Y10299580D01*
X12604109Y10299939D01*
X12598476Y10300349D01*
X12595302Y10300400D01*
X12596720Y10325800D01*
X12599903Y10325844D01*
X12608046Y10326510D01*
X12610292Y10326909D01*
X12612303Y10327397D01*
X12614080Y10327974D01*
X12615623Y10328639D01*
X12616932Y10329394D01*
X12618007Y10330237D01*
X12616327Y10295277D01*
D02*
G37*
G36*
X12653912Y10328488D02*
X12655206Y10327672D01*
X12656736Y10326952D01*
X12658501Y10326328D01*
X12660501Y10325800D01*
X12662737Y10325368D01*
X12665208Y10325032D01*
X12670856Y10324648D01*
X12674034Y10324600D01*
Y10299200D01*
X12670856Y10299152D01*
X12665208Y10298768D01*
X12662737Y10298432D01*
X12660501Y10298000D01*
X12658501Y10297472D01*
X12656736Y10296848D01*
X12655206Y10296128D01*
X12653912Y10295312D01*
X12652854Y10294400D01*
Y10329400D01*
X12653912Y10328488D01*
D02*
G37*
G36*
X13502145Y10282500D02*
X13501088Y10283412D01*
X13499794Y10284228D01*
X13498264Y10284948D01*
X13496500Y10285572D01*
X13494499Y10286100D01*
X13492262Y10286532D01*
X13489792Y10286868D01*
X13484143Y10287252D01*
X13480966Y10287300D01*
Y10312700D01*
X13484143Y10312748D01*
X13489792Y10313132D01*
X13492262Y10313468D01*
X13494499Y10313900D01*
X13496500Y10314428D01*
X13498264Y10315052D01*
X13499794Y10315772D01*
X13501088Y10316588D01*
X13502145Y10317500D01*
Y10282500D01*
D02*
G37*
G36*
X13658913Y10306588D02*
X13660207Y10305772D01*
X13661736Y10305052D01*
X13663501Y10304428D01*
X13665501Y10303900D01*
X13667737Y10303468D01*
X13670209Y10303132D01*
X13675856Y10302748D01*
X13679034Y10302700D01*
Y10277300D01*
X13675856Y10277252D01*
X13670209Y10276868D01*
X13667737Y10276532D01*
X13665501Y10276100D01*
X13663501Y10275572D01*
X13661736Y10274948D01*
X13660207Y10274228D01*
X13658913Y10273412D01*
X13657854Y10272500D01*
Y10307500D01*
X13658913Y10306588D01*
D02*
G37*
G36*
X12344704Y10265650D02*
X12345973Y10264779D01*
X12347481Y10264010D01*
X12349226Y10263344D01*
X12351209Y10262781D01*
X12353431Y10262320D01*
X12355890Y10261961D01*
X12361524Y10261551D01*
X12364698Y10261500D01*
X12363280Y10236100D01*
X12360097Y10236056D01*
X12351954Y10235390D01*
X12349708Y10234991D01*
X12347697Y10234503D01*
X12345920Y10233926D01*
X12344377Y10233261D01*
X12343068Y10232506D01*
X12341993Y10231663D01*
X12343673Y10266623D01*
X12344704Y10265650D01*
D02*
G37*
G36*
X12310588Y10229572D02*
X12309552Y10230186D01*
X12308275Y10230734D01*
X12306756Y10231219D01*
X12304995Y10231638D01*
X12302993Y10231993D01*
X12298263Y10232510D01*
X12292567Y10232768D01*
X12289357Y10232800D01*
X12283883Y10258200D01*
X12287054Y10258258D01*
X12292643Y10258722D01*
X12295060Y10259128D01*
X12297226Y10259650D01*
X12299141Y10260288D01*
X12300805Y10261042D01*
X12302217Y10261912D01*
X12303378Y10262899D01*
X12304288Y10264001D01*
X12310588Y10229572D01*
D02*
G37*
G36*
X14707146Y10182500D02*
X14706088Y10183412D01*
X14704794Y10184228D01*
X14703264Y10184948D01*
X14701498Y10185572D01*
X14699500Y10186100D01*
X14697263Y10186532D01*
X14694792Y10186868D01*
X14689143Y10187252D01*
X14685966Y10187300D01*
Y10212700D01*
X14689143Y10212748D01*
X14694792Y10213132D01*
X14697263Y10213468D01*
X14699500Y10213900D01*
X14701498Y10214428D01*
X14703264Y10215052D01*
X14704794Y10215772D01*
X14706088Y10216588D01*
X14707146Y10217500D01*
Y10182500D01*
D02*
G37*
G36*
X15792146Y10162500D02*
X15791087Y10163412D01*
X15789793Y10164228D01*
X15788264Y10164948D01*
X15786499Y10165572D01*
X15784499Y10166100D01*
X15782263Y10166532D01*
X15779791Y10166868D01*
X15774142Y10167252D01*
X15770966Y10167300D01*
Y10192700D01*
X15774142Y10192748D01*
X15779791Y10193132D01*
X15782263Y10193468D01*
X15784499Y10193900D01*
X15786499Y10194428D01*
X15788264Y10195052D01*
X15789793Y10195772D01*
X15791087Y10196588D01*
X15792146Y10197500D01*
Y10162500D01*
D02*
G37*
G36*
X9395784Y10142013D02*
X9397077Y10141197D01*
X9398607Y10140478D01*
X9400372Y10139853D01*
X9402372Y10139325D01*
X9404608Y10138894D01*
X9407079Y10138558D01*
X9412728Y10138174D01*
X9415905Y10138126D01*
Y10112726D01*
X9412728Y10112678D01*
X9407079Y10112293D01*
X9404608Y10111957D01*
X9402372Y10111526D01*
X9400372Y10110998D01*
X9398607Y10110373D01*
X9397077Y10109654D01*
X9395784Y10108838D01*
X9394725Y10107925D01*
Y10142926D01*
X9395784Y10142013D01*
D02*
G37*
G36*
X13026395Y10092210D02*
X13026778Y10086562D01*
X13027113Y10084091D01*
X13027547Y10081855D01*
X13028075Y10079855D01*
X13028699Y10078090D01*
X13029417Y10076560D01*
X13030234Y10075266D01*
X13031146Y10074207D01*
X12996146D01*
X12997058Y10075266D01*
X12997874Y10076560D01*
X12998595Y10078090D01*
X12999219Y10079855D01*
X12999747Y10081855D01*
X13000179Y10084091D01*
X13000514Y10086562D01*
X13000899Y10092210D01*
X13000946Y10095388D01*
X13026346D01*
X13026395Y10092210D01*
D02*
G37*
G36*
X12858659Y10084368D02*
X12862926Y10080646D01*
X12864909Y10079136D01*
X12866797Y10077861D01*
X12868585Y10076820D01*
X12870274Y10076013D01*
X12871864Y10075440D01*
X12873357Y10075102D01*
X12874750Y10074999D01*
X12850002Y10050250D01*
X12849898Y10051643D01*
X12849561Y10053136D01*
X12848987Y10054726D01*
X12848180Y10056415D01*
X12847139Y10058203D01*
X12845863Y10060090D01*
X12844354Y10062074D01*
X12840631Y10066340D01*
X12838419Y10068621D01*
X12856380Y10086581D01*
X12858659Y10084368D01*
D02*
G37*
G36*
X16267966Y10070360D02*
X16272350Y10067072D01*
X16277066Y10064178D01*
X16282118Y10061681D01*
X16287505Y10059578D01*
X16293224Y10057871D01*
X16299278Y10056560D01*
X16305669Y10055644D01*
X16312392Y10055123D01*
X16319450Y10054997D01*
X16265002Y10000550D01*
X16264877Y10007608D01*
X16264357Y10014332D01*
X16263440Y10020721D01*
X16262129Y10026776D01*
X16260422Y10032496D01*
X16258321Y10037882D01*
X16255823Y10042934D01*
X16252930Y10047651D01*
X16249640Y10052035D01*
X16245956Y10056083D01*
X16263918Y10074044D01*
X16267966Y10070360D01*
D02*
G37*
G36*
X16013966D02*
X16018349Y10067072D01*
X16023067Y10064178D01*
X16028117Y10061681D01*
X16033504Y10059578D01*
X16039224Y10057871D01*
X16045279Y10056560D01*
X16051669Y10055644D01*
X16058392Y10055123D01*
X16065450Y10054997D01*
X16011003Y10000550D01*
X16010876Y10007608D01*
X16010358Y10014332D01*
X16009441Y10020721D01*
X16008128Y10026776D01*
X16006422Y10032496D01*
X16004320Y10037882D01*
X16001822Y10042934D01*
X15998929Y10047651D01*
X15995641Y10052035D01*
X15991956Y10056083D01*
X16009917Y10074044D01*
X16013966Y10070360D01*
D02*
G37*
G36*
X11090044Y10056083D02*
X11086360Y10052035D01*
X11083072Y10047651D01*
X11080178Y10042934D01*
X11077681Y10037882D01*
X11075578Y10032496D01*
X11073871Y10026776D01*
X11072560Y10020721D01*
X11071644Y10014332D01*
X11071123Y10007608D01*
X11070997Y10000550D01*
X11016550Y10054997D01*
X11023608Y10055123D01*
X11030332Y10055644D01*
X11036721Y10056560D01*
X11042776Y10057871D01*
X11048496Y10059578D01*
X11053882Y10061681D01*
X11058934Y10064178D01*
X11063651Y10067072D01*
X11068035Y10070360D01*
X11072083Y10074044D01*
X11090044Y10056083D01*
D02*
G37*
G36*
X10836044D02*
X10832360Y10052035D01*
X10829072Y10047651D01*
X10826178Y10042934D01*
X10823681Y10037882D01*
X10821578Y10032496D01*
X10819871Y10026776D01*
X10818560Y10020721D01*
X10817644Y10014332D01*
X10817123Y10007608D01*
X10816997Y10000550D01*
X10762550Y10054997D01*
X10769608Y10055123D01*
X10776332Y10055644D01*
X10782721Y10056560D01*
X10788776Y10057871D01*
X10794496Y10059578D01*
X10799882Y10061681D01*
X10804934Y10064178D01*
X10809651Y10067072D01*
X10814035Y10070360D01*
X10818083Y10074044D01*
X10836044Y10056083D01*
D02*
G37*
G36*
X10582044D02*
X10578360Y10052035D01*
X10575072Y10047651D01*
X10572178Y10042934D01*
X10569681Y10037882D01*
X10567578Y10032496D01*
X10565871Y10026776D01*
X10564560Y10020721D01*
X10563644Y10014332D01*
X10563123Y10007608D01*
X10562997Y10000550D01*
X10508550Y10054997D01*
X10515608Y10055123D01*
X10522332Y10055644D01*
X10528721Y10056560D01*
X10534776Y10057871D01*
X10540496Y10059578D01*
X10545882Y10061681D01*
X10550934Y10064178D01*
X10555651Y10067072D01*
X10560035Y10070360D01*
X10564083Y10074044D01*
X10582044Y10056083D01*
D02*
G37*
G36*
X10328044D02*
X10324360Y10052035D01*
X10321072Y10047651D01*
X10318178Y10042934D01*
X10315681Y10037882D01*
X10313578Y10032496D01*
X10311871Y10026776D01*
X10310560Y10020721D01*
X10309644Y10014332D01*
X10309123Y10007608D01*
X10308997Y10000550D01*
X10254550Y10054997D01*
X10261608Y10055123D01*
X10268332Y10055644D01*
X10274721Y10056560D01*
X10280776Y10057871D01*
X10286496Y10059578D01*
X10291882Y10061681D01*
X10296934Y10064178D01*
X10301651Y10067072D01*
X10306035Y10070360D01*
X10310083Y10074044D01*
X10328044Y10056083D01*
D02*
G37*
G36*
X10044357Y10033598D02*
X10049480Y10029212D01*
X10054646Y10025342D01*
X10059854Y10021988D01*
X10065106Y10019150D01*
X10070401Y10016828D01*
X10075740Y10015022D01*
X10081121Y10013732D01*
X10086546Y10012958D01*
X10092014Y10012700D01*
Y9987300D01*
X10086546Y9987042D01*
X10081121Y9986268D01*
X10075740Y9984978D01*
X10070401Y9983172D01*
X10065106Y9980850D01*
X10059854Y9978012D01*
X10054646Y9974658D01*
X10049480Y9970788D01*
X10044357Y9966402D01*
X10039278Y9961500D01*
Y10038500D01*
X10044357Y10033598D01*
D02*
G37*
G36*
X13568912Y9991588D02*
X13570206Y9990772D01*
X13571736Y9990052D01*
X13573502Y9989428D01*
X13575500Y9988900D01*
X13577737Y9988468D01*
X13580208Y9988132D01*
X13585857Y9987748D01*
X13589034Y9987700D01*
Y9962300D01*
X13585857Y9962252D01*
X13580208Y9961868D01*
X13577737Y9961532D01*
X13575500Y9961100D01*
X13573502Y9960572D01*
X13571736Y9959948D01*
X13570206Y9959228D01*
X13568912Y9958412D01*
X13567854Y9957500D01*
Y9992500D01*
X13568912Y9991588D01*
D02*
G37*
G36*
X13532146Y9957500D02*
X13531088Y9958412D01*
X13529794Y9959228D01*
X13528264Y9959948D01*
X13526498Y9960572D01*
X13524500Y9961100D01*
X13522263Y9961532D01*
X13519792Y9961868D01*
X13514143Y9962252D01*
X13510966Y9962300D01*
Y9987700D01*
X13514143Y9987748D01*
X13519792Y9988132D01*
X13522263Y9988468D01*
X13524500Y9988900D01*
X13526498Y9989428D01*
X13528264Y9990052D01*
X13529794Y9990772D01*
X13531088Y9991588D01*
X13532146Y9992500D01*
Y9957500D01*
D02*
G37*
G36*
X15049451Y9945003D02*
X15042392Y9944877D01*
X15035669Y9944357D01*
X15029279Y9943440D01*
X15023224Y9942129D01*
X15017503Y9940422D01*
X15012119Y9938319D01*
X15007066Y9935822D01*
X15002348Y9932929D01*
X14997966Y9929640D01*
X14993916Y9925956D01*
X14975957Y9943917D01*
X14979640Y9947966D01*
X14982928Y9952349D01*
X14985822Y9957066D01*
X14988319Y9962118D01*
X14990422Y9967504D01*
X14992130Y9973224D01*
X14993440Y9979279D01*
X14994357Y9985669D01*
X14994878Y9992392D01*
X14995003Y9999450D01*
X15049451Y9945003D01*
D02*
G37*
G36*
X10903081Y9931374D02*
X10904224Y9927056D01*
X10906129Y9923246D01*
X10908796Y9919944D01*
X10912225Y9917150D01*
X10916416Y9914864D01*
X10921369Y9913086D01*
X10927084Y9911816D01*
X10933561Y9911054D01*
X10940800Y9910800D01*
X10890000Y9885400D01*
X10839200Y9910800D01*
X10846439Y9911054D01*
X10852916Y9911816D01*
X10858631Y9913086D01*
X10863584Y9914864D01*
X10867775Y9917150D01*
X10871204Y9919944D01*
X10873871Y9923246D01*
X10875776Y9927056D01*
X10876919Y9931374D01*
X10877300Y9936200D01*
X10902700D01*
X10903081Y9931374D01*
D02*
G37*
G36*
X12612146Y9662500D02*
X12611088Y9663412D01*
X12609794Y9664228D01*
X12608264Y9664948D01*
X12606499Y9665572D01*
X12604499Y9666100D01*
X12602263Y9666532D01*
X12599792Y9666868D01*
X12594143Y9667252D01*
X12590966Y9667300D01*
Y9692700D01*
X12594143Y9692748D01*
X12599792Y9693132D01*
X12602263Y9693468D01*
X12604499Y9693900D01*
X12606499Y9694428D01*
X12608264Y9695052D01*
X12609794Y9695772D01*
X12611088Y9696588D01*
X12612146Y9697500D01*
Y9662500D01*
D02*
G37*
G36*
X15505966Y9684360D02*
X15510349Y9681072D01*
X15515067Y9678178D01*
X15520119Y9675681D01*
X15525504Y9673578D01*
X15531224Y9671871D01*
X15537279Y9670560D01*
X15543669Y9669644D01*
X15550392Y9669123D01*
X15557449Y9668997D01*
X15503003Y9614550D01*
X15502876Y9621608D01*
X15502357Y9628332D01*
X15501440Y9634721D01*
X15500130Y9640776D01*
X15498422Y9646496D01*
X15496320Y9651882D01*
X15493822Y9656934D01*
X15490929Y9661651D01*
X15487640Y9666035D01*
X15483955Y9670083D01*
X15501917Y9688044D01*
X15505966Y9684360D01*
D02*
G37*
G36*
X10074044Y9670083D02*
X10070360Y9666035D01*
X10067072Y9661651D01*
X10064178Y9656934D01*
X10061681Y9651882D01*
X10059578Y9646496D01*
X10057871Y9640776D01*
X10056560Y9634721D01*
X10055644Y9628332D01*
X10055123Y9621608D01*
X10054997Y9614550D01*
X10000550Y9668997D01*
X10007608Y9669123D01*
X10014332Y9669644D01*
X10020721Y9670560D01*
X10026776Y9671871D01*
X10032496Y9673578D01*
X10037882Y9675681D01*
X10042934Y9678178D01*
X10047651Y9681072D01*
X10052035Y9684360D01*
X10056083Y9688044D01*
X10074044Y9670083D01*
D02*
G37*
G36*
X12796730Y9637718D02*
X12797882Y9636726D01*
X12799287Y9635851D01*
X12800945Y9635093D01*
X12802855Y9634451D01*
X12805017Y9633926D01*
X12807431Y9633518D01*
X12810098Y9633227D01*
X12816188Y9632993D01*
X12810445Y9607593D01*
X12807231Y9607562D01*
X12796808Y9606808D01*
X12794808Y9606462D01*
X12793052Y9606054D01*
X12791538Y9605583D01*
X12790268Y9605049D01*
X12789240Y9604452D01*
X12795829Y9638826D01*
X12796730Y9637718D01*
D02*
G37*
G36*
X15006575Y9580247D02*
X15002252Y9585443D01*
X14997784Y9590092D01*
X14993175Y9594194D01*
X14988420Y9597749D01*
X14983522Y9600757D01*
X14978481Y9603218D01*
X14973296Y9605132D01*
X14967966Y9606499D01*
X14962492Y9607320D01*
X14956876Y9607593D01*
X14959885Y9632993D01*
X14965150Y9633231D01*
X14970480Y9633943D01*
X14975874Y9635131D01*
X14981329Y9636793D01*
X14986848Y9638930D01*
X14992430Y9641543D01*
X14998074Y9644630D01*
X15003783Y9648192D01*
X15009552Y9652229D01*
X15015385Y9656741D01*
X15006575Y9580247D01*
D02*
G37*
G36*
X10552357Y9647598D02*
X10557480Y9643212D01*
X10562646Y9639342D01*
X10567854Y9635988D01*
X10573106Y9633150D01*
X10578401Y9630828D01*
X10583740Y9629022D01*
X10589121Y9627732D01*
X10594546Y9626958D01*
X10600014Y9626700D01*
Y9601300D01*
X10594546Y9601042D01*
X10589121Y9600268D01*
X10583740Y9598978D01*
X10578401Y9597172D01*
X10573106Y9594850D01*
X10567854Y9592012D01*
X10562646Y9588658D01*
X10557480Y9584788D01*
X10552357Y9580402D01*
X10547278Y9575500D01*
Y9652500D01*
X10552357Y9647598D01*
D02*
G37*
G36*
X11325396Y9619547D02*
X11329802Y9605771D01*
X11332232Y9599535D01*
X11337544Y9588365D01*
X11340427Y9583432D01*
X11343462Y9578934D01*
X11346647Y9574870D01*
X11349984Y9571240D01*
X11336483Y9548820D01*
X11332268Y9552631D01*
X11327827Y9555863D01*
X11323160Y9558516D01*
X11318267Y9560588D01*
X11313147Y9562081D01*
X11307801Y9562995D01*
X11302229Y9563329D01*
X11296430Y9563083D01*
X11290405Y9562257D01*
X11284153Y9560852D01*
X11323420Y9627088D01*
X11325396Y9619547D01*
D02*
G37*
G36*
X16319450Y9559003D02*
X16312392Y9558877D01*
X16305669Y9558357D01*
X16299278Y9557440D01*
X16293224Y9556129D01*
X16287505Y9554422D01*
X16282118Y9552319D01*
X16277066Y9549822D01*
X16272350Y9546929D01*
X16267966Y9543640D01*
X16263918Y9539956D01*
X16245956Y9557917D01*
X16249640Y9561966D01*
X16252930Y9566349D01*
X16255823Y9571066D01*
X16258321Y9576118D01*
X16260422Y9581504D01*
X16262129Y9587224D01*
X16263440Y9593279D01*
X16264357Y9599669D01*
X16264877Y9606392D01*
X16265002Y9613450D01*
X16319450Y9559003D01*
D02*
G37*
G36*
X10309123Y9606392D02*
X10309644Y9599669D01*
X10310560Y9593279D01*
X10311871Y9587224D01*
X10313578Y9581504D01*
X10315681Y9576118D01*
X10318178Y9571066D01*
X10321072Y9566349D01*
X10324360Y9561966D01*
X10328044Y9557917D01*
X10310083Y9539956D01*
X10306035Y9543640D01*
X10301651Y9546929D01*
X10296934Y9549822D01*
X10291882Y9552319D01*
X10286496Y9554422D01*
X10280776Y9556129D01*
X10274721Y9557440D01*
X10268332Y9558357D01*
X10261608Y9558877D01*
X10254550Y9559003D01*
X10308997Y9613450D01*
X10309123Y9606392D01*
D02*
G37*
G36*
X13755325Y9438049D02*
X13754340Y9439085D01*
X13753110Y9440011D01*
X13751637Y9440829D01*
X13749924Y9441538D01*
X13747964Y9442137D01*
X13745766Y9442628D01*
X13743323Y9443010D01*
X13740636Y9443282D01*
X13734535Y9443500D01*
X13737648Y9468900D01*
X13740840Y9468940D01*
X13749004Y9469533D01*
X13751254Y9469889D01*
X13753271Y9470325D01*
X13755052Y9470839D01*
X13756596Y9471433D01*
X13757909Y9472106D01*
X13758983Y9472857D01*
X13755325Y9438049D01*
D02*
G37*
G36*
X13120601Y9431330D02*
X13089856Y9431200D01*
X13087589Y9456600D01*
X13090775Y9456662D01*
X13096277Y9457156D01*
X13098595Y9457589D01*
X13100621Y9458145D01*
X13102359Y9458825D01*
X13103807Y9459628D01*
X13104965Y9460555D01*
X13105833Y9461605D01*
X13106412Y9462779D01*
X13120601Y9431330D01*
D02*
G37*
G36*
X11038912Y9460488D02*
X11040206Y9459672D01*
X11041736Y9458952D01*
X11043501Y9458328D01*
X11045501Y9457800D01*
X11047737Y9457368D01*
X11050208Y9457032D01*
X11055856Y9456648D01*
X11059034Y9456600D01*
Y9431200D01*
X11055856Y9431152D01*
X11050208Y9430768D01*
X11047737Y9430432D01*
X11045501Y9430000D01*
X11043501Y9429472D01*
X11041736Y9428848D01*
X11040206Y9428128D01*
X11038912Y9427312D01*
X11037854Y9426400D01*
Y9461400D01*
X11038912Y9460488D01*
D02*
G37*
G36*
X10778912Y9456588D02*
X10780206Y9455772D01*
X10781736Y9455052D01*
X10783501Y9454428D01*
X10785501Y9453900D01*
X10787737Y9453468D01*
X10790208Y9453132D01*
X10795856Y9452748D01*
X10799034Y9452700D01*
Y9427300D01*
X10795856Y9427252D01*
X10790208Y9426868D01*
X10787737Y9426532D01*
X10785501Y9426100D01*
X10783501Y9425572D01*
X10781736Y9424948D01*
X10780206Y9424228D01*
X10778912Y9423412D01*
X10777854Y9422500D01*
Y9457500D01*
X10778912Y9456588D01*
D02*
G37*
G36*
X16052145Y9412500D02*
X16051088Y9413412D01*
X16049794Y9414228D01*
X16048264Y9414948D01*
X16046500Y9415572D01*
X16044499Y9416100D01*
X16042262Y9416532D01*
X16039792Y9416868D01*
X16034145Y9417252D01*
X16030966Y9417300D01*
Y9442700D01*
X16034145Y9442748D01*
X16039792Y9443132D01*
X16042262Y9443468D01*
X16044499Y9443900D01*
X16046500Y9444428D01*
X16048264Y9445052D01*
X16049794Y9445772D01*
X16051088Y9446588D01*
X16052145Y9447500D01*
Y9412500D01*
D02*
G37*
G36*
X15792146D02*
X15791087Y9413412D01*
X15789793Y9414228D01*
X15788264Y9414948D01*
X15786499Y9415572D01*
X15784499Y9416100D01*
X15782263Y9416532D01*
X15779791Y9416868D01*
X15774142Y9417252D01*
X15770966Y9417300D01*
Y9442700D01*
X15774142Y9442748D01*
X15779791Y9443132D01*
X15782263Y9443468D01*
X15784499Y9443900D01*
X15786499Y9444428D01*
X15788264Y9445052D01*
X15789793Y9445772D01*
X15791087Y9446588D01*
X15792146Y9447500D01*
Y9412500D01*
D02*
G37*
G36*
X15282146Y9382500D02*
X15281088Y9383412D01*
X15279794Y9384228D01*
X15278264Y9384948D01*
X15276498Y9385572D01*
X15274500Y9386100D01*
X15272263Y9386532D01*
X15269792Y9386868D01*
X15264143Y9387252D01*
X15260966Y9387300D01*
Y9412700D01*
X15264143Y9412748D01*
X15269792Y9413132D01*
X15272263Y9413468D01*
X15274500Y9413900D01*
X15276498Y9414428D01*
X15278264Y9415052D01*
X15279794Y9415772D01*
X15281088Y9416588D01*
X15282146Y9417500D01*
Y9382500D01*
D02*
G37*
G36*
X13660445Y9409651D02*
X13661739Y9408833D01*
X13663268Y9408111D01*
X13665031Y9407485D01*
X13667030Y9406956D01*
X13669266Y9406522D01*
X13671738Y9406185D01*
X13677385Y9405800D01*
X13680562Y9405752D01*
X13680505Y9380352D01*
X13677328Y9380304D01*
X13671680Y9379921D01*
X13669206Y9379586D01*
X13666971Y9379155D01*
X13664970Y9378629D01*
X13663203Y9378007D01*
X13661674Y9377289D01*
X13660379Y9376475D01*
X13659320Y9375566D01*
X13659387Y9410566D01*
X13660445Y9409651D01*
D02*
G37*
G36*
X13086560Y9346160D02*
X13087872Y9345434D01*
X13089418Y9344793D01*
X13091199Y9344238D01*
X13093211Y9343768D01*
X13095461Y9343384D01*
X13100661Y9342871D01*
X13103612Y9342743D01*
X13106796Y9342700D01*
X13108817Y9317300D01*
X13105643Y9317248D01*
X13100015Y9316828D01*
X13097562Y9316461D01*
X13095348Y9315988D01*
X13093373Y9315411D01*
X13091638Y9314729D01*
X13090141Y9313943D01*
X13088885Y9313050D01*
X13087869Y9312054D01*
X13085483Y9346972D01*
X13086560Y9346160D01*
D02*
G37*
G36*
X11286412Y9316588D02*
X11287706Y9315772D01*
X11289236Y9315052D01*
X11291001Y9314428D01*
X11293001Y9313900D01*
X11295237Y9313468D01*
X11297708Y9313132D01*
X11303356Y9312748D01*
X11306534Y9312700D01*
Y9287300D01*
X11303356Y9287252D01*
X11297708Y9286868D01*
X11295237Y9286532D01*
X11293001Y9286100D01*
X11291001Y9285572D01*
X11289236Y9284948D01*
X11287706Y9284228D01*
X11286412Y9283412D01*
X11285354Y9282500D01*
Y9317500D01*
X11286412Y9316588D01*
D02*
G37*
G36*
X15539645Y9280000D02*
X15538588Y9280912D01*
X15537294Y9281728D01*
X15535764Y9282448D01*
X15534000Y9283072D01*
X15531999Y9283600D01*
X15529762Y9284032D01*
X15527292Y9284368D01*
X15521645Y9284752D01*
X15518466Y9284800D01*
Y9310200D01*
X15521645Y9310248D01*
X15527292Y9310632D01*
X15529762Y9310968D01*
X15531999Y9311400D01*
X15534000Y9311928D01*
X15535764Y9312552D01*
X15537294Y9313272D01*
X15538588Y9314088D01*
X15539645Y9315000D01*
Y9280000D01*
D02*
G37*
G36*
X15319089Y9128588D02*
X15318272Y9127294D01*
X15317552Y9125764D01*
X15316928Y9123999D01*
X15316400Y9121999D01*
X15315968Y9119763D01*
X15315633Y9117292D01*
X15315248Y9111644D01*
X15315199Y9108466D01*
X15289799D01*
X15289752Y9111644D01*
X15289368Y9117292D01*
X15289032Y9119763D01*
X15288600Y9121999D01*
X15288072Y9123999D01*
X15287448Y9125764D01*
X15286728Y9127294D01*
X15285912Y9128588D01*
X15285001Y9129646D01*
X15320000D01*
X15319089Y9128588D01*
D02*
G37*
G36*
X13451588Y9098588D02*
X13450772Y9097294D01*
X13450052Y9095764D01*
X13449428Y9093999D01*
X13448900Y9091999D01*
X13448468Y9089763D01*
X13448132Y9087292D01*
X13447748Y9081644D01*
X13447701Y9078466D01*
X13422301D01*
X13422252Y9081644D01*
X13421867Y9087292D01*
X13421532Y9089763D01*
X13421100Y9091999D01*
X13420572Y9093999D01*
X13419948Y9095764D01*
X13419228Y9097294D01*
X13418411Y9098588D01*
X13417500Y9099646D01*
X13452499D01*
X13451588Y9098588D01*
D02*
G37*
G36*
X17704977Y8928185D02*
X17705316Y8926693D01*
X17705888Y8925102D01*
X17706696Y8923413D01*
X17707736Y8921625D01*
X17709010Y8919739D01*
X17710521Y8917754D01*
X17714244Y8913488D01*
X17716457Y8911207D01*
X17698495Y8893247D01*
X17696214Y8895460D01*
X17691949Y8899182D01*
X17689964Y8900692D01*
X17688078Y8901967D01*
X17686292Y8903009D01*
X17684601Y8903815D01*
X17683011Y8904388D01*
X17681519Y8904726D01*
X17680125Y8904830D01*
X17704874Y8929578D01*
X17704977Y8928185D01*
D02*
G37*
G36*
X10660278Y11720918D02*
X10668857Y11696751D01*
X10651681Y11678847D01*
X10116000D01*
X10101134Y11675890D01*
X10088531Y11667469D01*
X10035073Y11614011D01*
X10033080Y11612515D01*
X10030399Y11610871D01*
X10027416Y11609396D01*
X10024070Y11608090D01*
X10020324Y11606972D01*
X10016135Y11606065D01*
X10011491Y11605399D01*
X10006376Y11605003D01*
X10000090Y11604891D01*
X9997832Y11604400D01*
X9989415D01*
X9968967Y11598921D01*
X9950633Y11588336D01*
X9935664Y11573367D01*
X9925079Y11555033D01*
X9919600Y11534585D01*
Y11513415D01*
X9925079Y11492967D01*
X9935664Y11474633D01*
X9950633Y11459664D01*
X9968967Y11449079D01*
X9989415Y11443600D01*
X10010585D01*
X10031033Y11449079D01*
X10049367Y11459664D01*
X10064336Y11474633D01*
X10074921Y11492967D01*
X10080400Y11513415D01*
Y11521832D01*
X10080891Y11524090D01*
X10081003Y11530376D01*
X10081399Y11535491D01*
X10082065Y11540135D01*
X10082972Y11544325D01*
X10084090Y11548070D01*
X10085396Y11551416D01*
X10086870Y11554398D01*
X10088516Y11557081D01*
X10090010Y11559073D01*
X10132091Y11601154D01*
X10175025D01*
X10185857Y11580593D01*
X10188386Y11571154D01*
X10179079Y11555033D01*
X10173600Y11534585D01*
Y11513415D01*
X10179079Y11492967D01*
X10189664Y11474633D01*
X10204633Y11459664D01*
X10222967Y11449079D01*
X10243415Y11443600D01*
X10251832D01*
X10254090Y11443109D01*
X10260376Y11442997D01*
X10265491Y11442601D01*
X10270135Y11441935D01*
X10274325Y11441028D01*
X10278070Y11439910D01*
X10281416Y11438604D01*
X10284398Y11437130D01*
X10287081Y11435484D01*
X10289073Y11433990D01*
X10333532Y11389531D01*
X10346134Y11381111D01*
X10361000Y11378154D01*
X10697487D01*
X10709600Y11360025D01*
Y11339975D01*
X10717273Y11321451D01*
X10731451Y11307273D01*
X10749975Y11299600D01*
X10770025D01*
X10788549Y11307273D01*
X10792292Y11311015D01*
X10792834Y11311089D01*
X10793781Y11311153D01*
X10873909D01*
X10921731Y11263332D01*
X10934334Y11254911D01*
X10949200Y11251954D01*
X11207306D01*
X11218350Y11235425D01*
Y11215375D01*
X11209004Y11201388D01*
X9200000D01*
X9195035Y11200400D01*
X9189975D01*
X9185299Y11198464D01*
X9180335Y11197476D01*
X9176126Y11194664D01*
X9171451Y11192727D01*
X9167872Y11189148D01*
X9163664Y11186337D01*
X9160852Y11182128D01*
X9157273Y11178549D01*
X9155336Y11173874D01*
X9152524Y11169665D01*
X9151537Y11164701D01*
X9149600Y11160025D01*
Y11154964D01*
X9148613Y11150000D01*
X9149600Y11145036D01*
Y11139975D01*
X9151537Y11135299D01*
X9152524Y11130335D01*
X9155336Y11126127D01*
X9157273Y11121451D01*
X9160852Y11117872D01*
X9163664Y11113664D01*
X9167872Y11110852D01*
X9171451Y11107273D01*
X9176126Y11105336D01*
X9180335Y11102524D01*
X9185299Y11101537D01*
X9189975Y11099600D01*
X9195036D01*
X9200000Y11098613D01*
X9200001Y11098613D01*
X9215169D01*
X9218379Y11096919D01*
X9227029Y11090033D01*
X9238613Y11070000D01*
X9239600Y11065037D01*
Y11059975D01*
X9241537Y11055299D01*
X9242524Y11050335D01*
X9245336Y11046127D01*
X9247273Y11041451D01*
X9250852Y11037871D01*
X9253664Y11033664D01*
X9257872Y11030852D01*
X9261451Y11027273D01*
X9266127Y11025336D01*
X9270335Y11022524D01*
X9275299Y11021537D01*
X9279975Y11019600D01*
X9285037D01*
X9290000Y11018613D01*
X12470000D01*
X12489665Y11022524D01*
X12506336Y11033664D01*
X12571285Y11098613D01*
X12798613D01*
Y10950000D01*
X12802524Y10930335D01*
X12813664Y10913664D01*
X12913664Y10813664D01*
X12930334Y10802524D01*
X12950000Y10798613D01*
X13070000D01*
X13074963Y10799600D01*
X13080025D01*
X13084702Y10801537D01*
X13089665Y10802524D01*
X13093874Y10805336D01*
X13098549Y10807273D01*
X13102129Y10810852D01*
X13106335Y10813664D01*
X13109148Y10817871D01*
X13112727Y10821451D01*
X13114664Y10826127D01*
X13117476Y10830335D01*
X13118463Y10835299D01*
X13120399Y10839975D01*
Y10845036D01*
X13121387Y10850000D01*
X13120399Y10854963D01*
Y10860025D01*
X13118463Y10864701D01*
X13117476Y10869665D01*
X13114664Y10873873D01*
X13112727Y10878549D01*
X13109148Y10882128D01*
X13106335Y10886336D01*
X13102129Y10889148D01*
X13098550Y10892726D01*
X13093280Y10903215D01*
X13093034Y10904122D01*
X13091893Y10916970D01*
X13093057Y10927158D01*
X13093140Y10927439D01*
X13159953Y10994253D01*
X13200093D01*
X13209599Y10980025D01*
Y10959975D01*
X13217273Y10941451D01*
X13221014Y10937708D01*
X13221089Y10937166D01*
X13221153Y10936219D01*
Y10691671D01*
X13221153Y10691670D01*
Y10499955D01*
X13204008Y10488500D01*
X13183958D01*
X13165434Y10480827D01*
X13161693Y10477085D01*
X13161151Y10477011D01*
X13160204Y10476947D01*
X11865704D01*
X11865182Y10477469D01*
X11852580Y10485889D01*
X11837714Y10488846D01*
X10500000D01*
X10485134Y10485889D01*
X10472531Y10477469D01*
X10159335Y10164272D01*
X9410651D01*
X9409706Y10164336D01*
X9409163Y10164410D01*
X9405421Y10168152D01*
X9386896Y10175825D01*
X9366846D01*
X9348322Y10168152D01*
X9334144Y10153975D01*
X9326471Y10135451D01*
Y10115400D01*
X9334144Y10096876D01*
X9348322Y10082699D01*
X9366846Y10075026D01*
X9386896D01*
X9405421Y10082699D01*
X9409163Y10086441D01*
X9409705Y10086515D01*
X9410652Y10086579D01*
X9931906D01*
X9942876Y10056579D01*
X9935664Y10049367D01*
X9925079Y10031033D01*
X9919600Y10010585D01*
Y9989415D01*
X9925079Y9968967D01*
X9935664Y9950633D01*
X9950633Y9935664D01*
X9968967Y9925079D01*
X9989415Y9919600D01*
X10010585D01*
X10031033Y9925079D01*
X10049367Y9935664D01*
X10055318Y9941616D01*
X10057262Y9942865D01*
X10061787Y9947232D01*
X10065682Y9950567D01*
X10069438Y9953381D01*
X10073040Y9955700D01*
X10076483Y9957560D01*
X10079769Y9959002D01*
X10082922Y9960068D01*
X10085979Y9960801D01*
X10088448Y9961154D01*
X10106246D01*
X10158296Y9909104D01*
X10146815Y9881387D01*
X9930000D01*
X9925037Y9880400D01*
X9919975D01*
X9915299Y9878463D01*
X9910335Y9877476D01*
X9906127Y9874664D01*
X9901451Y9872727D01*
X9897871Y9869148D01*
X9893664Y9866336D01*
X9890852Y9862128D01*
X9887273Y9858549D01*
X9885336Y9853873D01*
X9882524Y9849665D01*
X9881537Y9844701D01*
X9879600Y9840025D01*
Y9834963D01*
X9878613Y9830000D01*
X9879600Y9825036D01*
Y9819975D01*
X9881537Y9815299D01*
X9882524Y9810335D01*
X9885336Y9806127D01*
X9887273Y9801451D01*
X9890852Y9797871D01*
X9893664Y9793664D01*
X9897871Y9790852D01*
X9901451Y9787273D01*
X9906127Y9785336D01*
X9910335Y9782524D01*
X9915299Y9781537D01*
X9919975Y9779600D01*
X9925037D01*
X9930000Y9778613D01*
X10067249D01*
X10079675Y9748613D01*
X10035073Y9704011D01*
X10033080Y9702515D01*
X10030399Y9700871D01*
X10027416Y9699396D01*
X10024070Y9698090D01*
X10020324Y9696972D01*
X10016135Y9696065D01*
X10011491Y9695399D01*
X10006376Y9695003D01*
X10000090Y9694891D01*
X9997832Y9694400D01*
X9989415D01*
X9968967Y9688921D01*
X9950633Y9678336D01*
X9935664Y9663367D01*
X9925079Y9645033D01*
X9919600Y9624585D01*
Y9603415D01*
X9925079Y9582967D01*
X9935664Y9564633D01*
X9950633Y9549664D01*
X9968967Y9539079D01*
X9989415Y9533600D01*
X10010585D01*
X10031033Y9539079D01*
X10049367Y9549664D01*
X10064336Y9564633D01*
X10074921Y9582967D01*
X10080400Y9603415D01*
Y9611832D01*
X10080891Y9614090D01*
X10081003Y9620376D01*
X10081399Y9625491D01*
X10082065Y9630135D01*
X10082972Y9634325D01*
X10084090Y9638070D01*
X10085396Y9641416D01*
X10086870Y9644398D01*
X10088516Y9647081D01*
X10090010Y9649073D01*
X10132091Y9691154D01*
X10175025D01*
X10185857Y9670593D01*
X10188386Y9661154D01*
X10179079Y9645033D01*
X10173600Y9624585D01*
Y9603415D01*
X10179079Y9582967D01*
X10189664Y9564633D01*
X10204633Y9549664D01*
X10222967Y9539079D01*
X10243415Y9533600D01*
X10251832D01*
X10254090Y9533109D01*
X10260376Y9532997D01*
X10265491Y9532601D01*
X10270135Y9531935D01*
X10274325Y9531028D01*
X10278070Y9529910D01*
X10281416Y9528604D01*
X10284398Y9527130D01*
X10287081Y9525484D01*
X10289073Y9523990D01*
X10333532Y9479531D01*
X10346134Y9471111D01*
X10361000Y9468154D01*
X10697487D01*
X10709600Y9450025D01*
Y9429975D01*
X10717273Y9411451D01*
X10731451Y9397273D01*
X10749975Y9389600D01*
X10770025D01*
X10788549Y9397273D01*
X10792292Y9401015D01*
X10792834Y9401089D01*
X10793781Y9401153D01*
X10873909D01*
X10921731Y9353332D01*
X10934334Y9344911D01*
X10949200Y9341954D01*
X11198980D01*
X11217899Y9311953D01*
X11217100Y9310025D01*
Y9289975D01*
X11224773Y9271451D01*
X11238951Y9257273D01*
X11257475Y9249600D01*
X11277525D01*
X11296049Y9257273D01*
X11299791Y9261015D01*
X11300334Y9261089D01*
X11301280Y9261153D01*
X12918909D01*
X12947531Y9232531D01*
X12960133Y9224111D01*
X12975000Y9221154D01*
X13303909D01*
X13308653Y9216409D01*
Y9127914D01*
X13305522Y9124293D01*
X13278653Y9110340D01*
X13271025Y9113500D01*
X13250975D01*
X13232451Y9105827D01*
X13218272Y9091649D01*
X13210600Y9073125D01*
Y9053075D01*
X13218272Y9034551D01*
X13226154Y9026670D01*
Y8615435D01*
X13224649Y8613494D01*
X13196153Y8597861D01*
X13190025Y8600400D01*
X13169975D01*
X13151451Y8592727D01*
X13147710Y8588985D01*
X13147166Y8588911D01*
X13146220Y8588846D01*
X12225887D01*
X12224140Y8590593D01*
X12211537Y8599014D01*
X12196672Y8601971D01*
X11233125D01*
X11218259Y8599014D01*
X11205656Y8590593D01*
X11124709Y8509646D01*
X10550800D01*
X10535934Y8506689D01*
X10523331Y8498269D01*
X10283909Y8258847D01*
X9436573D01*
X9431387Y8259017D01*
Y8790000D01*
X9430400Y8794963D01*
Y8800025D01*
X9428463Y8804701D01*
X9427476Y8809665D01*
X9424664Y8813873D01*
X9422727Y8818549D01*
X9419148Y8822128D01*
X9416336Y8826336D01*
X9412128Y8829148D01*
X9408549Y8832727D01*
X9403873Y8834664D01*
X9399665Y8837476D01*
X9394701Y8838463D01*
X9390025Y8840400D01*
X9384963D01*
X9380000Y8841387D01*
X9361557Y8856456D01*
X9356090Y8866883D01*
X9355987Y8867199D01*
Y8998213D01*
X9931038D01*
X9938761Y8999749D01*
X9941063D01*
X9943190Y9000630D01*
X9950703Y9002124D01*
X9957073Y9006381D01*
X9959588Y9007422D01*
X9961512Y9009347D01*
X9967375Y9013264D01*
X9971291Y9019126D01*
X9973765Y9021600D01*
X9975104Y9024832D01*
X9978514Y9029935D01*
X9979711Y9035955D01*
X9981438Y9040124D01*
Y9044637D01*
X9982426Y9049600D01*
X9981438Y9054564D01*
Y9060174D01*
X9979291Y9065358D01*
X9978514Y9069265D01*
X9976300Y9072578D01*
X9973765Y9078698D01*
X9969081Y9083383D01*
X9967375Y9085936D01*
X9964821Y9087643D01*
X9959588Y9092876D01*
X9952750Y9095708D01*
X9950703Y9097076D01*
X9948289Y9097556D01*
X9941063Y9100549D01*
X9933242D01*
X9931038Y9100987D01*
X9299600D01*
X9294636Y9100000D01*
X9289575D01*
X9284899Y9098063D01*
X9279935Y9097076D01*
X9275727Y9094264D01*
X9271051Y9092327D01*
X9267472Y9088748D01*
X9263264Y9085936D01*
X9260452Y9081728D01*
X9256873Y9078149D01*
X9254937Y9073474D01*
X9252124Y9069265D01*
X9251137Y9064301D01*
X9249200Y9059625D01*
Y9054564D01*
X9248213Y9049600D01*
X9249200Y9044636D01*
Y9039575D01*
X9251137Y9034899D01*
X9252124Y9029935D01*
X9253213Y9028306D01*
Y8236407D01*
X9254200Y8231443D01*
Y8226382D01*
X9256137Y8221705D01*
X9257124Y8216742D01*
X9259936Y8212534D01*
X9261873Y8207857D01*
X9265452Y8204278D01*
X9268264Y8200070D01*
X9272472Y8197259D01*
X9276051Y8193680D01*
X9280727Y8191743D01*
X9284935Y8188931D01*
X9289899Y8187944D01*
X9294575Y8186007D01*
X9299637D01*
X9304600Y8185019D01*
X9309564Y8186007D01*
X9314625D01*
X9319301Y8187944D01*
X9324265Y8188931D01*
X9335791Y8191163D01*
X9343664Y8183664D01*
X9346248Y8181937D01*
X9351451Y8177273D01*
X9356127Y8175336D01*
X9360335Y8172524D01*
X9365299Y8171537D01*
X9369975Y8169600D01*
X9375037D01*
X9380000Y8168613D01*
X9384963Y8169600D01*
X9390025D01*
X9394701Y8171537D01*
X9399665Y8172524D01*
X9403873Y8175336D01*
X9408549Y8177273D01*
X9410561Y8179284D01*
X9439898Y8181154D01*
X9937083D01*
X9945428Y8164637D01*
X9947451Y8151154D01*
X9935664Y8139367D01*
X9925079Y8121033D01*
X9919600Y8100585D01*
Y8079415D01*
X9925079Y8058967D01*
X9935664Y8040633D01*
X9950633Y8025664D01*
X9968967Y8015079D01*
X9989415Y8009600D01*
X9997832D01*
X10000090Y8009109D01*
X10006376Y8008997D01*
X10011491Y8008601D01*
X10016135Y8007935D01*
X10020325Y8007028D01*
X10024070Y8005910D01*
X10027416Y8004604D01*
X10030398Y8003130D01*
X10033081Y8001484D01*
X10035073Y7999990D01*
X10090032Y7945031D01*
X10102634Y7936610D01*
X10117500Y7933653D01*
X12875804D01*
X12889879Y7930854D01*
X14929700D01*
X14944566Y7933811D01*
X14957169Y7942232D01*
X15014926Y7999989D01*
X15016920Y8001485D01*
X15019601Y8003130D01*
X15022585Y8004604D01*
X15025931Y8005910D01*
X15029675Y8007028D01*
X15033865Y8007935D01*
X15038509Y8008601D01*
X15043623Y8008997D01*
X15049910Y8009109D01*
X15052168Y8009600D01*
X15060585D01*
X15081033Y8015079D01*
X15099367Y8025664D01*
X15114336Y8040633D01*
X15124921Y8058967D01*
X15130400Y8079415D01*
Y8100585D01*
X15126736Y8114254D01*
X15136847Y8134075D01*
X15146156Y8144254D01*
X15207845D01*
X15217152Y8134075D01*
X15227263Y8114254D01*
X15223599Y8100585D01*
Y8079415D01*
X15229080Y8058967D01*
X15239664Y8040633D01*
X15254633Y8025664D01*
X15272968Y8015079D01*
X15293414Y8009600D01*
X15314584D01*
X15335033Y8015079D01*
X15353368Y8025664D01*
X15368336Y8040633D01*
X15378922Y8058967D01*
X15384399Y8079415D01*
Y8100585D01*
X15380737Y8114254D01*
X15390846Y8134075D01*
X15400156Y8144254D01*
X15461845D01*
X15471153Y8134075D01*
X15481264Y8114254D01*
X15477600Y8100585D01*
Y8079415D01*
X15483080Y8058967D01*
X15493665Y8040633D01*
X15508633Y8025664D01*
X15526967Y8015079D01*
X15547415Y8009600D01*
X15568585D01*
X15589034Y8015079D01*
X15607367Y8025664D01*
X15622336Y8040633D01*
X15632921Y8058967D01*
X15638400Y8079415D01*
Y8100585D01*
X15634737Y8114254D01*
X15644847Y8134075D01*
X15654156Y8144254D01*
X15715845D01*
X15725153Y8134075D01*
X15735263Y8114254D01*
X15731599Y8100585D01*
Y8079415D01*
X15737080Y8058967D01*
X15747664Y8040633D01*
X15762633Y8025664D01*
X15780968Y8015079D01*
X15801414Y8009600D01*
X15822585D01*
X15843033Y8015079D01*
X15861366Y8025664D01*
X15876337Y8040633D01*
X15886922Y8058967D01*
X15892400Y8079415D01*
Y8100585D01*
X15888737Y8114254D01*
X15898846Y8134075D01*
X15905312Y8141144D01*
X15936678Y8141600D01*
X15969421Y8108856D01*
X15970801Y8107113D01*
X15972714Y8104332D01*
X15977490Y8095915D01*
X15979398Y8091903D01*
X15986404Y8073548D01*
X15988522Y8066731D01*
X15989462Y8065001D01*
X15991080Y8058967D01*
X16001665Y8040633D01*
X16016634Y8025664D01*
X16034967Y8015079D01*
X16055415Y8009600D01*
X16076585D01*
X16097034Y8015079D01*
X16115367Y8025664D01*
X16130336Y8040633D01*
X16137411Y8052889D01*
X16164348Y8061629D01*
X16172517Y8060979D01*
X16182797Y8054111D01*
X16197664Y8051154D01*
X16231552D01*
X16234021Y8050801D01*
X16237077Y8050068D01*
X16240231Y8049002D01*
X16243517Y8047561D01*
X16246960Y8045700D01*
X16250563Y8043381D01*
X16254318Y8040567D01*
X16258212Y8037232D01*
X16262740Y8032865D01*
X16264682Y8031616D01*
X16270633Y8025664D01*
X16288966Y8015079D01*
X16309415Y8009600D01*
X16330585D01*
X16351033Y8015079D01*
X16369366Y8025664D01*
X16384335Y8040633D01*
X16394920Y8058967D01*
X16400400Y8079415D01*
Y8100585D01*
X16394920Y8121033D01*
X16384335Y8139367D01*
X16369366Y8154336D01*
X16351033Y8164921D01*
X16330585Y8170400D01*
X16309415D01*
X16288966Y8164921D01*
X16270633Y8154336D01*
X16264682Y8148384D01*
X16262740Y8147135D01*
X16258212Y8142768D01*
X16254318Y8139433D01*
X16250563Y8136619D01*
X16246960Y8134300D01*
X16243518Y8132440D01*
X16240231Y8130998D01*
X16237077Y8129932D01*
X16234021Y8129199D01*
X16231552Y8128847D01*
X16213754D01*
X15815132Y8527469D01*
X15802528Y8535889D01*
X15787663Y8538847D01*
X15316090D01*
X15281749Y8573188D01*
X15281676Y8573279D01*
Y8582897D01*
X15274002Y8601421D01*
X15270976Y8604447D01*
X15266811Y8642706D01*
X15402469Y8778364D01*
X15410889Y8790967D01*
X15413846Y8805833D01*
Y9173909D01*
X15498592Y9258654D01*
X15523720D01*
X15524666Y9258589D01*
X15525208Y9258515D01*
X15528951Y9254773D01*
X15547475Y9247100D01*
X15567525D01*
X15586049Y9254773D01*
X15600227Y9268951D01*
X15607899Y9287475D01*
Y9307525D01*
X15631870Y9328053D01*
X15836137D01*
X15851003Y9331011D01*
X15863605Y9339431D01*
X15875168Y9350995D01*
X15877469Y9352531D01*
X15916090Y9391153D01*
X16036220D01*
X16037166Y9391089D01*
X16037709Y9391015D01*
X16041451Y9387273D01*
X16059975Y9379600D01*
X16080025D01*
X16098549Y9387273D01*
X16112727Y9401451D01*
X16120399Y9419975D01*
Y9440025D01*
X16115417Y9452053D01*
X16124654Y9473364D01*
X16131648Y9482053D01*
X16226900D01*
X16241766Y9485010D01*
X16254369Y9493431D01*
X16284926Y9523989D01*
X16286920Y9525485D01*
X16289603Y9527130D01*
X16292584Y9528604D01*
X16295930Y9529910D01*
X16299677Y9531028D01*
X16303865Y9531935D01*
X16308508Y9532601D01*
X16313625Y9532997D01*
X16319910Y9533109D01*
X16322169Y9533600D01*
X16330585D01*
X16351033Y9539079D01*
X16369366Y9549664D01*
X16384335Y9564633D01*
X16394920Y9582967D01*
X16400400Y9603415D01*
Y9624585D01*
X16394920Y9645033D01*
X16384335Y9663367D01*
X16369366Y9678336D01*
X16351033Y9688921D01*
X16330585Y9694400D01*
X16309415D01*
X16288966Y9688921D01*
X16270633Y9678336D01*
X16255664Y9663367D01*
X16245081Y9645033D01*
X16239600Y9624585D01*
Y9616168D01*
X16239108Y9613910D01*
X16238997Y9607624D01*
X16238602Y9602509D01*
X16237936Y9597865D01*
X16237029Y9593676D01*
X16235910Y9589931D01*
X16234604Y9586584D01*
X16233130Y9583602D01*
X16231483Y9580919D01*
X16229990Y9578927D01*
X16210809Y9559746D01*
X16162157D01*
X16152847Y9569925D01*
X16142737Y9589747D01*
X16146400Y9603415D01*
Y9624585D01*
X16140921Y9645033D01*
X16130336Y9663367D01*
X16115367Y9678336D01*
X16097034Y9688921D01*
X16076585Y9694400D01*
X16055415D01*
X16034967Y9688921D01*
X16016634Y9678336D01*
X16001665Y9663367D01*
X15991080Y9645033D01*
X15985600Y9624585D01*
Y9603415D01*
X15989262Y9589747D01*
X15979153Y9569925D01*
X15969846Y9559746D01*
X15908156D01*
X15898846Y9569925D01*
X15888737Y9589747D01*
X15892400Y9603415D01*
Y9624585D01*
X15886922Y9645033D01*
X15876337Y9663367D01*
X15861366Y9678336D01*
X15843033Y9688921D01*
X15822585Y9694400D01*
X15801414D01*
X15780968Y9688921D01*
X15762633Y9678336D01*
X15747664Y9663367D01*
X15737080Y9645033D01*
X15731599Y9624585D01*
Y9603415D01*
X15735263Y9589747D01*
X15725153Y9569925D01*
X15715845Y9559746D01*
X15654156D01*
X15644847Y9569925D01*
X15634737Y9589747D01*
X15638400Y9603415D01*
Y9624585D01*
X15632921Y9645033D01*
X15622336Y9663367D01*
X15607367Y9678336D01*
X15589034Y9688921D01*
X15568585Y9694400D01*
X15560168D01*
X15557910Y9694891D01*
X15551624Y9695003D01*
X15546509Y9695399D01*
X15541866Y9696065D01*
X15537675Y9696972D01*
X15533931Y9698090D01*
X15530585Y9699396D01*
X15527602Y9700870D01*
X15524919Y9702516D01*
X15522926Y9704011D01*
X15492369Y9734569D01*
X15479765Y9742990D01*
X15464900Y9745947D01*
X13115498D01*
X13104567Y9759425D01*
X13096616Y9775947D01*
X13100400Y9790073D01*
Y9809927D01*
X13096936Y9822853D01*
X13106410Y9841755D01*
X13116191Y9852854D01*
X14941701D01*
X14956566Y9855811D01*
X14969170Y9864231D01*
X15014928Y9909989D01*
X15016920Y9911485D01*
X15019601Y9913130D01*
X15022585Y9914604D01*
X15025931Y9915910D01*
X15029675Y9917028D01*
X15033865Y9917935D01*
X15038509Y9918601D01*
X15043623Y9918997D01*
X15049910Y9919109D01*
X15052168Y9919600D01*
X15060585D01*
X15081033Y9925079D01*
X15099367Y9935664D01*
X15114336Y9950633D01*
X15124921Y9968967D01*
X15130400Y9989415D01*
Y10010585D01*
X15126736Y10024254D01*
X15136847Y10044075D01*
X15146156Y10054254D01*
X15207845D01*
X15217152Y10044075D01*
X15227263Y10024254D01*
X15223599Y10010585D01*
Y9989415D01*
X15229080Y9968967D01*
X15239664Y9950633D01*
X15254633Y9935664D01*
X15272968Y9925079D01*
X15293414Y9919600D01*
X15314584D01*
X15335033Y9925079D01*
X15353368Y9935664D01*
X15368336Y9950633D01*
X15378922Y9968967D01*
X15384399Y9989415D01*
Y10010585D01*
X15380737Y10024254D01*
X15390846Y10044075D01*
X15400156Y10054254D01*
X15461845D01*
X15471153Y10044075D01*
X15481264Y10024254D01*
X15477600Y10010585D01*
Y9989415D01*
X15483080Y9968967D01*
X15493665Y9950633D01*
X15508633Y9935664D01*
X15526967Y9925079D01*
X15547415Y9919600D01*
X15568585D01*
X15589034Y9925079D01*
X15607367Y9935664D01*
X15622336Y9950633D01*
X15632921Y9968967D01*
X15638400Y9989415D01*
Y10010585D01*
X15634737Y10024254D01*
X15644847Y10044075D01*
X15654156Y10054254D01*
X15715845D01*
X15725153Y10044075D01*
X15735263Y10024254D01*
X15731599Y10010585D01*
Y9989415D01*
X15737080Y9968967D01*
X15747664Y9950633D01*
X15762633Y9935664D01*
X15780968Y9925079D01*
X15801414Y9919600D01*
X15822585D01*
X15843033Y9925079D01*
X15861366Y9935664D01*
X15876337Y9950633D01*
X15886922Y9968967D01*
X15892400Y9989415D01*
Y10010585D01*
X15888737Y10024254D01*
X15898846Y10044075D01*
X15908156Y10054254D01*
X15956808D01*
X15975989Y10035074D01*
X15977486Y10033080D01*
X15979131Y10030399D01*
X15980605Y10027416D01*
X15981911Y10024070D01*
X15983028Y10020324D01*
X15983936Y10016135D01*
X15984601Y10011491D01*
X15984998Y10006376D01*
X15985109Y10000090D01*
X15985600Y9997832D01*
Y9989415D01*
X15991080Y9968967D01*
X16001665Y9950633D01*
X16016634Y9935664D01*
X16034967Y9925079D01*
X16055415Y9919600D01*
X16076585D01*
X16097034Y9925079D01*
X16115367Y9935664D01*
X16130336Y9950633D01*
X16140921Y9968967D01*
X16146400Y9989415D01*
Y10010585D01*
X16140921Y10031033D01*
X16130336Y10049367D01*
X16115367Y10064336D01*
X16097034Y10074921D01*
X16076585Y10080400D01*
X16068169D01*
X16065910Y10080891D01*
X16059624Y10081003D01*
X16054509Y10081399D01*
X16049866Y10082065D01*
X16045676Y10082972D01*
X16041931Y10084090D01*
X16038583Y10085396D01*
X16035602Y10086870D01*
X16032919Y10088516D01*
X16030927Y10090011D01*
X16000369Y10120569D01*
X15987766Y10128990D01*
X15972900Y10131947D01*
X15874648D01*
X15870560Y10135585D01*
X15857074Y10161947D01*
X15860400Y10169975D01*
Y10190025D01*
X15852727Y10208549D01*
X15838548Y10222727D01*
X15820026Y10230400D01*
X15799976D01*
X15781451Y10222727D01*
X15777708Y10218985D01*
X15777167Y10218911D01*
X15776219Y10218846D01*
X15629320D01*
X15609933Y10248847D01*
X15610400Y10249975D01*
Y10270025D01*
X15602727Y10288549D01*
X15588548Y10302727D01*
X15570026Y10310400D01*
X15549976D01*
X15531451Y10302727D01*
X15517273Y10288549D01*
X15512219Y10276346D01*
X14955000D01*
X14940134Y10273389D01*
X14927531Y10264969D01*
X14838309Y10175746D01*
X14784908D01*
X14775400Y10189975D01*
Y10210025D01*
X14767728Y10228549D01*
X14753549Y10242727D01*
X14735025Y10250400D01*
X14722765D01*
X14709222Y10273439D01*
X14708054Y10278116D01*
X14799854Y10369916D01*
X14817273Y10366450D01*
X14831451Y10352273D01*
X14849976Y10344600D01*
X14870026D01*
X14888548Y10352273D01*
X14892291Y10356015D01*
X14892834Y10356089D01*
X14893781Y10356154D01*
X15908910D01*
X16229990Y10035074D01*
X16231485Y10033080D01*
X16233130Y10030399D01*
X16234604Y10027416D01*
X16235910Y10024070D01*
X16237029Y10020324D01*
X16237936Y10016135D01*
X16238602Y10011491D01*
X16238997Y10006376D01*
X16239108Y10000090D01*
X16239600Y9997832D01*
Y9989415D01*
X16245081Y9968967D01*
X16255664Y9950633D01*
X16270633Y9935664D01*
X16288966Y9925079D01*
X16309415Y9919600D01*
X16330585D01*
X16351033Y9925079D01*
X16369366Y9935664D01*
X16384335Y9950633D01*
X16394920Y9968967D01*
X16400400Y9989415D01*
Y10010585D01*
X16394920Y10031033D01*
X16384335Y10049367D01*
X16369366Y10064336D01*
X16351033Y10074921D01*
X16330585Y10080400D01*
X16322169D01*
X16319910Y10080891D01*
X16313625Y10081003D01*
X16308508Y10081399D01*
X16303865Y10082065D01*
X16299677Y10082972D01*
X16295930Y10084090D01*
X16292584Y10085396D01*
X16289603Y10086870D01*
X16286919Y10088516D01*
X16284927Y10090011D01*
X15952469Y10422469D01*
X15939867Y10430889D01*
X15925000Y10433847D01*
X15203052D01*
X15190625Y10463846D01*
X15402469Y10675690D01*
X15410889Y10688292D01*
X15413846Y10703158D01*
Y10904565D01*
X15416582Y10908094D01*
X15422401Y10913228D01*
X15433565Y10919014D01*
X15443848Y10921826D01*
X15445299Y10921537D01*
X15449976Y10919600D01*
X15455037D01*
X15460001Y10918613D01*
X15464963Y10919600D01*
X15470026D01*
X15474701Y10921537D01*
X15479665Y10922524D01*
X15483873Y10925336D01*
X15488548Y10927273D01*
X15492130Y10930852D01*
X15496336Y10933664D01*
X15499149Y10937871D01*
X15502727Y10941451D01*
X15504665Y10946127D01*
X15507475Y10950335D01*
X15508463Y10955299D01*
X15510400Y10959975D01*
Y10965036D01*
X15511388Y10970000D01*
Y11048613D01*
X15650000D01*
X15669666Y11052524D01*
X15686336Y11063664D01*
X15721284Y11098613D01*
X17678716D01*
X17823613Y10953715D01*
Y8925000D01*
X17827524Y8905335D01*
X17838664Y8888664D01*
X17913664Y8813664D01*
X17917873Y8810852D01*
X17921451Y8807273D01*
X17926126Y8805336D01*
X17921443Y8780132D01*
X17919875Y8776180D01*
X17916685D01*
X17916197Y8775978D01*
X17891219Y8774817D01*
X17875934Y8788706D01*
X17731232Y8933409D01*
X17730605Y8934127D01*
X17730275Y8934560D01*
Y8939853D01*
X17722601Y8958378D01*
X17708424Y8972555D01*
X17689900Y8980228D01*
X17669850D01*
X17651326Y8972555D01*
X17637148Y8958378D01*
X17629475Y8939853D01*
Y8919803D01*
X17637148Y8901279D01*
X17651326Y8887101D01*
X17669850Y8879428D01*
X17675143D01*
X17675577Y8879098D01*
X17676294Y8878472D01*
X17811154Y8743613D01*
Y6756091D01*
X17443909Y6388847D01*
X16306091D01*
X16017468Y6677468D01*
X16004866Y6685889D01*
X15989999Y6688846D01*
X15283780D01*
X15282834Y6688911D01*
X15282292Y6688985D01*
X15278551Y6692727D01*
X15273901Y6727123D01*
X15402469Y6855690D01*
X15410889Y6868292D01*
X15413846Y6883158D01*
Y7263909D01*
X15498592Y7348654D01*
X15523720D01*
X15524666Y7348589D01*
X15525208Y7348515D01*
X15528951Y7344773D01*
X15547475Y7337100D01*
X15567525D01*
X15586049Y7344773D01*
X15600227Y7358951D01*
X15607899Y7377475D01*
Y7397525D01*
X15631870Y7418053D01*
X15836137D01*
X15851003Y7421011D01*
X15863605Y7429431D01*
X15875168Y7440995D01*
X15877469Y7442531D01*
X15916090Y7481153D01*
X16036220D01*
X16037166Y7481089D01*
X16037709Y7481015D01*
X16041451Y7477273D01*
X16059975Y7469600D01*
X16080025D01*
X16098549Y7477273D01*
X16112727Y7491451D01*
X16120399Y7509975D01*
Y7530025D01*
X16115417Y7542053D01*
X16124654Y7563364D01*
X16131648Y7572053D01*
X16226900D01*
X16241766Y7575011D01*
X16254369Y7583431D01*
X16284926Y7613989D01*
X16286920Y7615485D01*
X16289603Y7617130D01*
X16292584Y7618604D01*
X16295930Y7619910D01*
X16299677Y7621028D01*
X16303865Y7621935D01*
X16308508Y7622601D01*
X16313625Y7622997D01*
X16319910Y7623109D01*
X16322169Y7623600D01*
X16330585D01*
X16351033Y7629079D01*
X16369366Y7639664D01*
X16384335Y7654633D01*
X16394920Y7672967D01*
X16400400Y7693415D01*
Y7714585D01*
X16394920Y7735033D01*
X16384335Y7753367D01*
X16369366Y7768336D01*
X16351033Y7778921D01*
X16330585Y7784400D01*
X16309415D01*
X16288966Y7778921D01*
X16270633Y7768336D01*
X16255664Y7753367D01*
X16245081Y7735033D01*
X16239600Y7714585D01*
Y7706168D01*
X16239108Y7703910D01*
X16238997Y7697624D01*
X16238602Y7692509D01*
X16237936Y7687865D01*
X16237029Y7683676D01*
X16235910Y7679931D01*
X16234604Y7676584D01*
X16233130Y7673602D01*
X16231483Y7670919D01*
X16229990Y7668927D01*
X16210809Y7649746D01*
X16162157D01*
X16152847Y7659925D01*
X16142737Y7679747D01*
X16146400Y7693415D01*
Y7714585D01*
X16140921Y7735033D01*
X16130336Y7753367D01*
X16115367Y7768336D01*
X16097034Y7778921D01*
X16076585Y7784400D01*
X16055415D01*
X16034967Y7778921D01*
X16016634Y7768336D01*
X16001665Y7753367D01*
X15991080Y7735033D01*
X15985600Y7714585D01*
Y7693415D01*
X15989262Y7679747D01*
X15979153Y7659925D01*
X15969846Y7649746D01*
X15908156D01*
X15898846Y7659925D01*
X15888737Y7679747D01*
X15892400Y7693415D01*
Y7714585D01*
X15886922Y7735033D01*
X15876337Y7753367D01*
X15861366Y7768336D01*
X15843033Y7778921D01*
X15822585Y7784400D01*
X15801414D01*
X15780968Y7778921D01*
X15762633Y7768336D01*
X15747664Y7753367D01*
X15737080Y7735033D01*
X15731599Y7714585D01*
Y7693415D01*
X15735263Y7679747D01*
X15725153Y7659925D01*
X15715845Y7649746D01*
X15654156D01*
X15644847Y7659925D01*
X15634737Y7679747D01*
X15638400Y7693415D01*
Y7714585D01*
X15632921Y7735033D01*
X15622336Y7753367D01*
X15607367Y7768336D01*
X15589034Y7778921D01*
X15568585Y7784400D01*
X15560168D01*
X15557910Y7784891D01*
X15551624Y7785003D01*
X15546509Y7785399D01*
X15541866Y7786065D01*
X15537675Y7786972D01*
X15533931Y7788090D01*
X15530585Y7789396D01*
X15527602Y7790870D01*
X15524919Y7792516D01*
X15522926Y7794011D01*
X15492369Y7824569D01*
X15479765Y7832990D01*
X15464900Y7835947D01*
X12756963D01*
X12742097Y7832990D01*
X12729495Y7824569D01*
X12718068Y7813142D01*
X12688466Y7814804D01*
X12680400Y7826875D01*
Y7846925D01*
X12672727Y7865449D01*
X12658549Y7879627D01*
X12640025Y7887300D01*
X12619975D01*
X12601451Y7879627D01*
X12597708Y7875885D01*
X12597166Y7875811D01*
X12596219Y7875747D01*
X11726270D01*
X11725348Y7876669D01*
X11712745Y7885089D01*
X11697879Y7888046D01*
X10703695D01*
X10688829Y7885089D01*
X10676226Y7876669D01*
X10658404Y7858847D01*
X10116000D01*
X10101134Y7855890D01*
X10088531Y7847469D01*
X10035073Y7794011D01*
X10033080Y7792515D01*
X10030399Y7790871D01*
X10027416Y7789396D01*
X10024070Y7788090D01*
X10020324Y7786972D01*
X10016135Y7786065D01*
X10011491Y7785399D01*
X10006376Y7785003D01*
X10000090Y7784891D01*
X9997832Y7784400D01*
X9989415D01*
X9968967Y7778921D01*
X9950633Y7768336D01*
X9935664Y7753367D01*
X9925079Y7735033D01*
X9919600Y7714585D01*
Y7693415D01*
X9925079Y7672967D01*
X9935664Y7654633D01*
X9950633Y7639664D01*
X9968967Y7629079D01*
X9989415Y7623600D01*
X10010585D01*
X10031033Y7629079D01*
X10049367Y7639664D01*
X10064336Y7654633D01*
X10074921Y7672967D01*
X10080400Y7693415D01*
Y7701832D01*
X10080891Y7704090D01*
X10081003Y7710376D01*
X10081399Y7715491D01*
X10082065Y7720135D01*
X10082972Y7724325D01*
X10084090Y7728070D01*
X10085396Y7731416D01*
X10086870Y7734398D01*
X10088516Y7737081D01*
X10090010Y7739073D01*
X10132091Y7781154D01*
X10175025D01*
X10185857Y7760593D01*
X10188386Y7751154D01*
X10179079Y7735033D01*
X10173600Y7714585D01*
Y7693415D01*
X10179079Y7672967D01*
X10189664Y7654633D01*
X10204633Y7639664D01*
X10222967Y7629079D01*
X10243415Y7623600D01*
X10251832D01*
X10254090Y7623109D01*
X10260376Y7622997D01*
X10265491Y7622601D01*
X10270135Y7621935D01*
X10274325Y7621028D01*
X10275528Y7620669D01*
X10280755Y7614738D01*
X10284883Y7606787D01*
X10266997Y7576787D01*
X9304600D01*
X9299637Y7575800D01*
X9294575D01*
X9289899Y7573863D01*
X9284935Y7572875D01*
X9280727Y7570064D01*
X9276051Y7568127D01*
X9272472Y7564547D01*
X9268264Y7561736D01*
X9265452Y7557528D01*
X9261873Y7553949D01*
X9259936Y7549273D01*
X9257124Y7545065D01*
X9256137Y7540101D01*
X9254200Y7535425D01*
Y7530363D01*
X9253213Y7525400D01*
X9254200Y7520436D01*
Y7515375D01*
X9256137Y7510698D01*
X9257124Y7505735D01*
X9259936Y7501527D01*
X9261873Y7496850D01*
X9265452Y7493271D01*
X9268264Y7489064D01*
X9272472Y7486252D01*
X9276051Y7482673D01*
X9280727Y7480736D01*
X9284935Y7477924D01*
X9289899Y7476937D01*
X9294575Y7475000D01*
X9299637D01*
X9304600Y7474012D01*
X10593315D01*
X10693664Y7373664D01*
X10710335Y7362524D01*
X10730000Y7358613D01*
X11134983D01*
X11209932Y7283664D01*
X11226603Y7272524D01*
X11246268Y7268613D01*
X12908714D01*
X12963664Y7213663D01*
X12980334Y7202524D01*
X13000000Y7198613D01*
X13123613D01*
Y7050000D01*
X13124600Y7045037D01*
Y7039975D01*
X13126537Y7035299D01*
X13127524Y7030335D01*
X13130336Y7026127D01*
X13132272Y7021451D01*
X13135852Y7017872D01*
X13138664Y7013664D01*
X13142873Y7010852D01*
X13146451Y7007273D01*
X13151128Y7005336D01*
X13155334Y7002524D01*
X13160300Y7001537D01*
X13164975Y6999600D01*
X13170036D01*
X13175000Y6998613D01*
X13179964Y6999600D01*
X13185025D01*
X13189700Y7001537D01*
X13192152Y7002025D01*
X13197017Y7001477D01*
X13212022Y6994799D01*
X13217868Y6990114D01*
X13222153Y6984979D01*
Y6765021D01*
X13219612Y6761975D01*
X13192152Y6747448D01*
X13185025Y6750400D01*
X13164975D01*
X13146451Y6742727D01*
X13132272Y6728549D01*
X13124600Y6710025D01*
Y6704732D01*
X13124271Y6704299D01*
X13123643Y6703581D01*
X13098909Y6678846D01*
X11230000D01*
X11215134Y6675889D01*
X11202531Y6667469D01*
X11134709Y6599646D01*
X10562958D01*
X10548092Y6596689D01*
X10535489Y6588269D01*
X10296068Y6348847D01*
X9456091D01*
X9424246Y6380691D01*
Y6536220D01*
X9424311Y6537166D01*
X9424385Y6537709D01*
X9428127Y6541451D01*
X9435800Y6559975D01*
Y6580025D01*
X9428127Y6598549D01*
X9413949Y6612727D01*
X9395425Y6620400D01*
X9375375D01*
X9356850Y6612727D01*
X9342673Y6598549D01*
X9335000Y6580025D01*
Y6559975D01*
X9342673Y6541451D01*
X9346415Y6537709D01*
X9346489Y6537167D01*
X9346553Y6536220D01*
Y6364600D01*
X9349510Y6349734D01*
X9357931Y6337132D01*
X9412531Y6282532D01*
X9425134Y6274111D01*
X9440000Y6271154D01*
X9937083D01*
X9945428Y6254637D01*
X9947451Y6241154D01*
X9935664Y6229367D01*
X9925079Y6211033D01*
X9919600Y6190585D01*
Y6169415D01*
X9925079Y6148967D01*
X9935664Y6130633D01*
X9950633Y6115664D01*
X9968967Y6105079D01*
X9989415Y6099600D01*
X9997832D01*
X10000090Y6099109D01*
X10006376Y6098997D01*
X10011491Y6098601D01*
X10016135Y6097935D01*
X10020325Y6097028D01*
X10024070Y6095910D01*
X10027416Y6094604D01*
X10030398Y6093130D01*
X10033081Y6091484D01*
X10035073Y6089990D01*
X10090032Y6035031D01*
X10097562Y6030000D01*
X10095047Y6006547D01*
X10092572Y6000000D01*
X8125000D01*
Y11725000D01*
X10657728D01*
X10660278Y11720918D01*
D02*
G37*
G36*
X17941656Y8705739D02*
X17940591Y8704781D01*
X17939639Y8703577D01*
X17938800Y8702127D01*
X17938071Y8700431D01*
X17937456Y8698489D01*
X17936951Y8696301D01*
X17936559Y8693868D01*
X17936279Y8691188D01*
X17936055Y8685092D01*
X17910655Y8689117D01*
X17910619Y8692315D01*
X17910066Y8700488D01*
X17909735Y8702738D01*
X17908852Y8706528D01*
X17908298Y8708068D01*
X17907672Y8709371D01*
X17906973Y8710436D01*
X17941656Y8705739D01*
D02*
G37*
G36*
X13957146Y8557500D02*
X13956088Y8558412D01*
X13954794Y8559228D01*
X13953264Y8559948D01*
X13951498Y8560572D01*
X13949500Y8561100D01*
X13947263Y8561532D01*
X13944792Y8561868D01*
X13939143Y8562252D01*
X13935966Y8562300D01*
Y8587700D01*
X13939143Y8587748D01*
X13944792Y8588132D01*
X13947263Y8588468D01*
X13949500Y8588900D01*
X13951498Y8589428D01*
X13953264Y8590052D01*
X13954794Y8590772D01*
X13956088Y8591588D01*
X13957146Y8592500D01*
Y8557500D01*
D02*
G37*
G36*
X14763332Y9251732D02*
X14775934Y9243311D01*
X14790800Y9240354D01*
X15304820D01*
X15322350Y9210353D01*
X15315817Y9198763D01*
X15312524Y9197900D01*
X15292474D01*
X15273952Y9190227D01*
X15259773Y9176049D01*
X15252100Y9157525D01*
Y9137475D01*
X15259773Y9118951D01*
X15263515Y9115209D01*
X15263589Y9114667D01*
X15263654Y9113720D01*
Y8821266D01*
X15097034Y8654646D01*
X14812500D01*
X14797633Y8651689D01*
X14785031Y8643268D01*
X14692509Y8550747D01*
X14034908D01*
X14025400Y8564975D01*
Y8585025D01*
X14017728Y8603549D01*
X14003549Y8617727D01*
X13985025Y8625400D01*
X13964975D01*
X13946451Y8617727D01*
X13942708Y8613985D01*
X13942166Y8613911D01*
X13941220Y8613847D01*
X13481091D01*
X13473846Y8621091D01*
Y9083720D01*
X13473911Y9084666D01*
X13473985Y9085208D01*
X13477727Y9088951D01*
X13485400Y9107475D01*
Y9127525D01*
X13477727Y9146049D01*
X13463548Y9160227D01*
X13445026Y9167900D01*
X13424976D01*
X13416347Y9164326D01*
X13390808Y9177090D01*
X13386346Y9181900D01*
Y9232500D01*
X13383389Y9247366D01*
X13374969Y9259969D01*
X13373784Y9261154D01*
X13386211Y9291154D01*
X13870000D01*
X13884866Y9294111D01*
X13897469Y9302532D01*
X13932890Y9337953D01*
X14677110D01*
X14763332Y9251732D01*
D02*
G37*
G36*
X15256020Y8568260D02*
X15256219Y8566735D01*
X15256668Y8565116D01*
X15257368Y8563402D01*
X15258318Y8561593D01*
X15259518Y8559690D01*
X15260970Y8557692D01*
X15262672Y8555600D01*
X15266829Y8551131D01*
X15246391Y8535648D01*
X15244106Y8537880D01*
X15237923Y8543248D01*
X15236086Y8544596D01*
X15234361Y8545722D01*
X15232751Y8546627D01*
X15231252Y8547311D01*
X15229865Y8547774D01*
X15228590Y8548016D01*
X15256071Y8569691D01*
X15256020Y8568260D01*
D02*
G37*
G36*
X13162146Y8532500D02*
X13161089Y8533412D01*
X13159795Y8534228D01*
X13158264Y8534948D01*
X13156499Y8535572D01*
X13154498Y8536100D01*
X13152263Y8536532D01*
X13149792Y8536868D01*
X13144144Y8537252D01*
X13140965Y8537300D01*
Y8562700D01*
X13144144Y8562748D01*
X13149792Y8563132D01*
X13152263Y8563468D01*
X13154498Y8563900D01*
X13156499Y8564428D01*
X13158264Y8565052D01*
X13159795Y8565772D01*
X13161089Y8566588D01*
X13162146Y8567500D01*
Y8532500D01*
D02*
G37*
G36*
X13837549Y8528007D02*
X13838861Y8527292D01*
X13840408Y8526661D01*
X13842188Y8526114D01*
X13844203Y8525652D01*
X13846452Y8525273D01*
X13851656Y8524768D01*
X13854607Y8524642D01*
X13857794Y8524600D01*
X13860046Y8499200D01*
X13856874Y8499147D01*
X13851250Y8498724D01*
X13848798Y8498353D01*
X13846587Y8497877D01*
X13844615Y8497295D01*
X13842883Y8496607D01*
X13841393Y8495813D01*
X13840141Y8494913D01*
X13839133Y8493908D01*
X13836472Y8528806D01*
X13837549Y8528007D01*
D02*
G37*
G36*
X11288354Y8504096D02*
X11289567Y8503153D01*
X11291025Y8502320D01*
X11292727Y8501598D01*
X11294675Y8500988D01*
X11296867Y8500488D01*
X11299304Y8500100D01*
X11301986Y8499822D01*
X11308083Y8499600D01*
X11304374Y8474200D01*
X11301178Y8474162D01*
X11293008Y8473595D01*
X11290757Y8473255D01*
X11288742Y8472840D01*
X11286964Y8472348D01*
X11285422Y8471782D01*
X11284116Y8471139D01*
X11283046Y8470421D01*
X11287386Y8505151D01*
X11288354Y8504096D01*
D02*
G37*
G36*
X13502145Y8462500D02*
X13501088Y8463412D01*
X13499794Y8464228D01*
X13498264Y8464948D01*
X13496500Y8465572D01*
X13494499Y8466100D01*
X13492262Y8466532D01*
X13489792Y8466868D01*
X13484143Y8467252D01*
X13480966Y8467300D01*
Y8492700D01*
X13484143Y8492748D01*
X13489792Y8493132D01*
X13492262Y8493468D01*
X13494499Y8493900D01*
X13496500Y8494428D01*
X13498264Y8495052D01*
X13499794Y8495772D01*
X13501088Y8496588D01*
X13502145Y8497500D01*
Y8462500D01*
D02*
G37*
G36*
X13658913Y8476588D02*
X13660207Y8475772D01*
X13661736Y8475052D01*
X13663501Y8474428D01*
X13665501Y8473900D01*
X13667737Y8473468D01*
X13670209Y8473132D01*
X13675856Y8472748D01*
X13679034Y8472700D01*
Y8447300D01*
X13675856Y8447252D01*
X13670209Y8446868D01*
X13667737Y8446532D01*
X13665501Y8446100D01*
X13663501Y8445572D01*
X13661736Y8444948D01*
X13660207Y8444228D01*
X13658913Y8443412D01*
X13657854Y8442500D01*
Y8477500D01*
X13658913Y8476588D01*
D02*
G37*
G36*
X15305048Y8395495D02*
X15303629Y8395642D01*
X15302110Y8395528D01*
X15300499Y8395153D01*
X15298792Y8394518D01*
X15296986Y8393621D01*
X15295087Y8392463D01*
X15293091Y8391045D01*
X15290999Y8389365D01*
X15286528Y8385224D01*
X15272629Y8407246D01*
X15274878Y8409540D01*
X15281715Y8417444D01*
X15282886Y8419102D01*
X15283839Y8420632D01*
X15284575Y8422036D01*
X15285097Y8423312D01*
X15285400Y8424461D01*
X15305048Y8395495D01*
D02*
G37*
G36*
X12643912Y8416588D02*
X12645206Y8415772D01*
X12646736Y8415052D01*
X12648501Y8414428D01*
X12650501Y8413900D01*
X12652737Y8413468D01*
X12655208Y8413132D01*
X12660856Y8412748D01*
X12664034Y8412700D01*
Y8387300D01*
X12660856Y8387252D01*
X12655208Y8386868D01*
X12652737Y8386532D01*
X12650501Y8386100D01*
X12648501Y8385572D01*
X12646736Y8384948D01*
X12645206Y8384228D01*
X12643912Y8383412D01*
X12642854Y8382500D01*
X12625000Y8400000D01*
X12642854Y8417500D01*
X12643912Y8416588D01*
D02*
G37*
G36*
X12625000Y8400000D02*
X12607146Y8382500D01*
X12606088Y8383412D01*
X12604794Y8384228D01*
X12603264Y8384948D01*
X12601499Y8385572D01*
X12599499Y8386100D01*
X12597263Y8386532D01*
X12594792Y8386868D01*
X12589143Y8387252D01*
X12585966Y8387300D01*
Y8412700D01*
X12589143Y8412748D01*
X12594792Y8413132D01*
X12597263Y8413468D01*
X12599499Y8413900D01*
X12601499Y8414428D01*
X12603264Y8415052D01*
X12604794Y8415772D01*
X12606088Y8416588D01*
X12607146Y8417500D01*
X12625000Y8400000D01*
D02*
G37*
G36*
X13141029Y8356175D02*
X13155896Y8353218D01*
X14886584D01*
X14898065Y8325502D01*
X14824010Y8251446D01*
X12827821D01*
X12812955Y8248489D01*
X12800352Y8240068D01*
X12799431Y8239146D01*
X12358780D01*
X12357834Y8239211D01*
X12357292Y8239285D01*
X12353549Y8243027D01*
X12335025Y8250700D01*
X12314975D01*
X12296451Y8243027D01*
X12292708Y8239285D01*
X12292166Y8239211D01*
X12291220Y8239146D01*
X12044222D01*
X11949932Y8333437D01*
X11961412Y8361153D01*
X12010093D01*
X12019600Y8346925D01*
Y8326875D01*
X12027273Y8308351D01*
X12041451Y8294173D01*
X12059975Y8286500D01*
X12080025D01*
X12098549Y8294173D01*
X12102292Y8297915D01*
X12102834Y8297989D01*
X12103780Y8298054D01*
X12286220D01*
X12287166Y8297989D01*
X12287708Y8297915D01*
X12291451Y8294173D01*
X12309975Y8286500D01*
X12330025D01*
X12348549Y8294173D01*
X12362727Y8308351D01*
X12370400Y8326875D01*
Y8346925D01*
X12379907Y8361153D01*
X12591220D01*
X12592166Y8361089D01*
X12592708Y8361015D01*
X12596451Y8357273D01*
X12614975Y8349600D01*
X12635025D01*
X12653549Y8357273D01*
X12657291Y8361015D01*
X12657833Y8361089D01*
X12658780Y8361153D01*
X13133580D01*
X13141029Y8356175D01*
D02*
G37*
G36*
X12302146Y8319400D02*
X12301088Y8320312D01*
X12299794Y8321128D01*
X12298264Y8321848D01*
X12296499Y8322472D01*
X12294499Y8323000D01*
X12292263Y8323432D01*
X12289792Y8323768D01*
X12284144Y8324152D01*
X12280966Y8324200D01*
Y8349600D01*
X12284144Y8349648D01*
X12289792Y8350032D01*
X12292263Y8350368D01*
X12294499Y8350800D01*
X12296499Y8351328D01*
X12298264Y8351952D01*
X12299794Y8352672D01*
X12301088Y8353488D01*
X12302146Y8354400D01*
Y8319400D01*
D02*
G37*
G36*
X12088912Y8353488D02*
X12090206Y8352672D01*
X12091736Y8351952D01*
X12093501Y8351328D01*
X12095501Y8350800D01*
X12097737Y8350368D01*
X12100208Y8350032D01*
X12105856Y8349648D01*
X12109034Y8349600D01*
Y8324200D01*
X12105856Y8324152D01*
X12100208Y8323768D01*
X12097737Y8323432D01*
X12095501Y8323000D01*
X12093501Y8322472D01*
X12091736Y8321848D01*
X12090206Y8321128D01*
X12088912Y8320312D01*
X12087854Y8319400D01*
Y8354400D01*
X12088912Y8353488D01*
D02*
G37*
G36*
X17936055Y8286663D02*
X17936092Y8283465D01*
X17936644Y8275293D01*
X17936977Y8273042D01*
X17937859Y8269252D01*
X17938412Y8267712D01*
X17939038Y8266409D01*
X17939738Y8265343D01*
X17905054Y8270041D01*
X17906117Y8270999D01*
X17907071Y8272203D01*
X17907912Y8273653D01*
X17908640Y8275349D01*
X17909254Y8277291D01*
X17909760Y8279478D01*
X17910152Y8281912D01*
X17910431Y8284591D01*
X17910655Y8290688D01*
X17936055Y8286663D01*
D02*
G37*
G36*
X15749823Y8244088D02*
X15748766Y8245000D01*
X15747472Y8245816D01*
X15745941Y8246536D01*
X15744176Y8247160D01*
X15742175Y8247688D01*
X15739940Y8248120D01*
X15737469Y8248456D01*
X15731821Y8248840D01*
X15728642Y8248888D01*
Y8274288D01*
X15731821Y8274336D01*
X15737469Y8274720D01*
X15739940Y8275056D01*
X15742175Y8275488D01*
X15744176Y8276016D01*
X15745941Y8276640D01*
X15747472Y8277360D01*
X15748766Y8278176D01*
X15749823Y8279088D01*
Y8244088D01*
D02*
G37*
G36*
X9399104Y8236741D02*
X9401420Y8235893D01*
X9404613Y8235145D01*
X9408683Y8234496D01*
X9419456Y8233498D01*
X9442198Y8232750D01*
X9451534Y8232700D01*
Y8207300D01*
X9442198Y8207250D01*
X9404613Y8204856D01*
X9401420Y8204107D01*
X9399104Y8203259D01*
X9397667Y8202312D01*
Y8237689D01*
X9399104Y8236741D01*
D02*
G37*
G36*
X12343912Y8216888D02*
X12345206Y8216072D01*
X12346736Y8215352D01*
X12348501Y8214728D01*
X12350501Y8214200D01*
X12352737Y8213768D01*
X12355208Y8213432D01*
X12360856Y8213048D01*
X12364034Y8213000D01*
Y8187600D01*
X12360856Y8187552D01*
X12355208Y8187168D01*
X12352737Y8186832D01*
X12350501Y8186400D01*
X12348501Y8185872D01*
X12346736Y8185248D01*
X12345206Y8184528D01*
X12343912Y8183712D01*
X12342854Y8182800D01*
Y8217800D01*
X12343912Y8216888D01*
D02*
G37*
G36*
X12307146Y8182800D02*
X12306088Y8183712D01*
X12304794Y8184528D01*
X12303264Y8185248D01*
X12301499Y8185872D01*
X12299499Y8186400D01*
X12297263Y8186832D01*
X12294792Y8187168D01*
X12289144Y8187552D01*
X12285966Y8187600D01*
Y8213000D01*
X12289144Y8213048D01*
X12294792Y8213432D01*
X12297263Y8213768D01*
X12299499Y8214200D01*
X12301499Y8214728D01*
X12303264Y8215352D01*
X12304794Y8216072D01*
X12306088Y8216888D01*
X12307146Y8217800D01*
Y8182800D01*
D02*
G37*
G36*
X12978612Y8126036D02*
X12977551Y8126948D01*
X12976257Y8127764D01*
X12974728Y8128484D01*
X12972963Y8129108D01*
X12970963Y8129636D01*
X12968727Y8130068D01*
X12966257Y8130404D01*
X12960608Y8130788D01*
X12957430Y8130836D01*
Y8156236D01*
X12960608Y8156284D01*
X12966257Y8156668D01*
X12968727Y8157004D01*
X12970963Y8157436D01*
X12972963Y8157964D01*
X12974728Y8158588D01*
X12976257Y8159308D01*
X12977551Y8160124D01*
X12978612Y8161036D01*
Y8126036D01*
D02*
G37*
G36*
X13017564Y8157264D02*
X13018762Y8156306D01*
X13020206Y8155461D01*
X13021898Y8154728D01*
X13023836Y8154109D01*
X13026019Y8153601D01*
X13028452Y8153207D01*
X13031128Y8152925D01*
X13037224Y8152700D01*
X13032974Y8127300D01*
X13029774Y8127264D01*
X13021600Y8126722D01*
X13019351Y8126397D01*
X13015562Y8125529D01*
X13014026Y8124987D01*
X13012726Y8124373D01*
X13011662Y8123687D01*
X13016612Y8158335D01*
X13017564Y8157264D01*
D02*
G37*
G36*
X11090044Y8146083D02*
X11086360Y8142035D01*
X11083072Y8137651D01*
X11080178Y8132934D01*
X11077681Y8127882D01*
X11075578Y8122496D01*
X11073871Y8116776D01*
X11072560Y8110721D01*
X11071644Y8104332D01*
X11071123Y8097608D01*
X11070997Y8090550D01*
X11016550Y8144997D01*
X11023608Y8145123D01*
X11030332Y8145644D01*
X11036721Y8146560D01*
X11042776Y8147871D01*
X11048496Y8149578D01*
X11053882Y8151681D01*
X11058934Y8154178D01*
X11063651Y8157072D01*
X11068035Y8160360D01*
X11072083Y8164044D01*
X11090044Y8146083D01*
D02*
G37*
G36*
X10836044D02*
X10832360Y8142035D01*
X10829072Y8137651D01*
X10826178Y8132934D01*
X10823681Y8127882D01*
X10821578Y8122496D01*
X10819871Y8116776D01*
X10818560Y8110721D01*
X10817644Y8104332D01*
X10817123Y8097608D01*
X10816997Y8090550D01*
X10762550Y8144997D01*
X10769608Y8145123D01*
X10776332Y8145644D01*
X10782721Y8146560D01*
X10788776Y8147871D01*
X10794496Y8149578D01*
X10799882Y8151681D01*
X10804934Y8154178D01*
X10809651Y8157072D01*
X10814035Y8160360D01*
X10818083Y8164044D01*
X10836044Y8146083D01*
D02*
G37*
G36*
X10582044D02*
X10578360Y8142035D01*
X10575072Y8137651D01*
X10572178Y8132934D01*
X10569681Y8127882D01*
X10567578Y8122496D01*
X10565871Y8116776D01*
X10564560Y8110721D01*
X10563644Y8104332D01*
X10563123Y8097608D01*
X10562997Y8090550D01*
X10508550Y8144997D01*
X10515608Y8145123D01*
X10522332Y8145644D01*
X10528721Y8146560D01*
X10534776Y8147871D01*
X10540496Y8149578D01*
X10545882Y8151681D01*
X10550934Y8154178D01*
X10555651Y8157072D01*
X10560035Y8160360D01*
X10564083Y8164044D01*
X10582044Y8146083D01*
D02*
G37*
G36*
X10328044D02*
X10324360Y8142035D01*
X10321072Y8137651D01*
X10318178Y8132934D01*
X10315681Y8127882D01*
X10313578Y8122496D01*
X10311871Y8116776D01*
X10310560Y8110721D01*
X10309644Y8104332D01*
X10309123Y8097608D01*
X10308997Y8090550D01*
X10254550Y8144997D01*
X10261608Y8145123D01*
X10268332Y8145644D01*
X10274721Y8146560D01*
X10280776Y8147871D01*
X10286496Y8149578D01*
X10291882Y8151681D01*
X10296934Y8154178D01*
X10301651Y8157072D01*
X10306035Y8160360D01*
X10310083Y8164044D01*
X10328044Y8146083D01*
D02*
G37*
G36*
X16001843Y8149737D02*
X16006335Y8146463D01*
X16011026Y8143804D01*
X16015912Y8141761D01*
X16020995Y8140332D01*
X16026276Y8139520D01*
X16031752Y8139323D01*
X16037425Y8139741D01*
X16043295Y8140774D01*
X16049364Y8142423D01*
X16013254Y8074415D01*
X16010892Y8082018D01*
X16003226Y8102099D01*
X16000475Y8107882D01*
X15994685Y8118085D01*
X15991646Y8122504D01*
X15988509Y8126469D01*
X15985275Y8129978D01*
X15997548Y8153627D01*
X16001843Y8149737D01*
D02*
G37*
G36*
X16280722Y8051500D02*
X16275642Y8056402D01*
X16270520Y8060788D01*
X16265355Y8064658D01*
X16260146Y8068012D01*
X16254893Y8070850D01*
X16249599Y8073172D01*
X16244260Y8074978D01*
X16238879Y8076268D01*
X16233453Y8077042D01*
X16227986Y8077300D01*
Y8102700D01*
X16233453Y8102958D01*
X16238879Y8103732D01*
X16244260Y8105022D01*
X16249599Y8106828D01*
X16254893Y8109150D01*
X16260146Y8111988D01*
X16265355Y8115342D01*
X16270520Y8119212D01*
X16275642Y8123598D01*
X16280722Y8128500D01*
Y8051500D01*
D02*
G37*
G36*
X13568912Y8081588D02*
X13570206Y8080772D01*
X13571736Y8080052D01*
X13573502Y8079428D01*
X13575500Y8078900D01*
X13577737Y8078468D01*
X13580208Y8078132D01*
X13585857Y8077748D01*
X13589034Y8077700D01*
Y8052300D01*
X13585857Y8052252D01*
X13580208Y8051868D01*
X13577737Y8051532D01*
X13575500Y8051100D01*
X13573502Y8050572D01*
X13571736Y8049948D01*
X13570206Y8049228D01*
X13568912Y8048412D01*
X13567854Y8047500D01*
Y8082500D01*
X13568912Y8081588D01*
D02*
G37*
G36*
X13532146Y8047500D02*
X13531088Y8048412D01*
X13529794Y8049228D01*
X13528264Y8049948D01*
X13526498Y8050572D01*
X13524500Y8051100D01*
X13522263Y8051532D01*
X13519792Y8051868D01*
X13514143Y8052252D01*
X13510966Y8052300D01*
Y8077700D01*
X13514143Y8077748D01*
X13519792Y8078132D01*
X13522263Y8078468D01*
X13524500Y8078900D01*
X13526498Y8079428D01*
X13528264Y8080052D01*
X13529794Y8080772D01*
X13531088Y8081588D01*
X13532146Y8082500D01*
Y8047500D01*
D02*
G37*
G36*
X15049451Y8035003D02*
X15042392Y8034877D01*
X15035669Y8034357D01*
X15029279Y8033440D01*
X15023224Y8032129D01*
X15017503Y8030422D01*
X15012119Y8028319D01*
X15007066Y8025822D01*
X15002348Y8022929D01*
X14997966Y8019640D01*
X14993916Y8015956D01*
X14975957Y8033917D01*
X14979640Y8037966D01*
X14982928Y8042349D01*
X14985822Y8047066D01*
X14988319Y8052118D01*
X14990422Y8057504D01*
X14992130Y8063224D01*
X14993440Y8069279D01*
X14994357Y8075669D01*
X14994878Y8082392D01*
X14995003Y8089450D01*
X15049451Y8035003D01*
D02*
G37*
G36*
X10055123Y8082392D02*
X10055644Y8075669D01*
X10056560Y8069279D01*
X10057871Y8063224D01*
X10059578Y8057504D01*
X10061681Y8052118D01*
X10064178Y8047066D01*
X10067072Y8042349D01*
X10070360Y8037966D01*
X10074044Y8033917D01*
X10056083Y8015956D01*
X10052035Y8019640D01*
X10047651Y8022929D01*
X10042934Y8025822D01*
X10037882Y8028319D01*
X10032496Y8030422D01*
X10026776Y8032129D01*
X10020721Y8033440D01*
X10014332Y8034357D01*
X10007608Y8034877D01*
X10000550Y8035003D01*
X10054997Y8089450D01*
X10055123Y8082392D01*
D02*
G37*
G36*
X12612146Y7819400D02*
X12611088Y7820312D01*
X12609794Y7821128D01*
X12608264Y7821848D01*
X12606499Y7822472D01*
X12604499Y7823000D01*
X12602263Y7823432D01*
X12599792Y7823768D01*
X12594143Y7824152D01*
X12590966Y7824200D01*
Y7849600D01*
X12594143Y7849648D01*
X12599792Y7850032D01*
X12602263Y7850368D01*
X12604499Y7850800D01*
X12606499Y7851328D01*
X12608264Y7851952D01*
X12609794Y7852672D01*
X12611088Y7853488D01*
X12612146Y7854400D01*
Y7819400D01*
D02*
G37*
G36*
X15505966Y7774360D02*
X15510349Y7771072D01*
X15515067Y7768178D01*
X15520119Y7765681D01*
X15525504Y7763578D01*
X15531224Y7761871D01*
X15537279Y7760560D01*
X15543669Y7759644D01*
X15550392Y7759123D01*
X15557449Y7758997D01*
X15503003Y7704550D01*
X15502876Y7711608D01*
X15502357Y7718332D01*
X15501440Y7724721D01*
X15500130Y7730776D01*
X15498422Y7736496D01*
X15496320Y7741882D01*
X15493822Y7746934D01*
X15490929Y7751652D01*
X15487640Y7756035D01*
X15483955Y7760083D01*
X15501917Y7778044D01*
X15505966Y7774360D01*
D02*
G37*
G36*
X10074044Y7760083D02*
X10070360Y7756035D01*
X10067072Y7751652D01*
X10064178Y7746934D01*
X10061681Y7741882D01*
X10059578Y7736496D01*
X10057871Y7730776D01*
X10056560Y7724721D01*
X10055644Y7718332D01*
X10055123Y7711608D01*
X10054997Y7704550D01*
X10000550Y7758997D01*
X10007608Y7759123D01*
X10014332Y7759644D01*
X10020721Y7760560D01*
X10026776Y7761871D01*
X10032496Y7763578D01*
X10037882Y7765681D01*
X10042934Y7768178D01*
X10047651Y7771072D01*
X10052035Y7774360D01*
X10056083Y7778044D01*
X10074044Y7760083D01*
D02*
G37*
G36*
X12781052Y7724701D02*
X12782253Y7723746D01*
X12783700Y7722903D01*
X12785394Y7722173D01*
X12787333Y7721555D01*
X12789519Y7721049D01*
X12791951Y7720656D01*
X12794630Y7720375D01*
X12800726Y7720150D01*
X12796583Y7694750D01*
X12793384Y7694713D01*
X12785211Y7694166D01*
X12782960Y7693838D01*
X12779172Y7692963D01*
X12777633Y7692416D01*
X12776332Y7691796D01*
X12775268Y7691104D01*
X12780098Y7725769D01*
X12781052Y7724701D01*
D02*
G37*
G36*
X15008385Y7668040D02*
X15003719Y7673114D01*
X14998955Y7677655D01*
X14994092Y7681662D01*
X14989130Y7685134D01*
X14984068Y7688072D01*
X14978909Y7690476D01*
X14973651Y7692346D01*
X14968294Y7693682D01*
X14962839Y7694483D01*
X14957285Y7694750D01*
X14958925Y7720150D01*
X14964290Y7720397D01*
X14969670Y7721139D01*
X14975064Y7722376D01*
X14980472Y7724108D01*
X14985893Y7726334D01*
X14991330Y7729056D01*
X14996780Y7732272D01*
X15002245Y7735982D01*
X15007722Y7740188D01*
X15013216Y7744888D01*
X15008385Y7668040D01*
D02*
G37*
G36*
X10552357Y7737598D02*
X10557480Y7733212D01*
X10562646Y7729342D01*
X10567854Y7725988D01*
X10573106Y7723150D01*
X10578401Y7720828D01*
X10583740Y7719022D01*
X10589121Y7717732D01*
X10594546Y7716958D01*
X10600014Y7716700D01*
Y7691300D01*
X10594546Y7691042D01*
X10589121Y7690268D01*
X10583740Y7688978D01*
X10578401Y7687172D01*
X10573106Y7684850D01*
X10567854Y7682012D01*
X10562646Y7678658D01*
X10557480Y7674788D01*
X10552357Y7670402D01*
X10547278Y7665500D01*
Y7742500D01*
X10552357Y7737598D01*
D02*
G37*
G36*
X11318812Y7730692D02*
X11323046Y7725971D01*
X11327458Y7721806D01*
X11332049Y7718196D01*
X11336818Y7715142D01*
X11341766Y7712643D01*
X11346892Y7710699D01*
X11352196Y7709311D01*
X11357679Y7708478D01*
X11363339Y7708200D01*
X11359250Y7682800D01*
X11354071Y7682571D01*
X11348789Y7681884D01*
X11343405Y7680739D01*
X11337919Y7679135D01*
X11332331Y7677073D01*
X11326640Y7674553D01*
X11320848Y7671575D01*
X11314953Y7668139D01*
X11302856Y7659892D01*
X11314756Y7735968D01*
X11318812Y7730692D01*
D02*
G37*
G36*
X16319450Y7649003D02*
X16312392Y7648877D01*
X16305669Y7648357D01*
X16299278Y7647440D01*
X16293224Y7646129D01*
X16287505Y7644422D01*
X16282118Y7642319D01*
X16277066Y7639822D01*
X16272350Y7636929D01*
X16267966Y7633640D01*
X16263918Y7629956D01*
X16245956Y7647917D01*
X16249640Y7651966D01*
X16252930Y7656349D01*
X16255823Y7661066D01*
X16258321Y7666118D01*
X16260422Y7671504D01*
X16262129Y7677224D01*
X16263440Y7683279D01*
X16264357Y7689669D01*
X16264877Y7696392D01*
X16265002Y7703450D01*
X16319450Y7649003D01*
D02*
G37*
G36*
X10309123Y7696392D02*
X10309644Y7689669D01*
X10310560Y7683279D01*
X10311871Y7677224D01*
X10313578Y7671504D01*
X10315681Y7666118D01*
X10318178Y7661066D01*
X10321072Y7656349D01*
X10324360Y7651966D01*
X10328044Y7647917D01*
X10310083Y7629956D01*
X10306035Y7633640D01*
X10301651Y7636929D01*
X10296934Y7639822D01*
X10291882Y7642319D01*
X10286496Y7644422D01*
X10280776Y7646129D01*
X10274721Y7647440D01*
X10268332Y7648357D01*
X10261608Y7648877D01*
X10254550Y7649003D01*
X10308997Y7703450D01*
X10309123Y7696392D01*
D02*
G37*
G36*
X10778912Y7552788D02*
X10780206Y7551972D01*
X10781736Y7551252D01*
X10783501Y7550628D01*
X10785501Y7550100D01*
X10787737Y7549668D01*
X10790208Y7549332D01*
X10795856Y7548948D01*
X10799034Y7548900D01*
Y7523500D01*
X10795856Y7523452D01*
X10790208Y7523068D01*
X10787737Y7522732D01*
X10785501Y7522300D01*
X10783501Y7521772D01*
X10781736Y7521148D01*
X10780206Y7520428D01*
X10778912Y7519612D01*
X10777854Y7518700D01*
Y7553700D01*
X10778912Y7552788D01*
D02*
G37*
G36*
X11039672Y7551889D02*
X11040943Y7551020D01*
X11042451Y7550254D01*
X11044197Y7549590D01*
X11046181Y7549028D01*
X11048404Y7548568D01*
X11050864Y7548210D01*
X11056498Y7547801D01*
X11059672Y7547750D01*
X11058313Y7522350D01*
X11055131Y7522306D01*
X11046989Y7521637D01*
X11044743Y7521237D01*
X11042732Y7520747D01*
X11040955Y7520168D01*
X11039413Y7519500D01*
X11038104Y7518743D01*
X11037030Y7517897D01*
X11038640Y7552860D01*
X11039672Y7551889D01*
D02*
G37*
G36*
X13111360Y7517240D02*
X13110329Y7518211D01*
X13109058Y7519079D01*
X13107549Y7519846D01*
X13105803Y7520510D01*
X13103819Y7521072D01*
X13101596Y7521532D01*
X13099136Y7521890D01*
X13093501Y7522299D01*
X13090327Y7522350D01*
X13091687Y7547750D01*
X13094868Y7547794D01*
X13103011Y7548462D01*
X13105257Y7548863D01*
X13107268Y7549353D01*
X13109045Y7549932D01*
X13110587Y7550600D01*
X13111896Y7551357D01*
X13112970Y7552203D01*
X13111360Y7517240D01*
D02*
G37*
G36*
X13752145Y7516400D02*
X13751088Y7517312D01*
X13749794Y7518128D01*
X13748264Y7518848D01*
X13746500Y7519472D01*
X13744499Y7520000D01*
X13742262Y7520432D01*
X13739792Y7520768D01*
X13734143Y7521152D01*
X13730966Y7521200D01*
Y7546600D01*
X13734143Y7546648D01*
X13739792Y7547032D01*
X13742262Y7547368D01*
X13744499Y7547800D01*
X13746500Y7548328D01*
X13748264Y7548952D01*
X13749794Y7549672D01*
X13751088Y7550488D01*
X13752145Y7551400D01*
Y7516400D01*
D02*
G37*
G36*
X16052145Y7502500D02*
X16051088Y7503412D01*
X16049794Y7504228D01*
X16048264Y7504948D01*
X16046500Y7505572D01*
X16044499Y7506100D01*
X16042262Y7506532D01*
X16039792Y7506868D01*
X16034145Y7507252D01*
X16030966Y7507300D01*
Y7532700D01*
X16034145Y7532748D01*
X16039792Y7533132D01*
X16042262Y7533468D01*
X16044499Y7533900D01*
X16046500Y7534428D01*
X16048264Y7535052D01*
X16049794Y7535772D01*
X16051088Y7536588D01*
X16052145Y7537500D01*
Y7502500D01*
D02*
G37*
G36*
X15792146D02*
X15791087Y7503412D01*
X15789793Y7504228D01*
X15788264Y7504948D01*
X15786499Y7505572D01*
X15784499Y7506100D01*
X15782263Y7506532D01*
X15779791Y7506868D01*
X15774142Y7507252D01*
X15770966Y7507300D01*
Y7532700D01*
X15774142Y7532748D01*
X15779791Y7533132D01*
X15782263Y7533468D01*
X15784499Y7533900D01*
X15786499Y7534428D01*
X15788264Y7535052D01*
X15789793Y7535772D01*
X15791087Y7536588D01*
X15792146Y7537500D01*
Y7502500D01*
D02*
G37*
G36*
X15282146Y7472500D02*
X15281088Y7473412D01*
X15279794Y7474228D01*
X15278264Y7474948D01*
X15276498Y7475572D01*
X15274500Y7476100D01*
X15272263Y7476532D01*
X15269792Y7476868D01*
X15264143Y7477252D01*
X15260966Y7477300D01*
Y7502700D01*
X15264143Y7502748D01*
X15269792Y7503132D01*
X15272263Y7503468D01*
X15274500Y7503900D01*
X15276498Y7504428D01*
X15278264Y7505052D01*
X15279794Y7505772D01*
X15281088Y7506588D01*
X15282146Y7507500D01*
Y7472500D01*
D02*
G37*
G36*
X13666127Y7488402D02*
X13666904Y7487373D01*
X13667982Y7486465D01*
X13669363Y7485679D01*
X13671046Y7485013D01*
X13673033Y7484468D01*
X13675320Y7484045D01*
X13677910Y7483742D01*
X13680801Y7483561D01*
X13683997Y7483500D01*
X13680765Y7458100D01*
X13649837Y7459531D01*
X13665652Y7489552D01*
X13666127Y7488402D01*
D02*
G37*
G36*
X11286412Y7421988D02*
X11287706Y7421172D01*
X11289236Y7420452D01*
X11291001Y7419828D01*
X11293001Y7419300D01*
X11295237Y7418868D01*
X11297708Y7418532D01*
X11303356Y7418148D01*
X11306534Y7418100D01*
Y7392700D01*
X11303356Y7392652D01*
X11297708Y7392268D01*
X11295237Y7391932D01*
X11293001Y7391500D01*
X11291001Y7390972D01*
X11289236Y7390348D01*
X11287706Y7389628D01*
X11286412Y7388812D01*
X11285354Y7387900D01*
Y7422900D01*
X11286412Y7421988D01*
D02*
G37*
G36*
X13068912Y7416588D02*
X13070206Y7415772D01*
X13071736Y7415052D01*
X13073502Y7414428D01*
X13075500Y7413900D01*
X13077737Y7413468D01*
X13080208Y7413132D01*
X13085857Y7412748D01*
X13089034Y7412700D01*
Y7387300D01*
X13085857Y7387252D01*
X13080208Y7386868D01*
X13077737Y7386532D01*
X13075500Y7386100D01*
X13073502Y7385572D01*
X13071736Y7384948D01*
X13070206Y7384228D01*
X13068912Y7383412D01*
X13067854Y7382500D01*
Y7417500D01*
X13068912Y7416588D01*
D02*
G37*
G36*
X15539645Y7370000D02*
X15538588Y7370912D01*
X15537294Y7371728D01*
X15535764Y7372448D01*
X15534000Y7373072D01*
X15531999Y7373600D01*
X15529762Y7374032D01*
X15527292Y7374368D01*
X15521645Y7374752D01*
X15518466Y7374800D01*
Y7400200D01*
X15521645Y7400248D01*
X15527292Y7400632D01*
X15529762Y7400968D01*
X15531999Y7401400D01*
X15534000Y7401928D01*
X15535764Y7402552D01*
X15537294Y7403272D01*
X15538588Y7404088D01*
X15539645Y7405000D01*
Y7370000D01*
D02*
G37*
G36*
X15319089Y7218588D02*
X15318272Y7217294D01*
X15317552Y7215764D01*
X15316928Y7213999D01*
X15316400Y7211999D01*
X15315968Y7209763D01*
X15315633Y7207292D01*
X15315248Y7201644D01*
X15315199Y7198466D01*
X15289799D01*
X15289752Y7201644D01*
X15289368Y7207292D01*
X15289032Y7209763D01*
X15288600Y7211999D01*
X15288072Y7213999D01*
X15287448Y7215764D01*
X15286728Y7217294D01*
X15285912Y7218588D01*
X15285001Y7219646D01*
X15320000D01*
X15319089Y7218588D01*
D02*
G37*
G36*
X13451588Y7188588D02*
X13450772Y7187294D01*
X13450052Y7185764D01*
X13449428Y7183999D01*
X13448900Y7181999D01*
X13448468Y7179763D01*
X13448132Y7177292D01*
X13447748Y7171644D01*
X13447701Y7168466D01*
X13422301D01*
X13422252Y7171644D01*
X13421867Y7177292D01*
X13421532Y7179763D01*
X13421100Y7181999D01*
X13420572Y7183999D01*
X13419948Y7185764D01*
X13419228Y7187294D01*
X13418411Y7188588D01*
X13417500Y7189646D01*
X13452499D01*
X13451588Y7188588D01*
D02*
G37*
G36*
X13277588Y7134188D02*
X13276772Y7132894D01*
X13276051Y7131364D01*
X13275427Y7129599D01*
X13274899Y7127599D01*
X13274467Y7125363D01*
X13274132Y7122892D01*
X13273747Y7117244D01*
X13273700Y7114066D01*
X13248300D01*
X13248251Y7117244D01*
X13247868Y7122892D01*
X13247533Y7125363D01*
X13247099Y7127599D01*
X13246571Y7129599D01*
X13245947Y7131364D01*
X13245229Y7132894D01*
X13244412Y7134188D01*
X13243500Y7135246D01*
X13278500D01*
X13277588Y7134188D01*
D02*
G37*
G36*
X14629646Y6707500D02*
X14628587Y6708412D01*
X14627293Y6709228D01*
X14625764Y6709948D01*
X14623999Y6710572D01*
X14621999Y6711100D01*
X14619763Y6711532D01*
X14617291Y6711868D01*
X14611644Y6712252D01*
X14608466Y6712300D01*
Y6737700D01*
X14611644Y6737748D01*
X14617291Y6738132D01*
X14619763Y6738468D01*
X14621999Y6738900D01*
X14623999Y6739428D01*
X14625764Y6740052D01*
X14627293Y6740772D01*
X14628587Y6741588D01*
X14629646Y6742500D01*
Y6707500D01*
D02*
G37*
G36*
X13547931Y7392532D02*
X13560535Y7384111D01*
X13575400Y7381154D01*
X13870000D01*
X13884866Y7384111D01*
X13897469Y7392532D01*
X13932890Y7427953D01*
X14677110D01*
X14763332Y7341732D01*
X14775934Y7333311D01*
X14790800Y7330354D01*
X15304820D01*
X15322350Y7300353D01*
X15315817Y7288763D01*
X15312524Y7287900D01*
X15292474D01*
X15273952Y7280227D01*
X15259773Y7266049D01*
X15252100Y7247525D01*
Y7227475D01*
X15259773Y7208951D01*
X15263515Y7205209D01*
X15263589Y7204667D01*
X15263654Y7203720D01*
Y6898591D01*
X15109709Y6744646D01*
X14812500D01*
X14797633Y6741689D01*
X14785031Y6733268D01*
X14733813Y6682051D01*
X14713557Y6686030D01*
X14697900Y6714975D01*
Y6735025D01*
X14690227Y6753549D01*
X14676048Y6767727D01*
X14657526Y6775400D01*
X14637476D01*
X14618951Y6767727D01*
X14615208Y6763985D01*
X14614667Y6763911D01*
X14613721Y6763847D01*
X13473846D01*
Y7173720D01*
X13473911Y7174666D01*
X13473985Y7175208D01*
X13477727Y7178951D01*
X13485400Y7197475D01*
Y7217525D01*
X13477727Y7236049D01*
X13463548Y7250227D01*
X13445026Y7257900D01*
X13424976D01*
X13415701Y7254059D01*
X13414178Y7253978D01*
X13385696Y7265652D01*
X13384494Y7266546D01*
X13382498Y7268700D01*
X13374969Y7279969D01*
X13302469Y7352469D01*
X13289867Y7360890D01*
X13277547Y7363340D01*
X13272820Y7370825D01*
X13265625Y7393847D01*
X13328333Y7456554D01*
X13483910D01*
X13547931Y7392532D01*
D02*
G37*
G36*
X13174750Y6675001D02*
X13173357Y6674898D01*
X13171864Y6674560D01*
X13170274Y6673987D01*
X13168585Y6673180D01*
X13166797Y6672139D01*
X13164909Y6670864D01*
X13162926Y6669354D01*
X13158659Y6665632D01*
X13156380Y6663419D01*
X13138419Y6681379D01*
X13140633Y6683660D01*
X13144354Y6687926D01*
X13145863Y6689910D01*
X13147139Y6691797D01*
X13148180Y6693585D01*
X13148987Y6695274D01*
X13149561Y6696864D01*
X13149898Y6698357D01*
X13150002Y6699750D01*
X13174750Y6675001D01*
D02*
G37*
G36*
X15268912Y6666588D02*
X15270206Y6665772D01*
X15271736Y6665052D01*
X15273502Y6664428D01*
X15275500Y6663900D01*
X15277737Y6663468D01*
X15280208Y6663132D01*
X15285857Y6662748D01*
X15289034Y6662700D01*
Y6637300D01*
X15285857Y6637252D01*
X15280208Y6636868D01*
X15277737Y6636532D01*
X15275500Y6636100D01*
X15273502Y6635572D01*
X15271736Y6634948D01*
X15270206Y6634228D01*
X15268912Y6633412D01*
X15267854Y6632500D01*
Y6667500D01*
X15268912Y6666588D01*
D02*
G37*
G36*
X13791412Y6653488D02*
X13792706Y6652672D01*
X13794237Y6651952D01*
X13796001Y6651328D01*
X13798001Y6650800D01*
X13800237Y6650368D01*
X13802708Y6650032D01*
X13808356Y6649648D01*
X13811534Y6649600D01*
Y6624200D01*
X13808356Y6624152D01*
X13802708Y6623768D01*
X13800237Y6623432D01*
X13798001Y6623000D01*
X13796001Y6622472D01*
X13794237Y6621848D01*
X13792706Y6621128D01*
X13791412Y6620312D01*
X13790353Y6619400D01*
Y6654400D01*
X13791412Y6653488D01*
D02*
G37*
G36*
X13502145Y6587500D02*
X13501088Y6588412D01*
X13499794Y6589228D01*
X13498264Y6589948D01*
X13496500Y6590572D01*
X13494499Y6591100D01*
X13492262Y6591532D01*
X13489792Y6591868D01*
X13484143Y6592252D01*
X13480966Y6592300D01*
Y6617700D01*
X13484143Y6617748D01*
X13489792Y6618132D01*
X13492262Y6618468D01*
X13494499Y6618900D01*
X13496500Y6619428D01*
X13498264Y6620052D01*
X13499794Y6620772D01*
X13501088Y6621588D01*
X13502145Y6622500D01*
Y6587500D01*
D02*
G37*
G36*
X11286412Y6593488D02*
X11287706Y6592672D01*
X11289236Y6591952D01*
X11291001Y6591328D01*
X11293001Y6590800D01*
X11295237Y6590368D01*
X11297708Y6590032D01*
X11303356Y6589648D01*
X11306534Y6589600D01*
Y6564200D01*
X11303356Y6564152D01*
X11297708Y6563768D01*
X11295237Y6563432D01*
X11293001Y6563000D01*
X11291001Y6562472D01*
X11289236Y6561848D01*
X11287706Y6561128D01*
X11286412Y6560312D01*
X11285354Y6559400D01*
Y6594400D01*
X11286412Y6593488D01*
D02*
G37*
G36*
X13667752Y6592810D02*
X13669063Y6592079D01*
X13670609Y6591435D01*
X13672389Y6590876D01*
X13674403Y6590403D01*
X13676651Y6590017D01*
X13681850Y6589501D01*
X13684801Y6589372D01*
X13687987Y6589329D01*
X13689915Y6563929D01*
X13686742Y6563877D01*
X13681114Y6563459D01*
X13678659Y6563093D01*
X13676443Y6562622D01*
X13674467Y6562047D01*
X13672729Y6561367D01*
X13671233Y6560583D01*
X13669975Y6559694D01*
X13668956Y6558701D01*
X13666675Y6593626D01*
X13667752Y6592810D01*
D02*
G37*
G36*
X14878912Y6591588D02*
X14880206Y6590772D01*
X14881737Y6590052D01*
X14883501Y6589428D01*
X14885501Y6588900D01*
X14887737Y6588468D01*
X14890208Y6588132D01*
X14895856Y6587748D01*
X14899034Y6587700D01*
Y6562300D01*
X14895856Y6562252D01*
X14890208Y6561868D01*
X14887737Y6561532D01*
X14885501Y6561100D01*
X14883501Y6560572D01*
X14881737Y6559948D01*
X14880206Y6559228D01*
X14878912Y6558412D01*
X14877853Y6557500D01*
Y6592500D01*
X14878912Y6591588D01*
D02*
G37*
G36*
X9401988Y6551088D02*
X9401172Y6549794D01*
X9400452Y6548264D01*
X9399828Y6546499D01*
X9399300Y6544499D01*
X9398868Y6542263D01*
X9398532Y6539792D01*
X9398148Y6534144D01*
X9398100Y6530966D01*
X9372700D01*
X9372652Y6534144D01*
X9372268Y6539792D01*
X9371932Y6542263D01*
X9371500Y6544499D01*
X9370972Y6546499D01*
X9370348Y6548264D01*
X9369628Y6549794D01*
X9368812Y6551088D01*
X9367900Y6552146D01*
X9402900D01*
X9401988Y6551088D01*
D02*
G37*
G36*
X12651246Y6527303D02*
X12652434Y6526337D01*
X12653870Y6525485D01*
X12655554Y6524746D01*
X12657485Y6524121D01*
X12659665Y6523609D01*
X12662093Y6523211D01*
X12664768Y6522927D01*
X12670862Y6522700D01*
X12666281Y6497300D01*
X12663079Y6497265D01*
X12654902Y6496738D01*
X12652653Y6496422D01*
X12648871Y6495580D01*
X12647338Y6495053D01*
X12646043Y6494457D01*
X12644986Y6493790D01*
X12650306Y6528383D01*
X12651246Y6527303D01*
D02*
G37*
G36*
X12615014Y6493790D02*
X12613957Y6494457D01*
X12612662Y6495053D01*
X12611129Y6495580D01*
X12609357Y6496036D01*
X12607346Y6496422D01*
X12602611Y6496984D01*
X12599885Y6497159D01*
X12593719Y6497300D01*
X12589138Y6522700D01*
X12592309Y6522757D01*
X12597907Y6523211D01*
X12600335Y6523609D01*
X12602514Y6524121D01*
X12604446Y6524746D01*
X12606130Y6525485D01*
X12607566Y6526337D01*
X12608754Y6527303D01*
X12609694Y6528383D01*
X12615014Y6493790D01*
D02*
G37*
G36*
X15292146Y6492500D02*
X15291087Y6493412D01*
X15289793Y6494228D01*
X15288264Y6494948D01*
X15286499Y6495572D01*
X15284499Y6496100D01*
X15282263Y6496532D01*
X15279791Y6496868D01*
X15274144Y6497252D01*
X15270966Y6497300D01*
Y6522700D01*
X15274144Y6522748D01*
X15279791Y6523132D01*
X15282263Y6523468D01*
X15284499Y6523900D01*
X15286499Y6524428D01*
X15288264Y6525052D01*
X15289793Y6525772D01*
X15291087Y6526588D01*
X15292146Y6527500D01*
Y6492500D01*
D02*
G37*
G36*
X12518912Y6463488D02*
X12520206Y6462672D01*
X12521736Y6461952D01*
X12523501Y6461328D01*
X12525501Y6460800D01*
X12527737Y6460368D01*
X12530208Y6460032D01*
X12535856Y6459648D01*
X12539034Y6459600D01*
Y6434200D01*
X12535856Y6434152D01*
X12530208Y6433768D01*
X12527737Y6433432D01*
X12525501Y6433000D01*
X12523501Y6432472D01*
X12521736Y6431848D01*
X12520206Y6431128D01*
X12518912Y6430312D01*
X12517854Y6429400D01*
Y6464400D01*
X12518912Y6463488D01*
D02*
G37*
G36*
X14783659Y6434368D02*
X14787926Y6430646D01*
X14789909Y6429136D01*
X14791797Y6427861D01*
X14793585Y6426820D01*
X14795274Y6426013D01*
X14796864Y6425440D01*
X14798357Y6425102D01*
X14799750Y6424999D01*
X14775002Y6400250D01*
X14774898Y6401643D01*
X14774561Y6403136D01*
X14773987Y6404726D01*
X14773181Y6406415D01*
X14772139Y6408203D01*
X14770863Y6410090D01*
X14769354Y6412074D01*
X14765633Y6416340D01*
X14763419Y6418621D01*
X14781380Y6436581D01*
X14783659Y6434368D01*
D02*
G37*
G36*
X15792146Y6342500D02*
X15791087Y6343412D01*
X15789793Y6344228D01*
X15788264Y6344948D01*
X15786499Y6345572D01*
X15784499Y6346100D01*
X15782263Y6346532D01*
X15779791Y6346868D01*
X15774142Y6347252D01*
X15770966Y6347300D01*
Y6372700D01*
X15774142Y6372748D01*
X15779791Y6373132D01*
X15782263Y6373468D01*
X15784499Y6373900D01*
X15786499Y6374428D01*
X15788264Y6375052D01*
X15789793Y6375772D01*
X15791087Y6376588D01*
X15792146Y6377500D01*
Y6342500D01*
D02*
G37*
G36*
X12345643Y6307235D02*
X12346901Y6306346D01*
X12348398Y6305562D01*
X12350135Y6304882D01*
X12352111Y6304307D01*
X12354327Y6303837D01*
X12356782Y6303471D01*
X12362410Y6303052D01*
X12365583Y6303000D01*
X12363651Y6277600D01*
X12360466Y6277557D01*
X12352316Y6276913D01*
X12350068Y6276526D01*
X12348054Y6276053D01*
X12346274Y6275495D01*
X12344729Y6274850D01*
X12343417Y6274120D01*
X12342340Y6273303D01*
X12344624Y6308229D01*
X12345643Y6307235D01*
D02*
G37*
G36*
X12308993Y6273303D02*
X12307916Y6274120D01*
X12306605Y6274850D01*
X12305059Y6275495D01*
X12303280Y6276053D01*
X12301266Y6276526D01*
X12299018Y6276913D01*
X12293818Y6277428D01*
X12290867Y6277557D01*
X12287683Y6277600D01*
X12285751Y6303000D01*
X12288924Y6303052D01*
X12294551Y6303471D01*
X12297006Y6303837D01*
X12299222Y6304307D01*
X12301198Y6304882D01*
X12302935Y6305562D01*
X12304432Y6306346D01*
X12305690Y6307235D01*
X12306709Y6308229D01*
X12308993Y6273303D01*
D02*
G37*
G36*
X12978612Y6216036D02*
X12977551Y6216948D01*
X12976257Y6217764D01*
X12974728Y6218484D01*
X12972963Y6219108D01*
X12970963Y6219636D01*
X12968727Y6220068D01*
X12966257Y6220404D01*
X12960608Y6220788D01*
X12957430Y6220836D01*
Y6246236D01*
X12960608Y6246284D01*
X12966257Y6246668D01*
X12968727Y6247004D01*
X12970963Y6247436D01*
X12972963Y6247964D01*
X12974728Y6248588D01*
X12976257Y6249308D01*
X12977551Y6250124D01*
X12978612Y6251036D01*
Y6216036D01*
D02*
G37*
G36*
X13017564Y6247264D02*
X13018762Y6246306D01*
X13020206Y6245461D01*
X13021898Y6244728D01*
X13023836Y6244109D01*
X13026019Y6243601D01*
X13028452Y6243207D01*
X13031128Y6242925D01*
X13037224Y6242700D01*
X13032974Y6217300D01*
X13029774Y6217264D01*
X13021600Y6216722D01*
X13019351Y6216397D01*
X13015562Y6215529D01*
X13014026Y6214987D01*
X13012726Y6214373D01*
X13011662Y6213687D01*
X13016612Y6248335D01*
X13017564Y6247264D01*
D02*
G37*
G36*
X16267966Y6250360D02*
X16272350Y6247072D01*
X16277066Y6244178D01*
X16282118Y6241681D01*
X16287505Y6239578D01*
X16293224Y6237871D01*
X16299278Y6236560D01*
X16305669Y6235644D01*
X16312392Y6235123D01*
X16319450Y6234997D01*
X16265002Y6180550D01*
X16264877Y6187608D01*
X16264357Y6194332D01*
X16263440Y6200721D01*
X16262129Y6206776D01*
X16260422Y6212496D01*
X16258321Y6217882D01*
X16255823Y6222934D01*
X16252930Y6227652D01*
X16249640Y6232035D01*
X16245956Y6236083D01*
X16263918Y6254044D01*
X16267966Y6250360D01*
D02*
G37*
G36*
X16013966D02*
X16018349Y6247072D01*
X16023067Y6244178D01*
X16028117Y6241681D01*
X16033504Y6239578D01*
X16039224Y6237871D01*
X16045279Y6236560D01*
X16051669Y6235644D01*
X16058392Y6235123D01*
X16065450Y6234997D01*
X16011003Y6180550D01*
X16010876Y6187608D01*
X16010358Y6194332D01*
X16009441Y6200721D01*
X16008128Y6206776D01*
X16006422Y6212496D01*
X16004320Y6217882D01*
X16001822Y6222934D01*
X15998929Y6227652D01*
X15995641Y6232035D01*
X15991956Y6236083D01*
X16009917Y6254044D01*
X16013966Y6250360D01*
D02*
G37*
G36*
X11090044Y6236083D02*
X11086360Y6232035D01*
X11083072Y6227652D01*
X11080178Y6222934D01*
X11077681Y6217882D01*
X11075578Y6212496D01*
X11073871Y6206776D01*
X11072560Y6200721D01*
X11071644Y6194332D01*
X11071123Y6187608D01*
X11070997Y6180550D01*
X11016550Y6234997D01*
X11023608Y6235123D01*
X11030332Y6235644D01*
X11036721Y6236560D01*
X11042776Y6237871D01*
X11048496Y6239578D01*
X11053882Y6241681D01*
X11058934Y6244178D01*
X11063651Y6247072D01*
X11068035Y6250360D01*
X11072083Y6254044D01*
X11090044Y6236083D01*
D02*
G37*
G36*
X10836044D02*
X10832360Y6232035D01*
X10829072Y6227652D01*
X10826178Y6222934D01*
X10823681Y6217882D01*
X10821578Y6212496D01*
X10819871Y6206776D01*
X10818560Y6200721D01*
X10817644Y6194332D01*
X10817123Y6187608D01*
X10816997Y6180550D01*
X10762550Y6234997D01*
X10769608Y6235123D01*
X10776332Y6235644D01*
X10782721Y6236560D01*
X10788776Y6237871D01*
X10794496Y6239578D01*
X10799882Y6241681D01*
X10804934Y6244178D01*
X10809651Y6247072D01*
X10814035Y6250360D01*
X10818083Y6254044D01*
X10836044Y6236083D01*
D02*
G37*
G36*
X10582044D02*
X10578360Y6232035D01*
X10575072Y6227652D01*
X10572178Y6222934D01*
X10569681Y6217882D01*
X10567578Y6212496D01*
X10565871Y6206776D01*
X10564560Y6200721D01*
X10563644Y6194332D01*
X10563123Y6187608D01*
X10562997Y6180550D01*
X10508550Y6234997D01*
X10515608Y6235123D01*
X10522332Y6235644D01*
X10528721Y6236560D01*
X10534776Y6237871D01*
X10540496Y6239578D01*
X10545882Y6241681D01*
X10550934Y6244178D01*
X10555651Y6247072D01*
X10560035Y6250360D01*
X10564083Y6254044D01*
X10582044Y6236083D01*
D02*
G37*
G36*
X10328044D02*
X10324360Y6232035D01*
X10321072Y6227652D01*
X10318178Y6222934D01*
X10315681Y6217882D01*
X10313578Y6212496D01*
X10311871Y6206776D01*
X10310560Y6200721D01*
X10309644Y6194332D01*
X10309123Y6187608D01*
X10308997Y6180550D01*
X10254550Y6234997D01*
X10261608Y6235123D01*
X10268332Y6235644D01*
X10274721Y6236560D01*
X10280776Y6237871D01*
X10286496Y6239578D01*
X10291882Y6241681D01*
X10296934Y6244178D01*
X10301651Y6247072D01*
X10306035Y6250360D01*
X10310083Y6254044D01*
X10328044Y6236083D01*
D02*
G37*
G36*
X13568912Y6171588D02*
X13570206Y6170772D01*
X13571736Y6170052D01*
X13573502Y6169428D01*
X13575500Y6168900D01*
X13577737Y6168468D01*
X13580208Y6168132D01*
X13585857Y6167748D01*
X13589034Y6167700D01*
Y6142300D01*
X13585857Y6142252D01*
X13580208Y6141868D01*
X13577737Y6141532D01*
X13575500Y6141100D01*
X13573502Y6140572D01*
X13571736Y6139948D01*
X13570206Y6139228D01*
X13568912Y6138412D01*
X13567854Y6137500D01*
Y6172500D01*
X13568912Y6171588D01*
D02*
G37*
G36*
X13532146Y6137500D02*
X13531088Y6138412D01*
X13529794Y6139228D01*
X13528264Y6139948D01*
X13526498Y6140572D01*
X13524500Y6141100D01*
X13522263Y6141532D01*
X13519792Y6141868D01*
X13514143Y6142252D01*
X13510966Y6142300D01*
Y6167700D01*
X13514143Y6167748D01*
X13519792Y6168132D01*
X13522263Y6168468D01*
X13524500Y6168900D01*
X13526498Y6169428D01*
X13528264Y6170052D01*
X13529794Y6170772D01*
X13531088Y6171588D01*
X13532146Y6172500D01*
Y6137500D01*
D02*
G37*
G36*
X15049451Y6125003D02*
X15042392Y6124877D01*
X15035669Y6124357D01*
X15029279Y6123440D01*
X15023224Y6122129D01*
X15017503Y6120422D01*
X15012119Y6118319D01*
X15007066Y6115822D01*
X15002348Y6112929D01*
X14997966Y6109640D01*
X14993916Y6105956D01*
X14975957Y6123917D01*
X14979640Y6127966D01*
X14982928Y6132349D01*
X14985822Y6137066D01*
X14988319Y6142118D01*
X14990422Y6147504D01*
X14992130Y6153224D01*
X14993440Y6159279D01*
X14994357Y6165669D01*
X14994878Y6172392D01*
X14995003Y6179450D01*
X15049451Y6125003D01*
D02*
G37*
G36*
X10055123Y6172392D02*
X10055644Y6165669D01*
X10056560Y6159279D01*
X10057871Y6153224D01*
X10059578Y6147504D01*
X10061681Y6142118D01*
X10064178Y6137066D01*
X10067072Y6132349D01*
X10070360Y6127966D01*
X10074044Y6123917D01*
X10056083Y6105956D01*
X10052035Y6109640D01*
X10047651Y6112929D01*
X10042934Y6115822D01*
X10037882Y6118319D01*
X10032496Y6120422D01*
X10026776Y6122129D01*
X10020721Y6123440D01*
X10014332Y6124357D01*
X10007608Y6124877D01*
X10000550Y6125003D01*
X10054997Y6179450D01*
X10055123Y6172392D01*
D02*
G37*
D10*
X13660001Y7470800D02*
X13848958D01*
X13772298Y9456200D02*
X13774910Y9453587D01*
X13291200Y9456200D02*
X13772298D01*
X13731612Y9393052D02*
X13743863Y9380800D01*
X13641499Y9393100D02*
X13641548Y9393052D01*
X13731612D01*
X13082822Y9568396D02*
X14773447D01*
X10361000Y9507000D02*
X13093266D01*
X15043707Y9620293D02*
X15050000Y9614000D01*
X14752405Y9517596D02*
X14870000Y9400000D01*
X12775000Y9625000D02*
X12779707Y9620293D01*
X13103864Y9517596D02*
X14752405D01*
X13093266Y9507000D02*
X13103864Y9517596D01*
X12779707Y9620293D02*
X15043707D01*
X14773447Y9568396D02*
X14820943Y9520900D01*
X11345463Y9557800D02*
X13072226D01*
X13082822Y9568396D01*
X12666763Y9616900D02*
X12756963Y9707100D01*
X11413100Y9616900D02*
X12666763D01*
X12756963Y9707100D02*
X15464900D01*
X13651630Y6576629D02*
X13743533D01*
X13746362Y6573800D01*
X12070000Y8336900D02*
X12320000D01*
X10254000Y8090000D02*
X10564000Y8400000D01*
X13147961D01*
X12783300Y9891700D02*
X14941701D01*
X10890000Y9898100D02*
X11323100D01*
X12675000Y10000000D02*
X12783300Y9891700D01*
X11450000Y10025000D02*
X12050000D01*
X12075000Y10000000D01*
X12675000D01*
X11323100Y9898100D02*
X11450000Y10025000D01*
X12875000Y9943605D02*
X13376210D01*
X12748821Y10072221D02*
X12875000Y9946042D01*
Y9943605D02*
Y9946042D01*
X12727779Y10072221D02*
X12748821D01*
X12726600Y10073400D02*
X12727779Y10072221D01*
X12101600Y10073400D02*
X12726600D01*
X12081900Y10093100D02*
X12101600Y10073400D01*
X11028237Y10143900D02*
X12102942D01*
X11109100Y10093100D02*
X12081900D01*
X12122642Y10124200D02*
X12800800D01*
X12102942Y10143900D02*
X12122642Y10124200D01*
X12325000Y10250000D02*
X12326200Y10248800D01*
X12151095Y10194700D02*
X12170795Y10175000D01*
X10956700Y10194700D02*
X12151095D01*
X12320500Y10245500D02*
X12325000Y10250000D01*
X12170795Y10175000D02*
X13000000D01*
X10508000Y10000000D02*
X10753500Y10245500D01*
X12320500D01*
X10762000Y10000000D02*
X10956700Y10194700D01*
X12800800Y10124200D02*
X12875000Y10050000D01*
X13000000Y10175000D02*
X13250000D01*
X13000000D02*
X13013646Y10161354D01*
Y10056354D02*
Y10161354D01*
X13386900Y10038100D02*
X14858099D01*
X13250000Y10175000D02*
X13386900Y10038100D01*
X13376210Y9943605D02*
X13407605Y9975000D01*
X14941701Y9891700D02*
X15050000Y10000000D01*
X13268100Y10311900D02*
X13380000Y10200000D01*
X14854401Y10136900D02*
X14955000Y10237500D01*
X13251199Y10248800D02*
X13363100Y10136900D01*
X14854401D01*
X13380000Y10200000D02*
X14725000D01*
X12326200Y10248800D02*
X13251199D01*
X14881900Y9975000D02*
X15000000Y10093100D01*
X13550000Y9975000D02*
X14881900D01*
X10116000Y9730000D02*
X10674495D01*
X10702729Y9758234D02*
X11360966D01*
X10674495Y9730000D02*
X10702729Y9758234D01*
X10000000Y9614000D02*
X10116000Y9730000D01*
X10224237Y9898100D02*
X10890000D01*
X10122337Y10000000D02*
X10224237Y9898100D01*
X10890000D02*
Y10005664D01*
X10723771Y9707434D02*
X11322566D01*
X11413100Y9616900D01*
X11360966Y9758234D02*
X11439200Y9680000D01*
X10630337Y9614000D02*
X10723771Y9707434D01*
X15464900Y9707100D02*
X15558000Y9614000D01*
X13275000Y7325000D02*
X13347501Y7252500D01*
Y6619879D02*
Y7252500D01*
X13035764Y7325000D02*
X13275000D01*
X11267500Y7405400D02*
X12955363D01*
X13035764Y7325000D01*
X13216843Y7400000D02*
X13312242Y7495400D01*
X13050000Y7400000D02*
X13216843D01*
X17850000Y6740000D02*
Y8759703D01*
X17460001Y6350000D02*
X17850000Y6740000D01*
X17679875Y8929828D02*
X17850000Y8759703D01*
X16289999Y6350000D02*
X17460001D01*
X15989999Y6650000D02*
X16289999Y6350000D01*
X15250000Y6650000D02*
X15989999D01*
X11267500Y9300000D02*
X12935001D01*
X13320000Y9260000D02*
X13347501Y9232500D01*
Y8529879D02*
Y9232500D01*
X12975000Y9260000D02*
X13320000D01*
X12935001Y9300000D02*
X12975000Y9260000D01*
X14820943Y9520900D02*
X16226900D01*
X13112749Y9443900D02*
X13123343Y9454496D01*
X11020000Y9443900D02*
X13112749D01*
X12026532Y9391396D02*
X13226396D01*
X13291200Y9456200D01*
X10254000Y9614000D02*
X10361000Y9507000D01*
X13123343Y9454496D02*
X13130000D01*
X12015936Y9380800D02*
X12026532Y9391396D01*
X10890000Y9440000D02*
X10949200Y9380800D01*
X13068864Y9328296D02*
X13070567Y9330000D01*
X13870000D01*
X10949200Y9380800D02*
X12015936D01*
X13464999Y8575000D02*
X13975000D01*
X13435001Y8605000D02*
Y9117500D01*
Y8605000D02*
X13464999Y8575000D01*
X14731900Y8446900D02*
X14850000Y8565000D01*
X13752946Y8446900D02*
X14731900D01*
X13821899Y8511900D02*
X14708600D01*
X13820000Y8510000D02*
X13821899Y8511900D01*
X13739847Y8460000D02*
X13752946Y8446900D01*
X13639999Y8460000D02*
X13739847D01*
X13155896Y8392065D02*
X15275407D01*
X13147961Y8400000D02*
X13155896Y8392065D01*
X15275407D02*
X15303345Y8420000D01*
X13397379Y8480000D02*
X13520000D01*
X13347501Y8529879D02*
X13397379Y8480000D01*
X11233125Y8563125D02*
X12196672D01*
X12209797Y8550000D01*
X13180000D01*
X11267500Y8490000D02*
X11270600Y8486900D01*
X13246899D01*
X13264999Y8505000D01*
X11140800Y8470800D02*
X11233125Y8563125D01*
X10753500Y8335500D02*
X11892931D01*
X11109100Y8183100D02*
X11820000D01*
X15374831Y8270000D02*
X15383241Y8261588D01*
X11871889Y8284700D02*
X12019390Y8137200D01*
X11892931Y8335500D02*
X12028132Y8200300D01*
X14858099Y8128100D02*
X15000000Y8270000D01*
X10956700Y8284700D02*
X11871889D01*
X11028237Y8233900D02*
X11850848D01*
X14840100Y8212600D02*
X14955000Y8327500D01*
X15532822D01*
X15555321Y8350000D01*
X11820000Y8183100D02*
X11967500Y8035600D01*
X15555321Y8350000D02*
X15560001D01*
X11850848Y8233900D02*
X11998348Y8086400D01*
X15000000Y8270000D02*
X15374831D01*
X10922900Y8128563D02*
X11028237Y8233900D01*
X11016000Y8090000D02*
X11109100Y8183100D01*
X10762000Y8090000D02*
X10956700Y8284700D01*
X10508000Y8090000D02*
X10753500Y8335500D01*
X10000000Y10000000D02*
X10122337D01*
X11439200Y9680000D02*
X12630000D01*
X11289263Y9614000D02*
X11345463Y9557800D01*
X11270000Y9614000D02*
X11289263D01*
X10584000Y6510000D02*
X12626200D01*
X12630000Y6513800D01*
X11267500Y6576900D02*
X13211900D01*
X13261000Y6626000D01*
X12630000Y6510000D02*
X15310001D01*
X11150800Y6560800D02*
X11230000Y6640000D01*
X13114999D01*
X13407605Y9975000D02*
X13550000D01*
X11849614Y10438100D02*
X13193983D01*
X11276200Y10375000D02*
X13220120D01*
X11275000Y10376200D02*
X11276200Y10375000D01*
X12635000Y10311900D02*
X13268100D01*
X13220120Y10375000D02*
X13260001Y10414879D01*
X11837714Y10450000D02*
X11849614Y10438100D01*
X13260001Y10414879D02*
Y10691671D01*
X10500000Y10450000D02*
X11837714D01*
X9440000Y6310000D02*
X10312158D01*
X9385400Y6364600D02*
Y6570000D01*
Y6364600D02*
X9440000Y6310000D01*
X10883800Y7536200D02*
X10946900Y7473100D01*
X10760000Y7536200D02*
X10883800D01*
X10946900Y7473100D02*
X12080200D01*
X12559701Y7599300D02*
X12562001Y7597000D01*
X10358700Y7599300D02*
X12559701D01*
X11021150Y7535050D02*
X13128850D01*
X11020000Y7536200D02*
X11021150Y7535050D01*
X12080200Y7473100D02*
X12082500Y7470800D01*
X10254000Y7704000D02*
X10358700Y7599300D01*
X12082500Y7470800D02*
X13215800D01*
X13291200Y7546200D01*
X12562001Y7597000D02*
X14763000D01*
X13128850Y7535050D02*
X13130000Y7533900D01*
X13057663Y10946900D02*
X13143863Y11033100D01*
X13074046Y11056085D02*
X13159114Y11141153D01*
X13074046Y11052520D02*
Y11056085D01*
X13143863Y11033100D02*
X13327020D01*
X13260001Y10691671D02*
X13260001Y10691671D01*
X10175425Y10125426D02*
X10500000Y10450000D01*
X13435001Y10485000D02*
Y11027500D01*
X13470000Y10450000D02*
X14589999D01*
X13435001Y10485000D02*
X13470000Y10450000D01*
X13770000Y10360000D02*
X14646700D01*
X13639999Y10290000D02*
X14664999D01*
X14850000Y10475000D01*
X13389999Y10300000D02*
X13520000D01*
X13347501Y10342500D02*
X13389999Y10300000D01*
X14646700Y10360000D02*
X14812500Y10525800D01*
X13159114Y11141153D02*
X14030000D01*
X12946899Y10977979D02*
X12977979Y10946900D01*
X13057663D01*
X12946899Y10977979D02*
Y11218100D01*
X13010001Y11010000D02*
Y11177004D01*
X9376871Y10125426D02*
X10175425D01*
X14358905Y11141153D02*
X14397752Y11180000D01*
X14720000D01*
X14030000Y11141153D02*
X14358905D01*
X13895297Y11238100D02*
X14741901D01*
X15361041Y11189200D02*
X15448743Y11276900D01*
X13883435Y11226237D02*
X13895297Y11238100D01*
X14790800Y11189200D02*
X15361041D01*
X14741901Y11238100D02*
X14790800Y11189200D01*
X13059232Y11226237D02*
X13883435D01*
X14720000Y11180000D02*
X14761600Y11138400D01*
X15161600D01*
X14714243Y11337600D02*
X14804942Y11246900D01*
X13895758Y11337600D02*
X14714243D01*
X14804942Y11246900D02*
X15346899D01*
X14763000Y11417000D02*
X14870000Y11310000D01*
X15300000D01*
X15346899Y11246900D02*
X15439999Y11340000D01*
X10361000Y11417000D02*
X14763000D01*
X15161600Y11138400D02*
X15220000Y11080000D01*
Y10970000D02*
Y11080000D01*
X15146841Y10475000D02*
X15375000Y10703158D01*
Y11100000D01*
X15482500Y11207500D01*
X10890000Y10005664D02*
X11028237Y10143900D01*
X10562958Y6560800D02*
X11150800D01*
X10312158Y6310000D02*
X10562958Y6560800D01*
X10254000Y6180000D02*
X10584000Y6510000D01*
X9380000Y8220000D02*
X10300000D01*
X10550800Y8470800D01*
X11140800D01*
X13114999Y6640000D02*
X13175000Y6700000D01*
X17920000Y8250000D02*
X17923355Y8253355D01*
Y8722425D01*
X17926711Y8725780D01*
X13261000Y9063100D02*
X13264706Y9059393D01*
Y9037899D02*
Y9059393D01*
X15231276Y8568724D02*
Y8572872D01*
Y8568724D02*
X15300000Y8500000D01*
X15787663D01*
X14849400Y8032500D02*
X15000000Y8183100D01*
X15787663Y8500000D02*
X16197664Y8090000D01*
X15000000Y8183100D02*
X15950114D01*
X16197664Y8090000D02*
X16320000D01*
X16043214D02*
X16066000D01*
X15950114Y8183100D02*
X16043214Y8090000D01*
X15383241Y8261588D02*
X15767677D01*
X15375000Y8805833D02*
Y9190000D01*
X14850000Y8565000D02*
X15134167D01*
X14812500Y8615800D02*
X15113126D01*
X15134167Y8565000D02*
X15375000Y8805833D01*
X15302499Y8805175D02*
Y9147500D01*
X15113126Y8615800D02*
X15302499Y8805175D01*
X15303345Y8420000D02*
X15310001D01*
X14708600Y8511900D02*
X14812500Y8615800D01*
X13575400Y7420000D02*
X13870000D01*
X13500000Y7495400D02*
X13575400Y7420000D01*
X13312242Y7495400D02*
X13500000D01*
X13261000Y6626000D02*
Y7153100D01*
X13278900Y11353900D02*
X13770000D01*
X13215800Y11290800D02*
X13278900Y11353900D01*
X13010001Y11177004D02*
X13059232Y11226237D01*
X13644540Y11290800D02*
X13848958D01*
X13643077Y11289337D02*
X13644540Y11290800D01*
X13264706Y9037899D02*
X13264999Y9037605D01*
Y8505000D02*
Y9037605D01*
X10567100Y10313100D02*
X12633800D01*
X10254000Y10000000D02*
X10567100Y10313100D01*
X12028132Y6290300D02*
X12324035D01*
X12325667Y6291931D01*
X11268750Y11225400D02*
X12092904D01*
X12107504Y11240000D01*
X12925000D01*
X10949200Y11290800D02*
X13215800D01*
X10890000Y11350000D02*
X10949200Y11290800D01*
X10760000Y11350000D02*
X10890000D01*
X10254000Y11524000D02*
X10361000Y11417000D01*
X12925000Y11240000D02*
X12946899Y11218100D01*
X11344742Y11669200D02*
X11375842Y11638100D01*
X12625000D01*
X15464900Y11617100D02*
X15558000Y11524000D01*
X10630337D02*
X10723437Y11617100D01*
X12594500Y11515500D02*
X12642200Y11467800D01*
X11270000Y11524000D02*
X11278500Y11515500D01*
X12714863Y11575000D02*
X12756963Y11617100D01*
X15464900D01*
X11325000D02*
X11367100Y11575000D01*
X12714863D01*
X11278500Y11515500D02*
X12594500D01*
X10703695Y11669200D02*
X11344742D01*
X10723437Y11617100D02*
X11325000D01*
X12763450Y11527450D02*
X15046550D01*
X12760000Y11530900D02*
X12763450Y11527450D01*
X15046550D02*
X15050000Y11524000D01*
X12493343Y6446900D02*
X14753101D01*
X12633800Y10313100D02*
X12635000Y10311900D01*
X15125800Y10525800D02*
X15302499Y10702500D01*
X15925000Y10395000D02*
X16320000Y10000000D01*
X14850000Y10475000D02*
X15146841D01*
X14860001Y10395000D02*
X15925000D01*
X14812500Y10525800D02*
X15125800D01*
X10703695Y7849200D02*
X11697879D01*
X10674495Y7820000D02*
X10703695Y7849200D01*
X10000000Y7704000D02*
X10116000Y7820000D01*
X10674495D01*
X10723437Y7797100D02*
X11678137D01*
X10630337Y7704000D02*
X10723437Y7797100D01*
X11697879Y7849200D02*
X11710179Y7836900D01*
X14881900Y6155000D02*
X15000000Y6273100D01*
X13550000Y6155000D02*
X14881900D01*
X14812500Y6705800D02*
X15125800D01*
X14850000Y6655000D02*
X15146841D01*
X15125800Y6705800D02*
X15302499Y6882500D01*
X14860001Y6575000D02*
X15925000D01*
X15375000Y6883158D02*
Y7280000D01*
X15146841Y6655000D02*
X15375000Y6883158D01*
X15302499Y6882500D02*
Y7237500D01*
X15925000Y6575000D02*
X16320000Y6180000D01*
X13772501Y6636900D02*
X14743600D01*
X14768800Y6573800D02*
X14850000Y6655000D01*
X14743600Y6636900D02*
X14812500Y6705800D01*
X13746362Y6573800D02*
X14768800D01*
X14753101Y6446900D02*
X14800000Y6400000D01*
X10674495Y11640000D02*
X10703695Y11669200D01*
X10000000Y11524000D02*
X10116000Y11640000D01*
X10674495D01*
X13260001Y10691671D02*
Y10970000D01*
X13327020Y11033100D02*
X13347501Y11012621D01*
Y10342500D02*
Y11012621D01*
X13398863Y6218100D02*
X14858099D01*
X14840100Y6302600D02*
X14955000Y6417500D01*
X12815521Y6290300D02*
X12827821Y6302600D01*
X13378262Y6197500D02*
X13398863Y6218100D01*
X12996465Y6230000D02*
X13176210D01*
X12827821Y6302600D02*
X14840100D01*
X14858099Y6218100D02*
X15000000Y6360000D01*
X13176210Y6230000D02*
X13208710Y6197500D01*
X13378262D01*
X12928467Y8143536D02*
X12996465D01*
X13550000Y8065000D02*
X14124278D01*
X13407605D02*
X13550000D01*
X13407605Y6155000D02*
X13550000D01*
X10508000Y7704000D02*
X10630337D01*
X15439999Y7520000D02*
X15810001D01*
X15900000D02*
X16070000D01*
X15850000Y7470000D02*
X15900000Y7520000D01*
X15836137Y7456900D02*
X15849237Y7470000D01*
X15850000D01*
X14870000Y7490000D02*
X15300000D01*
X15361041Y7369200D02*
X15448743Y7456900D01*
X15836137D01*
X11270000Y7704000D02*
X11278500Y7695500D01*
X12594500D01*
X13916800Y7466800D02*
X14693201D01*
X16226900Y7610900D02*
X16320000Y7704000D01*
X14907092Y7610900D02*
X16226900D01*
X13870000Y7420000D02*
X13916800Y7466800D01*
X13895758Y7517600D02*
X14714243D01*
X14870193Y7647800D02*
X14907092Y7610900D01*
X13848958Y7470800D02*
X13895758Y7517600D01*
X14763000Y7597000D02*
X14870000Y7490000D01*
X12642200Y7647800D02*
X14870193D01*
X12594500Y7695500D02*
X12642200Y7647800D01*
X11678137Y7797100D02*
X11701437Y7773800D01*
X12733663D01*
X12756963Y7797100D01*
X11710179Y7836900D02*
X12630000D01*
X15972900Y6273100D02*
X16066000Y6180000D01*
X11016000D02*
X11109100Y6273100D01*
X15000000D02*
X15972900D01*
X10000000Y6180000D02*
X10117500Y6062500D01*
X15532822Y6417500D02*
X15555321Y6440000D01*
X15560001D01*
X15000000Y6360000D02*
X15810001D01*
X14955000Y6417500D02*
X15532822D01*
X15346899Y7426900D02*
X15439999Y7520000D01*
X14790800Y7369200D02*
X15361041D01*
X14693201Y7466800D02*
X14790800Y7369200D01*
X14804942Y7426900D02*
X15346899D01*
X14714243Y7517600D02*
X14804942Y7426900D01*
X12756963Y7797100D02*
X15464900D01*
X15558000Y7704000D01*
X13695503Y7533900D02*
X13770000D01*
X13683203Y7546200D02*
X13695503Y7533900D01*
X14929700Y6059700D02*
X15050000Y6180000D01*
X13362379Y6605000D02*
X13520000D01*
X13347501Y6619879D02*
X13362379Y6605000D01*
X13435001Y6745000D02*
X13455000Y6725000D01*
X13435001Y6745000D02*
Y7207500D01*
X13455000Y6725000D02*
X14647501D01*
X13291200Y7546200D02*
X13683203D01*
X15375000Y7280000D02*
X15482500Y7387500D01*
X15557500D01*
X12889879Y6059700D02*
X14929700D01*
X11871889Y6374700D02*
X12019390Y6227200D01*
X12824263D02*
X12848863Y6251800D01*
X12019390Y6227200D02*
X12824263D01*
X11028237Y6323900D02*
X11850848D01*
X10956700Y6374700D02*
X11871889D01*
X10922900Y6218563D02*
X11028237Y6323900D01*
X12887079Y6062500D02*
X12889879Y6059700D01*
X11850848Y6323900D02*
X11998348Y6176400D01*
X10508000Y6180000D02*
X10753500Y6425500D01*
X10762000Y6180000D02*
X10956700Y6374700D01*
X10922900Y6067100D02*
Y6218563D01*
Y6067100D02*
X10927500Y6062500D01*
X12852898Y6183993D02*
X12870293D01*
X12875000Y6188700D01*
X11998348Y6176400D02*
X12845305D01*
X12852898Y6183993D01*
X12848863Y6251800D02*
X12910204D01*
X12928467Y6233536D02*
X12996465D01*
X12910204Y6251800D02*
X12928467Y6233536D01*
X10117500Y6062500D02*
X10922900D01*
X12887079D01*
X11109100Y6273100D02*
X11820000D01*
X13378204Y6125600D02*
X13407605Y6155000D01*
X10753500Y6425500D02*
X11892931D01*
X12028132Y6290300D01*
X11820000Y6273100D02*
X11967500Y6125600D01*
X13378204D01*
X12760000Y7710900D02*
X12763450Y7707450D01*
X15046550D02*
X15050000Y7704000D01*
X12763450Y7707450D02*
X15046550D01*
X12336363Y6290300D02*
X12815521D01*
X10508000Y9614000D02*
X10630337D01*
X10760000Y9440000D02*
X10890000D01*
X15439999Y9430000D02*
X15810001D01*
X15900000D02*
X16070000D01*
X15850000Y9380000D02*
X15900000Y9430000D01*
X15836137Y9366900D02*
X15849237Y9380000D01*
X15850000D01*
X14870000Y9400000D02*
X15300000D01*
X15361041Y9279200D02*
X15448743Y9366900D01*
X15836137D01*
X13916800Y9376800D02*
X14693201D01*
X16226900Y9520900D02*
X16320000Y9614000D01*
X13870000Y9330000D02*
X13916800Y9376800D01*
X13743863Y9380800D02*
X13848958D01*
X13895758Y9427600D02*
X14714243D01*
X13848958Y9380800D02*
X13895758Y9427600D01*
X10000000Y8090000D02*
X10117500Y7972500D01*
X15346899Y9336900D02*
X15439999Y9430000D01*
X14790800Y9279200D02*
X15361041D01*
X14693201Y9376800D02*
X14790800Y9279200D01*
X14804942Y9336900D02*
X15346899D01*
X14714243Y9427600D02*
X14804942Y9336900D01*
X14929700Y7969700D02*
X15050000Y8090000D01*
X15375000Y9190000D02*
X15482500Y9297500D01*
X15557500D01*
X12889879Y7969700D02*
X14929700D01*
X12824263Y8137200D02*
X12848863Y8161800D01*
X12019390Y8137200D02*
X12824263D01*
X12887079Y7972500D02*
X12889879Y7969700D01*
X14156778Y8032500D02*
X14849400D01*
X12815521Y8200300D02*
X12827821Y8212600D01*
X14840100D01*
X13398863Y8128100D02*
X14858099D01*
X14124278Y8065000D02*
X14156778Y8032500D01*
X10922900Y7977100D02*
Y8128563D01*
Y7977100D02*
X10927500Y7972500D01*
X12852898Y8093993D02*
X12870293D01*
X12875000Y8098700D01*
X13378262Y8107500D02*
X13398863Y8128100D01*
X11998348Y8086400D02*
X12845305D01*
X12852898Y8093993D01*
X13176210Y8140000D02*
X13208710Y8107500D01*
X12848863Y8161800D02*
X12910204D01*
X13208710Y8107500D02*
X13378262D01*
X12996465Y8140000D02*
X13176210D01*
X12910204Y8161800D02*
X12928467Y8143536D01*
X10117500Y7972500D02*
X10922900D01*
X12887079D01*
X13378204Y8035600D02*
X13407605Y8065000D01*
X12028132Y8200300D02*
X12325000D01*
X11967500Y8035600D02*
X13378204D01*
X12336363Y8200300D02*
X12815521D01*
X15302499Y10702500D02*
Y11057500D01*
X14858099Y10038100D02*
X15000000Y10180000D01*
X15482500Y11207500D02*
X15557500D01*
X14955000Y10237500D02*
X15532822D01*
X15000000Y10180000D02*
X15810001D01*
X15555321Y10260000D02*
X15560001D01*
X15532822Y10237500D02*
X15555321Y10260000D01*
X15000000Y10093100D02*
X15972900D01*
X11016000Y10000000D02*
X11109100Y10093100D01*
X15972900D02*
X16066000Y10000000D01*
X11020000Y11353900D02*
X13130000D01*
X12642200Y11467800D02*
X14870193D01*
X13848958Y11290800D02*
X13895758Y11337600D01*
X14870193Y11467800D02*
X14907092Y11430900D01*
X16226900D01*
X16320000Y11524000D01*
X15448743Y11276900D02*
X15836137D01*
X15849237Y11290000D02*
X15850000D01*
X15836137Y11276900D02*
X15849237Y11290000D01*
X15850000D02*
X15900000Y11340000D01*
X16070000D01*
X15439999D02*
X15810001D01*
X10508000Y11524000D02*
X10630337D01*
D11*
X9930000Y9830000D02*
X11545000D01*
X11575000Y9800000D01*
X11825000D01*
X9299600Y9049600D02*
X9931038D01*
X13175000Y7050000D02*
Y7220710D01*
X11246268Y7320000D02*
X12930000D01*
X13000000Y7250000D02*
X13145711D01*
X13175000Y7220710D01*
X12930000Y7320000D02*
X13000000Y7250000D01*
X10614600Y7525400D02*
X10730000Y7410000D01*
X9304600Y7525400D02*
X10614600D01*
X10730000Y7410000D02*
X11156269D01*
X11246268Y7320000D01*
X12950000Y10850000D02*
X13070000D01*
X12850000Y10950000D02*
X12950000Y10850000D01*
X12820711Y11150000D02*
X12850000Y11120711D01*
X12550000Y11150000D02*
X12820711D01*
X12850000Y10950000D02*
Y11120711D01*
X12470000Y11070000D02*
X12550000Y11150000D01*
X9304600Y8236407D02*
Y9044600D01*
X9290000Y11070000D02*
X12470000D01*
X9299600Y9049600D02*
X9304600Y9044600D01*
X9380000Y8220000D02*
Y8790000D01*
X15460001Y10970000D02*
Y11070000D01*
X15489999Y11100000D01*
X15650000D01*
X9200000Y11150000D02*
X12130000D01*
X12130000Y11150000D02*
X12400000D01*
X12130000Y11150000D02*
X12130000Y11150000D01*
X9200000D02*
X9200000Y11150000D01*
X15650000Y11100000D02*
X15700000Y11150000D01*
X17700000D01*
X17875000Y10975000D01*
Y8925000D02*
Y10975000D01*
Y8925000D02*
X17950000Y8850000D01*
D12*
X11825000Y9800000D02*
X13025000D01*
D13*
X11270000Y11524000D02*
D03*
X11016000D02*
D03*
X10762000D02*
D03*
X10508000D02*
D03*
X10254000D02*
D03*
X10000000D02*
D03*
X11270000Y10000000D02*
D03*
X11016000D02*
D03*
X10762000D02*
D03*
X10508000D02*
D03*
X10254000D02*
D03*
X10000000D02*
D03*
X15050000D02*
D03*
X15303999D02*
D03*
X15558000D02*
D03*
X15812000D02*
D03*
X16066000D02*
D03*
X16320000D02*
D03*
X15050000Y11524000D02*
D03*
X15303999D02*
D03*
X15558000D02*
D03*
X15812000D02*
D03*
X16066000D02*
D03*
X16320000D02*
D03*
X11270000Y9614000D02*
D03*
X11016000D02*
D03*
X10762000D02*
D03*
X10508000D02*
D03*
X10254000D02*
D03*
X10000000D02*
D03*
X11270000Y8090000D02*
D03*
X11016000D02*
D03*
X10762000D02*
D03*
X10508000D02*
D03*
X10254000D02*
D03*
X10000000D02*
D03*
X15050000D02*
D03*
X15303999D02*
D03*
X15558000D02*
D03*
X15812000D02*
D03*
X16066000D02*
D03*
X16320000D02*
D03*
X15050000Y9614000D02*
D03*
X15303999D02*
D03*
X15558000D02*
D03*
X15812000D02*
D03*
X16066000D02*
D03*
X16320000D02*
D03*
Y7704000D02*
D03*
X16066000D02*
D03*
X15812000D02*
D03*
X15558000D02*
D03*
X15303999D02*
D03*
X15050000D02*
D03*
X16320000Y6180000D02*
D03*
X16066000D02*
D03*
X15812000D02*
D03*
X15558000D02*
D03*
X15303999D02*
D03*
X15050000D02*
D03*
X10000000D02*
D03*
X10254000D02*
D03*
X10508000D02*
D03*
X10762000D02*
D03*
X11016000D02*
D03*
X11270000D02*
D03*
X10000000Y7704000D02*
D03*
X10254000D02*
D03*
X10508000D02*
D03*
X10762000D02*
D03*
X11016000D02*
D03*
X11270000D02*
D03*
D14*
X13774910Y9453587D02*
D03*
X12775000Y9625000D02*
D03*
X13650000Y6575000D02*
D03*
X12320000Y8336900D02*
D03*
X12070000D02*
D03*
X12875000Y10050000D02*
D03*
X14725000Y10200000D02*
D03*
X12325000Y10250000D02*
D03*
X9299600Y9049600D02*
D03*
X13660001Y9090000D02*
D03*
X17500000Y11250000D02*
D03*
X17050000D02*
D03*
X16650000D02*
D03*
X16150000D02*
D03*
X10575000Y11300000D02*
D03*
X10100000D02*
D03*
X12400000Y10950000D02*
D03*
Y10575000D02*
D03*
X11925000Y10950000D02*
D03*
Y10575000D02*
D03*
X15725000Y6475000D02*
D03*
X14500000Y6800000D02*
D03*
X14250000D02*
D03*
X13950000D02*
D03*
X13175000Y7050000D02*
D03*
X13050000Y7400000D02*
D03*
X12300000Y6750000D02*
D03*
X11950000D02*
D03*
X11500000D02*
D03*
X11100000Y6650000D02*
D03*
X15250000D02*
D03*
X13130000Y9454496D02*
D03*
X13068864Y9328296D02*
D03*
X12590000Y9080000D02*
D03*
X13820000Y8510000D02*
D03*
X13639999Y8460000D02*
D03*
X13520000Y8480000D02*
D03*
X13180000Y8550000D02*
D03*
X12625000Y8400000D02*
D03*
X14100000Y8300000D02*
D03*
X14375000D02*
D03*
X14725000D02*
D03*
X9930000Y9830000D02*
D03*
X12630000Y9680000D02*
D03*
Y6513800D02*
D03*
X11267500Y6576900D02*
D03*
X13013646Y10056354D02*
D03*
X13193983Y10438100D02*
D03*
X9304600Y7525400D02*
D03*
X9385400Y6570000D02*
D03*
X10760000Y7536200D02*
D03*
X11020000D02*
D03*
X11267500Y7405400D02*
D03*
X13074046Y11052520D02*
D03*
X14589999Y10450000D02*
D03*
X13770000Y10360000D02*
D03*
X13639999Y10290000D02*
D03*
X13520000Y10300000D02*
D03*
X13070000Y10850000D02*
D03*
X13010001Y11010000D02*
D03*
X9290000Y11070000D02*
D03*
X9376871Y10125426D02*
D03*
X8700000Y11600000D02*
D03*
X8200000Y11100000D02*
D03*
Y10900000D02*
D03*
Y10700000D02*
D03*
Y10500000D02*
D03*
Y10300000D02*
D03*
Y10100000D02*
D03*
Y9900000D02*
D03*
Y9700000D02*
D03*
Y9500000D02*
D03*
Y9300000D02*
D03*
Y8000000D02*
D03*
Y7800000D02*
D03*
Y7600000D02*
D03*
Y7400000D02*
D03*
Y7200000D02*
D03*
Y7000000D02*
D03*
Y6800000D02*
D03*
Y6600000D02*
D03*
X8700000Y6100000D02*
D03*
X9380000Y8790000D02*
D03*
X14030000Y11141153D02*
D03*
X15220000Y10970000D02*
D03*
X15460001D02*
D03*
X11475000Y10950000D02*
D03*
X10525000D02*
D03*
X11000000D02*
D03*
X12400000Y11150000D02*
D03*
X9380000Y8220000D02*
D03*
X13175000Y6700000D02*
D03*
X17920000Y8250000D02*
D03*
X17926711Y8725780D02*
D03*
X12650000Y6750000D02*
D03*
X10250000Y6400000D02*
D03*
X13261000Y9063100D02*
D03*
X9931038Y9050149D02*
D03*
X9200000Y11150000D02*
D03*
X9304600Y8236407D02*
D03*
X16000000Y8450000D02*
D03*
X15934340Y8084355D02*
D03*
X15767677Y8261588D02*
D03*
X15231276Y8572872D02*
D03*
X15310001Y8420000D02*
D03*
X13975000Y8575000D02*
D03*
X17679875Y8929828D02*
D03*
X16650000Y11000000D02*
D03*
X17950000Y8850000D02*
D03*
X11267500Y8490000D02*
D03*
X13475000Y7400000D02*
D03*
X13550000Y7150000D02*
D03*
X13700000D02*
D03*
X13643077Y11289337D02*
D03*
X11475000Y10575000D02*
D03*
X11000000D02*
D03*
X10525000D02*
D03*
X15070000Y9020000D02*
D03*
X11275000Y10376200D02*
D03*
X15936539Y6175000D02*
D03*
X15681056D02*
D03*
X15175000D02*
D03*
X15425000D02*
D03*
X17500000Y11000000D02*
D03*
X12325667Y6291931D02*
D03*
X12625000Y11638100D02*
D03*
X12760000Y11530900D02*
D03*
X12635000Y10311900D02*
D03*
X14860001Y10395000D02*
D03*
X15684770Y8094503D02*
D03*
X15428130Y8097263D02*
D03*
X15175339Y8101405D02*
D03*
X16500000Y9050000D02*
D03*
X16100000D02*
D03*
X14375000Y9025000D02*
D03*
X13900000D02*
D03*
X15999998Y9797835D02*
D03*
X15549998D02*
D03*
X15100000D02*
D03*
X15850000Y10497835D02*
D03*
X16250000Y10250000D02*
D03*
X15399998Y10497835D02*
D03*
X16150000Y11000000D02*
D03*
X17050000D02*
D03*
X16200165Y11651219D02*
D03*
X15950165D02*
D03*
X15700165D02*
D03*
X9950165D02*
D03*
X15100000Y11050000D02*
D03*
X14850000D02*
D03*
X14550000Y11100000D02*
D03*
X14175000Y11050000D02*
D03*
X14780000Y9020000D02*
D03*
X13672501Y10990000D02*
D03*
X13802499Y10987500D02*
D03*
X13550000Y6155000D02*
D03*
X14800000Y6400000D02*
D03*
X12500000Y6446900D02*
D03*
X13772501Y6636900D02*
D03*
X10760000Y11350000D02*
D03*
X13261000Y7153100D02*
D03*
X13260001Y10970000D02*
D03*
X13770000Y11353900D02*
D03*
X11268750Y11225400D02*
D03*
X12996465Y8143536D02*
D03*
X15810001Y7520000D02*
D03*
X16070000D02*
D03*
X15300000Y7490000D02*
D03*
X13641499Y7483100D02*
D03*
X13770000Y7533900D02*
D03*
X13130000D02*
D03*
X12760000Y7710900D02*
D03*
X12630000Y7836900D02*
D03*
X15560001Y6440000D02*
D03*
X15810001Y6360000D02*
D03*
X15557500Y7387500D02*
D03*
X14647501Y6725000D02*
D03*
X13435001Y7207500D02*
D03*
X13520000Y6605000D02*
D03*
X15302499Y7237500D02*
D03*
X14860001Y6575000D02*
D03*
X12996465Y6233536D02*
D03*
X12875000Y6188700D02*
D03*
X15310001Y6510000D02*
D03*
X10760000Y9440000D02*
D03*
X15810001Y9430000D02*
D03*
X16070000D02*
D03*
X15300000Y9400000D02*
D03*
X13641499Y9393100D02*
D03*
X11020000Y9443900D02*
D03*
X15560001Y8350000D02*
D03*
X15557500Y9297500D02*
D03*
X11267500Y9300000D02*
D03*
X13435001Y9117500D02*
D03*
X15302499Y9147500D02*
D03*
X13550000Y8065000D02*
D03*
X12875000Y8098700D02*
D03*
X12325000Y8200300D02*
D03*
X13550000Y9975000D02*
D03*
X15302499Y11057500D02*
D03*
X13435001Y11027500D02*
D03*
X15557500Y11207500D02*
D03*
X15810001Y10180000D02*
D03*
X15560001Y10260000D02*
D03*
X13130000Y11353900D02*
D03*
X11020000D02*
D03*
X15300000Y11310000D02*
D03*
X16070000Y11340000D02*
D03*
X15810001D02*
D03*
D15*
X9050000Y9100000D02*
D03*
X17675000Y10200000D02*
D03*
X18050000Y9650000D02*
D03*
X14325000Y9250000D02*
D03*
X15750000Y9225000D02*
D03*
X16275000Y7450000D02*
D03*
X10300000Y8500000D02*
D03*
X13025000Y9800000D02*
D03*
X16800000Y6500000D02*
D03*
X15500000Y7225000D02*
D03*
X15050000Y6875000D02*
D03*
X14525000Y7300000D02*
D03*
X13125000Y6875000D02*
D03*
X17725000Y7175000D02*
D03*
Y7825000D02*
D03*
X17720000Y8095000D02*
D03*
X10000000Y7350000D02*
D03*
X10550000D02*
D03*
X11350000Y7150000D02*
D03*
X17400000Y6100000D02*
D03*
X16550000Y7900000D02*
D03*
X17675000Y10775000D02*
D03*
Y9675000D02*
D03*
X9100000Y7700000D02*
D03*
Y7000000D02*
D03*
X9065000Y9695000D02*
D03*
X8800000Y9100000D02*
D03*
X9070000Y11032500D02*
D03*
X8600000Y8100000D02*
D03*
X17050000Y8450000D02*
D03*
X15800000Y11000000D02*
D03*
X18050000Y10200000D02*
D03*
Y10775000D02*
D03*
X10050000Y9400000D02*
D03*
X17375000Y6500000D02*
D03*
X16350000D02*
D03*
X17725000Y7525000D02*
D03*
X15450000Y6775000D02*
D03*
X15925000D02*
D03*
X17325000Y8100000D02*
D03*
X17300000Y9050000D02*
D03*
X16900000D02*
D03*
X10000000Y8500000D02*
D03*
X15050000Y7200000D02*
D03*
X14150000Y7300000D02*
D03*
X12300000Y7150000D02*
D03*
X14425000Y10575000D02*
D03*
X13560001Y6900000D02*
D03*
X13550000Y10700000D02*
D03*
X13075000D02*
D03*
X10025000Y10825000D02*
D03*
X10000000Y6600000D02*
D03*
Y7000000D02*
D03*
X9100000Y8100000D02*
D03*
X9950000Y7900000D02*
D03*
X17900000Y11175000D02*
D03*
X16600000Y11550000D02*
D03*
X17100000D02*
D03*
X15150000Y10800000D02*
D03*
X16800000Y6100000D02*
D03*
X18075000Y8050000D02*
D03*
Y7100000D02*
D03*
X11950000Y9150000D02*
D03*
X10980000D02*
D03*
X10025000Y10425000D02*
D03*
X11500000Y9150000D02*
D03*
X17725000Y6800000D02*
D03*
X10430000Y9160000D02*
D03*
X17600000Y11550000D02*
D03*
D16*
X8325000Y6200000D02*
D03*
X18000000D02*
D03*
Y11525000D02*
D03*
X8325000D02*
D03*
%TF.MD5,487ed190eb65641d76e9ab7a91606339*%
M02*
