%TF.GenerationSoftware,Altium Limited,Altium Designer,21.8.1 (53)*%
G04 Layer_Color=2752767*
%FSLAX45Y45*%
%MOMM*%
%TF.SameCoordinates,046F884E-5673-4B57-908A-D09F833A34A9*%
%TF.FilePolarity,Positive*%
%TF.FileFunction,Drawing*%
%TF.Part,Single*%
G01*
G75*
%TA.AperFunction,NonConductor*%
%ADD46C,0.12700*%
%ADD47C,0.16933*%
D46*
X11219200Y11473200D02*
Y11574800D01*
X11320800D01*
Y11473200D01*
X11219200D01*
X10965200D02*
Y11574800D01*
X11066800D01*
Y11473200D01*
X10965200D01*
X10711200D02*
Y11574800D01*
X10812800D01*
Y11473200D01*
X10711200D01*
X10457200D02*
Y11574800D01*
X10558800D01*
Y11473200D01*
X10457200D01*
X10203200D02*
Y11574800D01*
X10304800D01*
Y11473200D01*
X10203200D01*
X9949200D02*
Y11574800D01*
X10050800D01*
Y11473200D01*
X9949200D01*
X11219200Y9949200D02*
Y10050800D01*
X11320800D01*
Y9949200D01*
X11219200D01*
X10965200D02*
Y10050800D01*
X11066800D01*
Y9949200D01*
X10965200D01*
X10711200D02*
Y10050800D01*
X10812800D01*
Y9949200D01*
X10711200D01*
X10457200D02*
Y10050800D01*
X10558800D01*
Y9949200D01*
X10457200D01*
X10203200D02*
Y10050800D01*
X10304800D01*
Y9949200D01*
X10203200D01*
X9949200D02*
Y10050800D01*
X10050800D01*
Y9949200D01*
X9949200D01*
X14999200D02*
Y10050800D01*
X15100800D01*
Y9949200D01*
X14999200D01*
X15253200D02*
Y10050800D01*
X15354800D01*
Y9949200D01*
X15253200D01*
X15507201D02*
Y10050800D01*
X15608800D01*
Y9949200D01*
X15507201D01*
X15761200D02*
Y10050800D01*
X15862801D01*
Y9949200D01*
X15761200D01*
X16015199D02*
Y10050800D01*
X16116800D01*
Y9949200D01*
X16015199D01*
X16269200D02*
Y10050800D01*
X16370799D01*
Y9949200D01*
X16269200D01*
X14999200Y11473200D02*
Y11574800D01*
X15100800D01*
Y11473200D01*
X14999200D01*
X15253200D02*
Y11574800D01*
X15354800D01*
Y11473200D01*
X15253200D01*
X15507201D02*
Y11574800D01*
X15608800D01*
Y11473200D01*
X15507201D01*
X15761200D02*
Y11574800D01*
X15862801D01*
Y11473200D01*
X15761200D01*
X16015199D02*
Y11574800D01*
X16116800D01*
Y11473200D01*
X16015199D01*
X16269200D02*
Y11574800D01*
X16370799D01*
Y11473200D01*
X16269200D01*
X11219200Y9563200D02*
Y9664800D01*
X11320800D01*
Y9563200D01*
X11219200D01*
X10965200D02*
Y9664800D01*
X11066800D01*
Y9563200D01*
X10965200D01*
X10711200D02*
Y9664800D01*
X10812800D01*
Y9563200D01*
X10711200D01*
X10457200D02*
Y9664800D01*
X10558800D01*
Y9563200D01*
X10457200D01*
X10203200D02*
Y9664800D01*
X10304800D01*
Y9563200D01*
X10203200D01*
X9949200D02*
Y9664800D01*
X10050800D01*
Y9563200D01*
X9949200D01*
X11219200Y8039200D02*
Y8140800D01*
X11320800D01*
Y8039200D01*
X11219200D01*
X10965200D02*
Y8140800D01*
X11066800D01*
Y8039200D01*
X10965200D01*
X10711200D02*
Y8140800D01*
X10812800D01*
Y8039200D01*
X10711200D01*
X10457200D02*
Y8140800D01*
X10558800D01*
Y8039200D01*
X10457200D01*
X10203200D02*
Y8140800D01*
X10304800D01*
Y8039200D01*
X10203200D01*
X9949200D02*
Y8140800D01*
X10050800D01*
Y8039200D01*
X9949200D01*
X14999200D02*
Y8140800D01*
X15100800D01*
Y8039200D01*
X14999200D01*
X15253200D02*
Y8140800D01*
X15354800D01*
Y8039200D01*
X15253200D01*
X15507201D02*
Y8140800D01*
X15608800D01*
Y8039200D01*
X15507201D01*
X15761200D02*
Y8140800D01*
X15862801D01*
Y8039200D01*
X15761200D01*
X16015199D02*
Y8140800D01*
X16116800D01*
Y8039200D01*
X16015199D01*
X16269200D02*
Y8140800D01*
X16370799D01*
Y8039200D01*
X16269200D01*
X14999200Y9563200D02*
Y9664800D01*
X15100800D01*
Y9563200D01*
X14999200D01*
X15253200D02*
Y9664800D01*
X15354800D01*
Y9563200D01*
X15253200D01*
X15507201D02*
Y9664800D01*
X15608800D01*
Y9563200D01*
X15507201D01*
X15761200D02*
Y9664800D01*
X15862801D01*
Y9563200D01*
X15761200D01*
X16015199D02*
Y9664800D01*
X16116800D01*
Y9563200D01*
X16015199D01*
X16269200D02*
Y9664800D01*
X16370799D01*
Y9563200D01*
X16269200D01*
Y7653200D02*
Y7754800D01*
X16370799D01*
Y7653200D01*
X16269200D01*
X16015199D02*
Y7754800D01*
X16116800D01*
Y7653200D01*
X16015199D01*
X15761200D02*
Y7754800D01*
X15862801D01*
Y7653200D01*
X15761200D01*
X15507201D02*
Y7754800D01*
X15608800D01*
Y7653200D01*
X15507201D01*
X15253200D02*
Y7754800D01*
X15354800D01*
Y7653200D01*
X15253200D01*
X14999200D02*
Y7754800D01*
X15100800D01*
Y7653200D01*
X14999200D01*
X16269200Y6129200D02*
Y6230800D01*
X16370799D01*
Y6129200D01*
X16269200D01*
X16015199D02*
Y6230800D01*
X16116800D01*
Y6129200D01*
X16015199D01*
X15761200D02*
Y6230800D01*
X15862801D01*
Y6129200D01*
X15761200D01*
X15507201D02*
Y6230800D01*
X15608800D01*
Y6129200D01*
X15507201D01*
X15253200D02*
Y6230800D01*
X15354800D01*
Y6129200D01*
X15253200D01*
X14999200D02*
Y6230800D01*
X15100800D01*
Y6129200D01*
X14999200D01*
X9949200D02*
Y6230800D01*
X10050800D01*
Y6129200D01*
X9949200D01*
X10203200D02*
Y6230800D01*
X10304800D01*
Y6129200D01*
X10203200D01*
X10457200D02*
Y6230800D01*
X10558800D01*
Y6129200D01*
X10457200D01*
X10711200D02*
Y6230800D01*
X10812800D01*
Y6129200D01*
X10711200D01*
X10965200D02*
Y6230800D01*
X11066800D01*
Y6129200D01*
X10965200D01*
X11219200D02*
Y6230800D01*
X11320800D01*
Y6129200D01*
X11219200D01*
X9949200Y7653200D02*
Y7754800D01*
X10050800D01*
Y7653200D01*
X9949200D01*
X10203200D02*
Y7754800D01*
X10304800D01*
Y7653200D01*
X10203200D01*
X10457200D02*
Y7754800D01*
X10558800D01*
Y7653200D01*
X10457200D01*
X10711200D02*
Y7754800D01*
X10812800D01*
Y7653200D01*
X10711200D01*
X10965200D02*
Y7754800D01*
X11066800D01*
Y7653200D01*
X10965200D01*
X11219200D02*
Y7754800D01*
X11320800D01*
Y7653200D01*
X11219200D01*
X9050000Y9049200D02*
X8999200Y9150800D01*
X9100800D01*
X9050000Y9049200D01*
X13660001Y9039200D02*
X13685400Y9064600D01*
X13710800D01*
X13685400Y9090000D01*
X13710800Y9115400D01*
X13685400D01*
X13660001Y9140800D01*
X13634599Y9115400D01*
X13609200D01*
X13634599Y9090000D01*
X13609200Y9064600D01*
X13634599D01*
X13660001Y9039200D01*
X17675000Y10149200D02*
X17624200Y10250800D01*
X17725800D01*
X17675000Y10149200D01*
X18050000Y9599200D02*
X17999200Y9700800D01*
X18100800D01*
X18050000Y9599200D01*
X14325000Y9199200D02*
X14274200Y9300800D01*
X14375800D01*
X14325000Y9199200D01*
X15750000Y9174200D02*
X15699200Y9275800D01*
X15800800D01*
X15750000Y9174200D01*
X16275000Y7399200D02*
X16224200Y7500800D01*
X16325800D01*
X16275000Y7399200D01*
X10300000Y8449200D02*
X10249200Y8550800D01*
X10350800D01*
X10300000Y8449200D01*
X13025000Y9749200D02*
X13050400Y9774600D01*
X13075800D01*
X13050400Y9800000D01*
X13075800Y9825400D01*
X13050400D01*
X13025000Y9850800D01*
X12999600Y9825400D01*
X12974200D01*
X12999600Y9800000D01*
X12974200Y9774600D01*
X12999600D01*
X13025000Y9749200D01*
X17500000Y11199200D02*
X17525400Y11224600D01*
X17550800D01*
X17525400Y11250000D01*
X17550800Y11275400D01*
X17525400D01*
X17500000Y11300800D01*
X17474600Y11275400D01*
X17449200D01*
X17474600Y11250000D01*
X17449200Y11224600D01*
X17474600D01*
X17500000Y11199200D01*
X17050000D02*
X17075400Y11224600D01*
X17100800D01*
X17075400Y11250000D01*
X17100800Y11275400D01*
X17075400D01*
X17050000Y11300800D01*
X17024600Y11275400D01*
X16999200D01*
X17024600Y11250000D01*
X16999200Y11224600D01*
X17024600D01*
X17050000Y11199200D01*
X16650000D02*
X16675400Y11224600D01*
X16700800D01*
X16675400Y11250000D01*
X16700800Y11275400D01*
X16675400D01*
X16650000Y11300800D01*
X16624600Y11275400D01*
X16599200D01*
X16624600Y11250000D01*
X16599200Y11224600D01*
X16624600D01*
X16650000Y11199200D01*
X16150000D02*
X16175400Y11224600D01*
X16200800D01*
X16175400Y11250000D01*
X16200800Y11275400D01*
X16175400D01*
X16150000Y11300800D01*
X16124600Y11275400D01*
X16099200D01*
X16124600Y11250000D01*
X16099200Y11224600D01*
X16124600D01*
X16150000Y11199200D01*
X10575000Y11249200D02*
X10600400Y11274600D01*
X10625800D01*
X10600400Y11300000D01*
X10625800Y11325400D01*
X10600400D01*
X10575000Y11350800D01*
X10549600Y11325400D01*
X10524200D01*
X10549600Y11300000D01*
X10524200Y11274600D01*
X10549600D01*
X10575000Y11249200D01*
X10100000D02*
X10125400Y11274600D01*
X10150800D01*
X10125400Y11300000D01*
X10150800Y11325400D01*
X10125400D01*
X10100000Y11350800D01*
X10074600Y11325400D01*
X10049200D01*
X10074600Y11300000D01*
X10049200Y11274600D01*
X10074600D01*
X10100000Y11249200D01*
X12400000Y10899200D02*
X12425400Y10924600D01*
X12450800D01*
X12425400Y10950000D01*
X12450800Y10975400D01*
X12425400D01*
X12400000Y11000800D01*
X12374600Y10975400D01*
X12349200D01*
X12374600Y10950000D01*
X12349200Y10924600D01*
X12374600D01*
X12400000Y10899200D01*
Y10524200D02*
X12425400Y10549600D01*
X12450800D01*
X12425400Y10575000D01*
X12450800Y10600400D01*
X12425400D01*
X12400000Y10625800D01*
X12374600Y10600400D01*
X12349200D01*
X12374600Y10575000D01*
X12349200Y10549600D01*
X12374600D01*
X12400000Y10524200D01*
X11925000Y10899200D02*
X11950400Y10924600D01*
X11975800D01*
X11950400Y10950000D01*
X11975800Y10975400D01*
X11950400D01*
X11925000Y11000800D01*
X11899600Y10975400D01*
X11874200D01*
X11899600Y10950000D01*
X11874200Y10924600D01*
X11899600D01*
X11925000Y10899200D01*
Y10524200D02*
X11950400Y10549600D01*
X11975800D01*
X11950400Y10575000D01*
X11975800Y10600400D01*
X11950400D01*
X11925000Y10625800D01*
X11899600Y10600400D01*
X11874200D01*
X11899600Y10575000D01*
X11874200Y10549600D01*
X11899600D01*
X11925000Y10524200D01*
X15725000Y6424200D02*
X15750400Y6449600D01*
X15775800D01*
X15750400Y6475000D01*
X15775800Y6500400D01*
X15750400D01*
X15725000Y6525800D01*
X15699600Y6500400D01*
X15674200D01*
X15699600Y6475000D01*
X15674200Y6449600D01*
X15699600D01*
X15725000Y6424200D01*
X16800000Y6449200D02*
X16749200Y6550800D01*
X16850800D01*
X16800000Y6449200D01*
X15500000Y7174200D02*
X15449200Y7275800D01*
X15550800D01*
X15500000Y7174200D01*
X14500000Y6749200D02*
X14525400Y6774600D01*
X14550800D01*
X14525400Y6800000D01*
X14550800Y6825400D01*
X14525400D01*
X14500000Y6850800D01*
X14474600Y6825400D01*
X14449200D01*
X14474600Y6800000D01*
X14449200Y6774600D01*
X14474600D01*
X14500000Y6749200D01*
X14250000D02*
X14275400Y6774600D01*
X14300800D01*
X14275400Y6800000D01*
X14300800Y6825400D01*
X14275400D01*
X14250000Y6850800D01*
X14224600Y6825400D01*
X14199200D01*
X14224600Y6800000D01*
X14199200Y6774600D01*
X14224600D01*
X14250000Y6749200D01*
X13950000D02*
X13975400Y6774600D01*
X14000800D01*
X13975400Y6800000D01*
X14000800Y6825400D01*
X13975400D01*
X13950000Y6850800D01*
X13924600Y6825400D01*
X13899200D01*
X13924600Y6800000D01*
X13899200Y6774600D01*
X13924600D01*
X13950000Y6749200D01*
X15050000Y6824200D02*
X14999200Y6925800D01*
X15100800D01*
X15050000Y6824200D01*
X14525000Y7249200D02*
X14474200Y7350800D01*
X14575800D01*
X14525000Y7249200D01*
X13125000Y6824200D02*
X13074200Y6925800D01*
X13175800D01*
X13125000Y6824200D01*
X12300000Y6699200D02*
X12325400Y6724600D01*
X12350800D01*
X12325400Y6750000D01*
X12350800Y6775400D01*
X12325400D01*
X12300000Y6800800D01*
X12274600Y6775400D01*
X12249200D01*
X12274600Y6750000D01*
X12249200Y6724600D01*
X12274600D01*
X12300000Y6699200D01*
X11950000D02*
X11975400Y6724600D01*
X12000800D01*
X11975400Y6750000D01*
X12000800Y6775400D01*
X11975400D01*
X11950000Y6800800D01*
X11924600Y6775400D01*
X11899200D01*
X11924600Y6750000D01*
X11899200Y6724600D01*
X11924600D01*
X11950000Y6699200D01*
X11500000D02*
X11525400Y6724600D01*
X11550800D01*
X11525400Y6750000D01*
X11550800Y6775400D01*
X11525400D01*
X11500000Y6800800D01*
X11474600Y6775400D01*
X11449200D01*
X11474600Y6750000D01*
X11449200Y6724600D01*
X11474600D01*
X11500000Y6699200D01*
X11100000Y6599200D02*
X11125400Y6624600D01*
X11150800D01*
X11125400Y6650000D01*
X11150800Y6675400D01*
X11125400D01*
X11100000Y6700800D01*
X11074600Y6675400D01*
X11049200D01*
X11074600Y6650000D01*
X11049200Y6624600D01*
X11074600D01*
X11100000Y6599200D01*
X17725000Y7124200D02*
X17674200Y7225800D01*
X17775800D01*
X17725000Y7124200D01*
Y7774200D02*
X17674200Y7875800D01*
X17775800D01*
X17725000Y7774200D01*
X17720000Y8044200D02*
X17669200Y8145800D01*
X17770799D01*
X17720000Y8044200D01*
X12590000Y9029200D02*
X12615400Y9054600D01*
X12640800D01*
X12615400Y9080000D01*
X12640800Y9105400D01*
X12615400D01*
X12590000Y9130800D01*
X12564600Y9105400D01*
X12539200D01*
X12564600Y9080000D01*
X12539200Y9054600D01*
X12564600D01*
X12590000Y9029200D01*
X14100000Y8249200D02*
X14125400Y8274600D01*
X14150800D01*
X14125400Y8300000D01*
X14150800Y8325400D01*
X14125400D01*
X14100000Y8350800D01*
X14074600Y8325400D01*
X14049200D01*
X14074600Y8300000D01*
X14049200Y8274600D01*
X14074600D01*
X14100000Y8249200D01*
X14375000D02*
X14400400Y8274600D01*
X14425800D01*
X14400400Y8300000D01*
X14425800Y8325400D01*
X14400400D01*
X14375000Y8350800D01*
X14349600Y8325400D01*
X14324200D01*
X14349600Y8300000D01*
X14324200Y8274600D01*
X14349600D01*
X14375000Y8249200D01*
X14725000D02*
X14750400Y8274600D01*
X14775800D01*
X14750400Y8300000D01*
X14775800Y8325400D01*
X14750400D01*
X14725000Y8350800D01*
X14699600Y8325400D01*
X14674200D01*
X14699600Y8300000D01*
X14674200Y8274600D01*
X14699600D01*
X14725000Y8249200D01*
X10000000Y7299200D02*
X9949200Y7400800D01*
X10050800D01*
X10000000Y7299200D01*
X10550000D02*
X10499200Y7400800D01*
X10600800D01*
X10550000Y7299200D01*
X11350000Y7099200D02*
X11299200Y7200800D01*
X11400800D01*
X11350000Y7099200D01*
X17400000Y6049200D02*
X17349200Y6150800D01*
X17450800D01*
X17400000Y6049200D01*
X16550000Y7849200D02*
X16499200Y7950800D01*
X16600800D01*
X16550000Y7849200D01*
X17675000Y10724200D02*
X17624200Y10825800D01*
X17725800D01*
X17675000Y10724200D01*
Y9624200D02*
X17624200Y9725800D01*
X17725800D01*
X17675000Y9624200D01*
X9100000Y7649200D02*
X9049200Y7750800D01*
X9150800D01*
X9100000Y7649200D01*
Y6949200D02*
X9049200Y7050800D01*
X9150800D01*
X9100000Y6949200D01*
X9065000Y9644200D02*
X9014200Y9745800D01*
X9115800D01*
X9065000Y9644200D01*
X8700000Y11549200D02*
X8725400Y11574600D01*
X8750800D01*
X8725400Y11600000D01*
X8750800Y11625400D01*
X8725400D01*
X8700000Y11650800D01*
X8674600Y11625400D01*
X8649200D01*
X8674600Y11600000D01*
X8649200Y11574600D01*
X8674600D01*
X8700000Y11549200D01*
X8200000Y11049200D02*
X8225400Y11074600D01*
X8250800D01*
X8225400Y11100000D01*
X8250800Y11125400D01*
X8225400D01*
X8200000Y11150800D01*
X8174600Y11125400D01*
X8149200D01*
X8174600Y11100000D01*
X8149200Y11074600D01*
X8174600D01*
X8200000Y11049200D01*
Y10849200D02*
X8225400Y10874600D01*
X8250800D01*
X8225400Y10900000D01*
X8250800Y10925400D01*
X8225400D01*
X8200000Y10950800D01*
X8174600Y10925400D01*
X8149200D01*
X8174600Y10900000D01*
X8149200Y10874600D01*
X8174600D01*
X8200000Y10849200D01*
Y10649200D02*
X8225400Y10674600D01*
X8250800D01*
X8225400Y10700000D01*
X8250800Y10725400D01*
X8225400D01*
X8200000Y10750800D01*
X8174600Y10725400D01*
X8149200D01*
X8174600Y10700000D01*
X8149200Y10674600D01*
X8174600D01*
X8200000Y10649200D01*
Y10449200D02*
X8225400Y10474600D01*
X8250800D01*
X8225400Y10500000D01*
X8250800Y10525400D01*
X8225400D01*
X8200000Y10550800D01*
X8174600Y10525400D01*
X8149200D01*
X8174600Y10500000D01*
X8149200Y10474600D01*
X8174600D01*
X8200000Y10449200D01*
Y10249200D02*
X8225400Y10274600D01*
X8250800D01*
X8225400Y10300000D01*
X8250800Y10325400D01*
X8225400D01*
X8200000Y10350800D01*
X8174600Y10325400D01*
X8149200D01*
X8174600Y10300000D01*
X8149200Y10274600D01*
X8174600D01*
X8200000Y10249200D01*
Y10049200D02*
X8225400Y10074600D01*
X8250800D01*
X8225400Y10100000D01*
X8250800Y10125400D01*
X8225400D01*
X8200000Y10150800D01*
X8174600Y10125400D01*
X8149200D01*
X8174600Y10100000D01*
X8149200Y10074600D01*
X8174600D01*
X8200000Y10049200D01*
Y9849200D02*
X8225400Y9874600D01*
X8250800D01*
X8225400Y9900000D01*
X8250800Y9925400D01*
X8225400D01*
X8200000Y9950800D01*
X8174600Y9925400D01*
X8149200D01*
X8174600Y9900000D01*
X8149200Y9874600D01*
X8174600D01*
X8200000Y9849200D01*
Y9649200D02*
X8225400Y9674600D01*
X8250800D01*
X8225400Y9700000D01*
X8250800Y9725400D01*
X8225400D01*
X8200000Y9750800D01*
X8174600Y9725400D01*
X8149200D01*
X8174600Y9700000D01*
X8149200Y9674600D01*
X8174600D01*
X8200000Y9649200D01*
Y9449200D02*
X8225400Y9474600D01*
X8250800D01*
X8225400Y9500000D01*
X8250800Y9525400D01*
X8225400D01*
X8200000Y9550800D01*
X8174600Y9525400D01*
X8149200D01*
X8174600Y9500000D01*
X8149200Y9474600D01*
X8174600D01*
X8200000Y9449200D01*
Y9249200D02*
X8225400Y9274600D01*
X8250800D01*
X8225400Y9300000D01*
X8250800Y9325400D01*
X8225400D01*
X8200000Y9350800D01*
X8174600Y9325400D01*
X8149200D01*
X8174600Y9300000D01*
X8149200Y9274600D01*
X8174600D01*
X8200000Y9249200D01*
X8800000Y9049200D02*
X8749200Y9150800D01*
X8850800D01*
X8800000Y9049200D01*
X9070000Y10981700D02*
X9019200Y11083300D01*
X9120800D01*
X9070000Y10981700D01*
X8200000Y7949200D02*
X8225400Y7974600D01*
X8250800D01*
X8225400Y8000000D01*
X8250800Y8025400D01*
X8225400D01*
X8200000Y8050800D01*
X8174600Y8025400D01*
X8149200D01*
X8174600Y8000000D01*
X8149200Y7974600D01*
X8174600D01*
X8200000Y7949200D01*
Y7749200D02*
X8225400Y7774600D01*
X8250800D01*
X8225400Y7800000D01*
X8250800Y7825400D01*
X8225400D01*
X8200000Y7850800D01*
X8174600Y7825400D01*
X8149200D01*
X8174600Y7800000D01*
X8149200Y7774600D01*
X8174600D01*
X8200000Y7749200D01*
Y7549200D02*
X8225400Y7574600D01*
X8250800D01*
X8225400Y7600000D01*
X8250800Y7625400D01*
X8225400D01*
X8200000Y7650800D01*
X8174600Y7625400D01*
X8149200D01*
X8174600Y7600000D01*
X8149200Y7574600D01*
X8174600D01*
X8200000Y7549200D01*
Y7349200D02*
X8225400Y7374600D01*
X8250800D01*
X8225400Y7400000D01*
X8250800Y7425400D01*
X8225400D01*
X8200000Y7450800D01*
X8174600Y7425400D01*
X8149200D01*
X8174600Y7400000D01*
X8149200Y7374600D01*
X8174600D01*
X8200000Y7349200D01*
Y7149200D02*
X8225400Y7174600D01*
X8250800D01*
X8225400Y7200000D01*
X8250800Y7225400D01*
X8225400D01*
X8200000Y7250800D01*
X8174600Y7225400D01*
X8149200D01*
X8174600Y7200000D01*
X8149200Y7174600D01*
X8174600D01*
X8200000Y7149200D01*
Y6949200D02*
X8225400Y6974600D01*
X8250800D01*
X8225400Y7000000D01*
X8250800Y7025400D01*
X8225400D01*
X8200000Y7050800D01*
X8174600Y7025400D01*
X8149200D01*
X8174600Y7000000D01*
X8149200Y6974600D01*
X8174600D01*
X8200000Y6949200D01*
Y6749200D02*
X8225400Y6774600D01*
X8250800D01*
X8225400Y6800000D01*
X8250800Y6825400D01*
X8225400D01*
X8200000Y6850800D01*
X8174600Y6825400D01*
X8149200D01*
X8174600Y6800000D01*
X8149200Y6774600D01*
X8174600D01*
X8200000Y6749200D01*
Y6549200D02*
X8225400Y6574600D01*
X8250800D01*
X8225400Y6600000D01*
X8250800Y6625400D01*
X8225400D01*
X8200000Y6650800D01*
X8174600Y6625400D01*
X8149200D01*
X8174600Y6600000D01*
X8149200Y6574600D01*
X8174600D01*
X8200000Y6549200D01*
X8600000Y8049200D02*
X8549200Y8150800D01*
X8650800D01*
X8600000Y8049200D01*
X8700000Y6049200D02*
X8725400Y6074600D01*
X8750800D01*
X8725400Y6100000D01*
X8750800Y6125400D01*
X8725400D01*
X8700000Y6150800D01*
X8674600Y6125400D01*
X8649200D01*
X8674600Y6100000D01*
X8649200Y6074600D01*
X8674600D01*
X8700000Y6049200D01*
X11475000Y10899200D02*
X11500400Y10924600D01*
X11525800D01*
X11500400Y10950000D01*
X11525800Y10975400D01*
X11500400D01*
X11475000Y11000800D01*
X11449600Y10975400D01*
X11424200D01*
X11449600Y10950000D01*
X11424200Y10924600D01*
X11449600D01*
X11475000Y10899200D01*
X10525000D02*
X10550400Y10924600D01*
X10575800D01*
X10550400Y10950000D01*
X10575800Y10975400D01*
X10550400D01*
X10525000Y11000800D01*
X10499600Y10975400D01*
X10474200D01*
X10499600Y10950000D01*
X10474200Y10924600D01*
X10499600D01*
X10525000Y10899200D01*
X11000000D02*
X11025400Y10924600D01*
X11050800D01*
X11025400Y10950000D01*
X11050800Y10975400D01*
X11025400D01*
X11000000Y11000800D01*
X10974600Y10975400D01*
X10949200D01*
X10974600Y10950000D01*
X10949200Y10924600D01*
X10974600D01*
X11000000Y10899200D01*
X12650000Y6699200D02*
X12675400Y6724600D01*
X12700800D01*
X12675400Y6750000D01*
X12700800Y6775400D01*
X12675400D01*
X12650000Y6800800D01*
X12624600Y6775400D01*
X12599200D01*
X12624600Y6750000D01*
X12599200Y6724600D01*
X12624600D01*
X12650000Y6699200D01*
X10250000Y6349200D02*
X10275400Y6374600D01*
X10300800D01*
X10275400Y6400000D01*
X10300800Y6425400D01*
X10275400D01*
X10250000Y6450800D01*
X10224600Y6425400D01*
X10199200D01*
X10224600Y6400000D01*
X10199200Y6374600D01*
X10224600D01*
X10250000Y6349200D01*
X16000000Y8399200D02*
X16025400Y8424600D01*
X16050800D01*
X16025400Y8450000D01*
X16050800Y8475400D01*
X16025400D01*
X16000000Y8500800D01*
X15974600Y8475400D01*
X15949200D01*
X15974600Y8450000D01*
X15949200Y8424600D01*
X15974600D01*
X16000000Y8399200D01*
X17050000D02*
X16999200Y8500800D01*
X17100800D01*
X17050000Y8399200D01*
X15934340Y8033555D02*
X15959740Y8058955D01*
X15985139D01*
X15959740Y8084355D01*
X15985139Y8109755D01*
X15959740D01*
X15934340Y8135155D01*
X15908940Y8109755D01*
X15883540D01*
X15908940Y8084355D01*
X15883540Y8058955D01*
X15908940D01*
X15934340Y8033555D01*
X15800000Y10949200D02*
X15749200Y11050800D01*
X15850800D01*
X15800000Y10949200D01*
X16650000D02*
X16675400Y10974600D01*
X16700800D01*
X16675400Y11000000D01*
X16700800Y11025400D01*
X16675400D01*
X16650000Y11050800D01*
X16624600Y11025400D01*
X16599200D01*
X16624600Y11000000D01*
X16599200Y10974600D01*
X16624600D01*
X16650000Y10949200D01*
X18050000Y10149200D02*
X17999200Y10250800D01*
X18100800D01*
X18050000Y10149200D01*
Y10724200D02*
X17999200Y10825800D01*
X18100800D01*
X18050000Y10724200D01*
X10050000Y9349200D02*
X9999200Y9450800D01*
X10100800D01*
X10050000Y9349200D01*
X17375000Y6449200D02*
X17324200Y6550800D01*
X17425800D01*
X17375000Y6449200D01*
X16350000D02*
X16299200Y6550800D01*
X16400800D01*
X16350000Y6449200D01*
X17725000Y7474200D02*
X17674200Y7575800D01*
X17775800D01*
X17725000Y7474200D01*
X15450000Y6724200D02*
X15399200Y6825800D01*
X15500800D01*
X15450000Y6724200D01*
X15925000D02*
X15874200Y6825800D01*
X15975800D01*
X15925000Y6724200D01*
X17325000Y8049200D02*
X17274200Y8150800D01*
X17375800D01*
X17325000Y8049200D01*
X17300000Y8999200D02*
X17249200Y9100800D01*
X17350800D01*
X17300000Y8999200D01*
X16900000D02*
X16849200Y9100800D01*
X16950800D01*
X16900000Y8999200D01*
X10000000Y8449200D02*
X9949200Y8550800D01*
X10050800D01*
X10000000Y8449200D01*
X13475000Y7349200D02*
X13500400Y7374600D01*
X13525800D01*
X13500400Y7400000D01*
X13525800Y7425400D01*
X13500400D01*
X13475000Y7450800D01*
X13449600Y7425400D01*
X13424200D01*
X13449600Y7400000D01*
X13424200Y7374600D01*
X13449600D01*
X13475000Y7349200D01*
X13550000Y7099200D02*
X13575400Y7124600D01*
X13600800D01*
X13575400Y7150000D01*
X13600800Y7175400D01*
X13575400D01*
X13550000Y7200800D01*
X13524600Y7175400D01*
X13499200D01*
X13524600Y7150000D01*
X13499200Y7124600D01*
X13524600D01*
X13550000Y7099200D01*
X13700000D02*
X13725400Y7124600D01*
X13750800D01*
X13725400Y7150000D01*
X13750800Y7175400D01*
X13725400D01*
X13700000Y7200800D01*
X13674600Y7175400D01*
X13649200D01*
X13674600Y7150000D01*
X13649200Y7124600D01*
X13674600D01*
X13700000Y7099200D01*
X15050000Y7149200D02*
X14999200Y7250800D01*
X15100800D01*
X15050000Y7149200D01*
X14150000Y7249200D02*
X14099200Y7350800D01*
X14200800D01*
X14150000Y7249200D01*
X12300000Y7099200D02*
X12249200Y7200800D01*
X12350800D01*
X12300000Y7099200D01*
X14425000Y10524200D02*
X14374200Y10625800D01*
X14475800D01*
X14425000Y10524200D01*
X13560001Y6849200D02*
X13509200Y6950800D01*
X13610800D01*
X13560001Y6849200D01*
X13550000Y10649200D02*
X13499200Y10750800D01*
X13600800D01*
X13550000Y10649200D01*
X13075000D02*
X13024200Y10750800D01*
X13125800D01*
X13075000Y10649200D01*
X10025000Y10774200D02*
X9974200Y10875800D01*
X10075800D01*
X10025000Y10774200D01*
X11475000Y10524200D02*
X11500400Y10549600D01*
X11525800D01*
X11500400Y10575000D01*
X11525800Y10600400D01*
X11500400D01*
X11475000Y10625800D01*
X11449600Y10600400D01*
X11424200D01*
X11449600Y10575000D01*
X11424200Y10549600D01*
X11449600D01*
X11475000Y10524200D01*
X11000000D02*
X11025400Y10549600D01*
X11050800D01*
X11025400Y10575000D01*
X11050800Y10600400D01*
X11025400D01*
X11000000Y10625800D01*
X10974600Y10600400D01*
X10949200D01*
X10974600Y10575000D01*
X10949200Y10549600D01*
X10974600D01*
X11000000Y10524200D01*
X10525000D02*
X10550400Y10549600D01*
X10575800D01*
X10550400Y10575000D01*
X10575800Y10600400D01*
X10550400D01*
X10525000Y10625800D01*
X10499600Y10600400D01*
X10474200D01*
X10499600Y10575000D01*
X10474200Y10549600D01*
X10499600D01*
X10525000Y10524200D01*
X15070000Y8969200D02*
X15095399Y8994600D01*
X15120799D01*
X15095399Y9020000D01*
X15120799Y9045400D01*
X15095399D01*
X15070000Y9070800D01*
X15044600Y9045400D01*
X15019200D01*
X15044600Y9020000D01*
X15019200Y8994600D01*
X15044600D01*
X15070000Y8969200D01*
X15936539Y6124200D02*
X15961938Y6149600D01*
X15987338D01*
X15961938Y6175000D01*
X15987338Y6200400D01*
X15961938D01*
X15936539Y6225800D01*
X15911139Y6200400D01*
X15885739D01*
X15911139Y6175000D01*
X15885739Y6149600D01*
X15911139D01*
X15936539Y6124200D01*
X15681056D02*
X15706456Y6149600D01*
X15731856D01*
X15706456Y6175000D01*
X15731856Y6200400D01*
X15706456D01*
X15681056Y6225800D01*
X15655656Y6200400D01*
X15630257D01*
X15655656Y6175000D01*
X15630257Y6149600D01*
X15655656D01*
X15681056Y6124200D01*
X15175000D02*
X15200400Y6149600D01*
X15225800D01*
X15200400Y6175000D01*
X15225800Y6200400D01*
X15200400D01*
X15175000Y6225800D01*
X15149600Y6200400D01*
X15124200D01*
X15149600Y6175000D01*
X15124200Y6149600D01*
X15149600D01*
X15175000Y6124200D01*
X15425000D02*
X15450400Y6149600D01*
X15475800D01*
X15450400Y6175000D01*
X15475800Y6200400D01*
X15450400D01*
X15425000Y6225800D01*
X15399600Y6200400D01*
X15374200D01*
X15399600Y6175000D01*
X15374200Y6149600D01*
X15399600D01*
X15425000Y6124200D01*
X17500000Y10949200D02*
X17525400Y10974600D01*
X17550800D01*
X17525400Y11000000D01*
X17550800Y11025400D01*
X17525400D01*
X17500000Y11050800D01*
X17474600Y11025400D01*
X17449200D01*
X17474600Y11000000D01*
X17449200Y10974600D01*
X17474600D01*
X17500000Y10949200D01*
X10000000Y6549200D02*
X9949200Y6650800D01*
X10050800D01*
X10000000Y6549200D01*
Y6949200D02*
X9949200Y7050800D01*
X10050800D01*
X10000000Y6949200D01*
X15684770Y8043703D02*
X15710170Y8069103D01*
X15735570D01*
X15710170Y8094503D01*
X15735570Y8119903D01*
X15710170D01*
X15684770Y8145303D01*
X15659370Y8119903D01*
X15633971D01*
X15659370Y8094503D01*
X15633971Y8069103D01*
X15659370D01*
X15684770Y8043703D01*
X15428130Y8046463D02*
X15453529Y8071863D01*
X15478931D01*
X15453529Y8097263D01*
X15478931Y8122663D01*
X15453529D01*
X15428130Y8148063D01*
X15402730Y8122663D01*
X15377330D01*
X15402730Y8097263D01*
X15377330Y8071863D01*
X15402730D01*
X15428130Y8046463D01*
X15175339Y8050605D02*
X15200739Y8076005D01*
X15226138D01*
X15200739Y8101405D01*
X15226138Y8126805D01*
X15200739D01*
X15175339Y8152205D01*
X15149939Y8126805D01*
X15124539D01*
X15149939Y8101405D01*
X15124539Y8076005D01*
X15149939D01*
X15175339Y8050605D01*
X16500000Y8999200D02*
X16525400Y9024600D01*
X16550800D01*
X16525400Y9050000D01*
X16550800Y9075400D01*
X16525400D01*
X16500000Y9100800D01*
X16474600Y9075400D01*
X16449200D01*
X16474600Y9050000D01*
X16449200Y9024600D01*
X16474600D01*
X16500000Y8999200D01*
X16100000D02*
X16125400Y9024600D01*
X16150800D01*
X16125400Y9050000D01*
X16150800Y9075400D01*
X16125400D01*
X16100000Y9100800D01*
X16074600Y9075400D01*
X16049200D01*
X16074600Y9050000D01*
X16049200Y9024600D01*
X16074600D01*
X16100000Y8999200D01*
X9100000Y8049200D02*
X9049200Y8150800D01*
X9150800D01*
X9100000Y8049200D01*
X9950000Y7849200D02*
X9899200Y7950800D01*
X10000800D01*
X9950000Y7849200D01*
X14375000Y8974200D02*
X14400400Y8999600D01*
X14425800D01*
X14400400Y9025000D01*
X14425800Y9050400D01*
X14400400D01*
X14375000Y9075800D01*
X14349600Y9050400D01*
X14324200D01*
X14349600Y9025000D01*
X14324200Y8999600D01*
X14349600D01*
X14375000Y8974200D01*
X13900000D02*
X13925400Y8999600D01*
X13950800D01*
X13925400Y9025000D01*
X13950800Y9050400D01*
X13925400D01*
X13900000Y9075800D01*
X13874600Y9050400D01*
X13849200D01*
X13874600Y9025000D01*
X13849200Y8999600D01*
X13874600D01*
X13900000Y8974200D01*
X15999998Y9747035D02*
X16025398Y9772435D01*
X16050800D01*
X16025398Y9797835D01*
X16050800Y9823235D01*
X16025398D01*
X15999998Y9848635D01*
X15974599Y9823235D01*
X15949199D01*
X15974599Y9797835D01*
X15949199Y9772435D01*
X15974599D01*
X15999998Y9747035D01*
X15549998D02*
X15575398Y9772435D01*
X15600800D01*
X15575398Y9797835D01*
X15600800Y9823235D01*
X15575398D01*
X15549998Y9848635D01*
X15524599Y9823235D01*
X15499199D01*
X15524599Y9797835D01*
X15499199Y9772435D01*
X15524599D01*
X15549998Y9747035D01*
X15100000D02*
X15125400Y9772435D01*
X15150800D01*
X15125400Y9797835D01*
X15150800Y9823235D01*
X15125400D01*
X15100000Y9848635D01*
X15074600Y9823235D01*
X15049200D01*
X15074600Y9797835D01*
X15049200Y9772435D01*
X15074600D01*
X15100000Y9747035D01*
X15850000Y10447035D02*
X15875400Y10472435D01*
X15900800D01*
X15875400Y10497835D01*
X15900800Y10523235D01*
X15875400D01*
X15850000Y10548635D01*
X15824600Y10523235D01*
X15799200D01*
X15824600Y10497835D01*
X15799200Y10472435D01*
X15824600D01*
X15850000Y10447035D01*
X16250000Y10199200D02*
X16275400Y10224600D01*
X16300800D01*
X16275400Y10250000D01*
X16300800Y10275400D01*
X16275400D01*
X16250000Y10300800D01*
X16224600Y10275400D01*
X16199200D01*
X16224600Y10250000D01*
X16199200Y10224600D01*
X16224600D01*
X16250000Y10199200D01*
X15399998Y10447035D02*
X15425398Y10472435D01*
X15450800D01*
X15425398Y10497835D01*
X15450800Y10523235D01*
X15425398D01*
X15399998Y10548635D01*
X15374599Y10523235D01*
X15349199D01*
X15374599Y10497835D01*
X15349199Y10472435D01*
X15374599D01*
X15399998Y10447035D01*
X16150000Y10949200D02*
X16175400Y10974600D01*
X16200800D01*
X16175400Y11000000D01*
X16200800Y11025400D01*
X16175400D01*
X16150000Y11050800D01*
X16124600Y11025400D01*
X16099200D01*
X16124600Y11000000D01*
X16099200Y10974600D01*
X16124600D01*
X16150000Y10949200D01*
X17050000D02*
X17075400Y10974600D01*
X17100800D01*
X17075400Y11000000D01*
X17100800Y11025400D01*
X17075400D01*
X17050000Y11050800D01*
X17024600Y11025400D01*
X16999200D01*
X17024600Y11000000D01*
X16999200Y10974600D01*
X17024600D01*
X17050000Y10949200D01*
X17900000Y11124200D02*
X17849200Y11225800D01*
X17950800D01*
X17900000Y11124200D01*
X16600000Y11499200D02*
X16549200Y11600800D01*
X16650800D01*
X16600000Y11499200D01*
X17100000D02*
X17049200Y11600800D01*
X17150800D01*
X17100000Y11499200D01*
X16200165Y11600419D02*
X16225565Y11625819D01*
X16250964D01*
X16225565Y11651219D01*
X16250964Y11676619D01*
X16225565D01*
X16200165Y11702019D01*
X16174765Y11676619D01*
X16149365D01*
X16174765Y11651219D01*
X16149365Y11625819D01*
X16174765D01*
X16200165Y11600419D01*
X15950165D02*
X15975565Y11625819D01*
X16000964D01*
X15975565Y11651219D01*
X16000964Y11676619D01*
X15975565D01*
X15950165Y11702019D01*
X15924765Y11676619D01*
X15899365D01*
X15924765Y11651219D01*
X15899365Y11625819D01*
X15924765D01*
X15950165Y11600419D01*
X15700165D02*
X15725565Y11625819D01*
X15750964D01*
X15725565Y11651219D01*
X15750964Y11676619D01*
X15725565D01*
X15700165Y11702019D01*
X15674765Y11676619D01*
X15649365D01*
X15674765Y11651219D01*
X15649365Y11625819D01*
X15674765D01*
X15700165Y11600419D01*
X9950165D02*
X9975565Y11625819D01*
X10000965D01*
X9975565Y11651219D01*
X10000965Y11676619D01*
X9975565D01*
X9950165Y11702019D01*
X9924765Y11676619D01*
X9899365D01*
X9924765Y11651219D01*
X9899365Y11625819D01*
X9924765D01*
X9950165Y11600419D01*
X8274200Y6149200D02*
X8299600Y6200000D01*
X8274200Y6250800D01*
X8325000Y6225400D01*
X8375800Y6250800D01*
X8350400Y6200000D01*
X8375800Y6149200D01*
X8325000Y6174600D01*
X8274200Y6149200D01*
X17949200D02*
X17974600Y6200000D01*
X17949200Y6250800D01*
X18000000Y6225400D01*
X18050800Y6250800D01*
X18025400Y6200000D01*
X18050800Y6149200D01*
X18000000Y6174600D01*
X17949200Y6149200D01*
Y11474200D02*
X17974600Y11525000D01*
X17949200Y11575800D01*
X18000000Y11550400D01*
X18050800Y11575800D01*
X18025400Y11525000D01*
X18050800Y11474200D01*
X18000000Y11499600D01*
X17949200Y11474200D01*
X8274200D02*
X8299600Y11525000D01*
X8274200Y11575800D01*
X8325000Y11550400D01*
X8375800Y11575800D01*
X8350400Y11525000D01*
X8375800Y11474200D01*
X8325000Y11499600D01*
X8274200Y11474200D01*
X15150000Y10749200D02*
X15099200Y10850800D01*
X15200800D01*
X15150000Y10749200D01*
X16800000Y6049200D02*
X16749200Y6150800D01*
X16850800D01*
X16800000Y6049200D01*
X18075000Y7999200D02*
X18024200Y8100800D01*
X18125800D01*
X18075000Y7999200D01*
Y7049200D02*
X18024200Y7150800D01*
X18125800D01*
X18075000Y7049200D01*
X11950000Y9099200D02*
X11899200Y9200800D01*
X12000800D01*
X11950000Y9099200D01*
X10980000D02*
X10929200Y9200800D01*
X11030800D01*
X10980000Y9099200D01*
X15100000Y10999200D02*
X15125400Y11024600D01*
X15150800D01*
X15125400Y11050000D01*
X15150800Y11075400D01*
X15125400D01*
X15100000Y11100800D01*
X15074600Y11075400D01*
X15049200D01*
X15074600Y11050000D01*
X15049200Y11024600D01*
X15074600D01*
X15100000Y10999200D01*
X14850000D02*
X14875400Y11024600D01*
X14900800D01*
X14875400Y11050000D01*
X14900800Y11075400D01*
X14875400D01*
X14850000Y11100800D01*
X14824600Y11075400D01*
X14799200D01*
X14824600Y11050000D01*
X14799200Y11024600D01*
X14824600D01*
X14850000Y10999200D01*
X14550000Y11049200D02*
X14575400Y11074600D01*
X14600800D01*
X14575400Y11100000D01*
X14600800Y11125400D01*
X14575400D01*
X14550000Y11150800D01*
X14524600Y11125400D01*
X14499200D01*
X14524600Y11100000D01*
X14499200Y11074600D01*
X14524600D01*
X14550000Y11049200D01*
X14175000Y10999200D02*
X14200400Y11024600D01*
X14225800D01*
X14200400Y11050000D01*
X14225800Y11075400D01*
X14200400D01*
X14175000Y11100800D01*
X14149600Y11075400D01*
X14124200D01*
X14149600Y11050000D01*
X14124200Y11024600D01*
X14149600D01*
X14175000Y10999200D01*
X14780000Y8969200D02*
X14805400Y8994600D01*
X14830800D01*
X14805400Y9020000D01*
X14830800Y9045400D01*
X14805400D01*
X14780000Y9070800D01*
X14754601Y9045400D01*
X14729201D01*
X14754601Y9020000D01*
X14729201Y8994600D01*
X14754601D01*
X14780000Y8969200D01*
X10025000Y10374200D02*
X9974200Y10475800D01*
X10075800D01*
X10025000Y10374200D01*
X11500000Y9099200D02*
X11449200Y9200800D01*
X11550800D01*
X11500000Y9099200D01*
X17725000Y6749200D02*
X17674200Y6850800D01*
X17775800D01*
X17725000Y6749200D01*
X10430000Y9109200D02*
X10379200Y9210800D01*
X10480800D01*
X10430000Y9109200D01*
X17600000Y11499200D02*
X17549200Y11600800D01*
X17650800D01*
X17600000Y11499200D01*
D47*
X13825710Y9453587D02*
G03*
X13825710Y9453587I-50800J0D01*
G01*
X12825800Y9625000D02*
G03*
X12825800Y9625000I-50800J0D01*
G01*
X13700800Y6575000D02*
G03*
X13700800Y6575000I-50800J0D01*
G01*
X12370800Y8336900D02*
G03*
X12370800Y8336900I-50800J0D01*
G01*
X12120800D02*
G03*
X12120800Y8336900I-50800J0D01*
G01*
X12925800Y10050000D02*
G03*
X12925800Y10050000I-50800J0D01*
G01*
X14775800Y10200000D02*
G03*
X14775800Y10200000I-50800J0D01*
G01*
X12375800Y10250000D02*
G03*
X12375800Y10250000I-50800J0D01*
G01*
X9350400Y9049600D02*
G03*
X9350400Y9049600I-50800J0D01*
G01*
X13225800Y7050000D02*
G03*
X13225800Y7050000I-50800J0D01*
G01*
X13100800Y7400000D02*
G03*
X13100800Y7400000I-50800J0D01*
G01*
X15300800Y6650000D02*
G03*
X15300800Y6650000I-50800J0D01*
G01*
X13180800Y9454496D02*
G03*
X13180800Y9454496I-50800J0D01*
G01*
X13119664Y9328296D02*
G03*
X13119664Y9328296I-50800J0D01*
G01*
X13870799Y8510000D02*
G03*
X13870799Y8510000I-50800J0D01*
G01*
X13690800Y8460000D02*
G03*
X13690800Y8460000I-50800J0D01*
G01*
X13570799Y8480000D02*
G03*
X13570799Y8480000I-50800J0D01*
G01*
X13230800Y8550000D02*
G03*
X13230800Y8550000I-50800J0D01*
G01*
X12675800Y8400000D02*
G03*
X12675800Y8400000I-50800J0D01*
G01*
X9980800Y9830000D02*
G03*
X9980800Y9830000I-50800J0D01*
G01*
X12680800Y9680000D02*
G03*
X12680800Y9680000I-50800J0D01*
G01*
Y6513800D02*
G03*
X12680800Y6513800I-50800J0D01*
G01*
X11318300Y6576900D02*
G03*
X11318300Y6576900I-50800J0D01*
G01*
X13064445Y10056354D02*
G03*
X13064445Y10056354I-50800J0D01*
G01*
X13244785Y10438100D02*
G03*
X13244785Y10438100I-50800J0D01*
G01*
X9355400Y7525400D02*
G03*
X9355400Y7525400I-50800J0D01*
G01*
X9436200Y6570000D02*
G03*
X9436200Y6570000I-50800J0D01*
G01*
X10810800Y7536200D02*
G03*
X10810800Y7536200I-50800J0D01*
G01*
X11070800D02*
G03*
X11070800Y7536200I-50800J0D01*
G01*
X11318300Y7405400D02*
G03*
X11318300Y7405400I-50800J0D01*
G01*
X13124846Y11052520D02*
G03*
X13124846Y11052520I-50800J0D01*
G01*
X14640800Y10450000D02*
G03*
X14640800Y10450000I-50800J0D01*
G01*
X13820799Y10360000D02*
G03*
X13820799Y10360000I-50800J0D01*
G01*
X13690800Y10290000D02*
G03*
X13690800Y10290000I-50800J0D01*
G01*
X13570799Y10300000D02*
G03*
X13570799Y10300000I-50800J0D01*
G01*
X13120799Y10850000D02*
G03*
X13120799Y10850000I-50800J0D01*
G01*
X13060800Y11010000D02*
G03*
X13060800Y11010000I-50800J0D01*
G01*
X9340800Y11070000D02*
G03*
X9340800Y11070000I-50800J0D01*
G01*
X9427671Y10125426D02*
G03*
X9427671Y10125426I-50800J0D01*
G01*
X9430800Y8790000D02*
G03*
X9430800Y8790000I-50800J0D01*
G01*
X14080800Y11141153D02*
G03*
X14080800Y11141153I-50800J0D01*
G01*
X15270799Y10970000D02*
G03*
X15270799Y10970000I-50800J0D01*
G01*
X15510800D02*
G03*
X15510800Y10970000I-50800J0D01*
G01*
X12450800Y11150000D02*
G03*
X12450800Y11150000I-50800J0D01*
G01*
X9430800Y8220000D02*
G03*
X9430800Y8220000I-50800J0D01*
G01*
X13225800Y6700000D02*
G03*
X13225800Y6700000I-50800J0D01*
G01*
X17970799Y8250000D02*
G03*
X17970799Y8250000I-50800J0D01*
G01*
X17977510Y8725780D02*
G03*
X17977510Y8725780I-50800J0D01*
G01*
X13311800Y9063100D02*
G03*
X13311800Y9063100I-50800J0D01*
G01*
X9981838Y9050149D02*
G03*
X9981838Y9050149I-50800J0D01*
G01*
X9250800Y11150000D02*
G03*
X9250800Y11150000I-50800J0D01*
G01*
X9355400Y8236407D02*
G03*
X9355400Y8236407I-50800J0D01*
G01*
X15818477Y8261588D02*
G03*
X15818477Y8261588I-50800J0D01*
G01*
X15282076Y8572872D02*
G03*
X15282076Y8572872I-50800J0D01*
G01*
X15360800Y8420000D02*
G03*
X15360800Y8420000I-50800J0D01*
G01*
X14025800Y8575000D02*
G03*
X14025800Y8575000I-50800J0D01*
G01*
X17730675Y8929828D02*
G03*
X17730675Y8929828I-50800J0D01*
G01*
X18000800Y8850000D02*
G03*
X18000800Y8850000I-50800J0D01*
G01*
X11318300Y8490000D02*
G03*
X11318300Y8490000I-50800J0D01*
G01*
X13693877Y11289337D02*
G03*
X13693877Y11289337I-50800J0D01*
G01*
X11325800Y10376200D02*
G03*
X11325800Y10376200I-50800J0D01*
G01*
X12376467Y6291931D02*
G03*
X12376467Y6291931I-50800J0D01*
G01*
X12675800Y11638100D02*
G03*
X12675800Y11638100I-50800J0D01*
G01*
X12810800Y11530900D02*
G03*
X12810800Y11530900I-50800J0D01*
G01*
X12685800Y10311900D02*
G03*
X12685800Y10311900I-50800J0D01*
G01*
X14910800Y10395000D02*
G03*
X14910800Y10395000I-50800J0D01*
G01*
X13723300Y10990000D02*
G03*
X13723300Y10990000I-50800J0D01*
G01*
X13853300Y10987500D02*
G03*
X13853300Y10987500I-50800J0D01*
G01*
X13600800Y6155000D02*
G03*
X13600800Y6155000I-50800J0D01*
G01*
X14850800Y6400000D02*
G03*
X14850800Y6400000I-50800J0D01*
G01*
X12550800Y6446900D02*
G03*
X12550800Y6446900I-50800J0D01*
G01*
X13823300Y6636900D02*
G03*
X13823300Y6636900I-50800J0D01*
G01*
X10810800Y11350000D02*
G03*
X10810800Y11350000I-50800J0D01*
G01*
X13311800Y7153100D02*
G03*
X13311800Y7153100I-50800J0D01*
G01*
X13310800Y10970000D02*
G03*
X13310800Y10970000I-50800J0D01*
G01*
X13820799Y11353900D02*
G03*
X13820799Y11353900I-50800J0D01*
G01*
X11319550Y11225400D02*
G03*
X11319550Y11225400I-50800J0D01*
G01*
X13047264Y8143536D02*
G03*
X13047264Y8143536I-50800J0D01*
G01*
X15860800Y7520000D02*
G03*
X15860800Y7520000I-50800J0D01*
G01*
X16120799D02*
G03*
X16120799Y7520000I-50800J0D01*
G01*
X15350800Y7490000D02*
G03*
X15350800Y7490000I-50800J0D01*
G01*
X13692300Y7483100D02*
G03*
X13692300Y7483100I-50800J0D01*
G01*
X13820799Y7533900D02*
G03*
X13820799Y7533900I-50800J0D01*
G01*
X13180800D02*
G03*
X13180800Y7533900I-50800J0D01*
G01*
X12810800Y7710900D02*
G03*
X12810800Y7710900I-50800J0D01*
G01*
X12680800Y7836900D02*
G03*
X12680800Y7836900I-50800J0D01*
G01*
X15610800Y6440000D02*
G03*
X15610800Y6440000I-50800J0D01*
G01*
X15860800Y6360000D02*
G03*
X15860800Y6360000I-50800J0D01*
G01*
X15608299Y7387500D02*
G03*
X15608299Y7387500I-50800J0D01*
G01*
X14698300Y6725000D02*
G03*
X14698300Y6725000I-50800J0D01*
G01*
X13485800Y7207500D02*
G03*
X13485800Y7207500I-50800J0D01*
G01*
X13570799Y6605000D02*
G03*
X13570799Y6605000I-50800J0D01*
G01*
X15353300Y7237500D02*
G03*
X15353300Y7237500I-50800J0D01*
G01*
X14910800Y6575000D02*
G03*
X14910800Y6575000I-50800J0D01*
G01*
X13047264Y6233536D02*
G03*
X13047264Y6233536I-50800J0D01*
G01*
X12925800Y6188700D02*
G03*
X12925800Y6188700I-50800J0D01*
G01*
X15360800Y6510000D02*
G03*
X15360800Y6510000I-50800J0D01*
G01*
X10810800Y9440000D02*
G03*
X10810800Y9440000I-50800J0D01*
G01*
X15860800Y9430000D02*
G03*
X15860800Y9430000I-50800J0D01*
G01*
X16120799D02*
G03*
X16120799Y9430000I-50800J0D01*
G01*
X15350800Y9400000D02*
G03*
X15350800Y9400000I-50800J0D01*
G01*
X13692300Y9393100D02*
G03*
X13692300Y9393100I-50800J0D01*
G01*
X11070800Y9443900D02*
G03*
X11070800Y9443900I-50800J0D01*
G01*
X15610800Y8350000D02*
G03*
X15610800Y8350000I-50800J0D01*
G01*
X15608299Y9297500D02*
G03*
X15608299Y9297500I-50800J0D01*
G01*
X11318300Y9300000D02*
G03*
X11318300Y9300000I-50800J0D01*
G01*
X13485800Y9117500D02*
G03*
X13485800Y9117500I-50800J0D01*
G01*
X15353300Y9147500D02*
G03*
X15353300Y9147500I-50800J0D01*
G01*
X13600800Y8065000D02*
G03*
X13600800Y8065000I-50800J0D01*
G01*
X12925800Y8098700D02*
G03*
X12925800Y8098700I-50800J0D01*
G01*
X12375800Y8200300D02*
G03*
X12375800Y8200300I-50800J0D01*
G01*
X13600800Y9975000D02*
G03*
X13600800Y9975000I-50800J0D01*
G01*
X15353300Y11057500D02*
G03*
X15353300Y11057500I-50800J0D01*
G01*
X13485800Y11027500D02*
G03*
X13485800Y11027500I-50800J0D01*
G01*
X15608299Y11207500D02*
G03*
X15608299Y11207500I-50800J0D01*
G01*
X15860800Y10180000D02*
G03*
X15860800Y10180000I-50800J0D01*
G01*
X15610800Y10260000D02*
G03*
X15610800Y10260000I-50800J0D01*
G01*
X13180800Y11353900D02*
G03*
X13180800Y11353900I-50800J0D01*
G01*
X11070800D02*
G03*
X11070800Y11353900I-50800J0D01*
G01*
X15350800Y11310000D02*
G03*
X15350800Y11310000I-50800J0D01*
G01*
X16120799Y11340000D02*
G03*
X16120799Y11340000I-50800J0D01*
G01*
X15860800D02*
G03*
X15860800Y11340000I-50800J0D01*
G01*
%TF.MD5,cdd4058fd2dcb31a9bfda5aba1965341*%
M02*
