%TF.GenerationSoftware,Altium Limited,Altium Designer,21.8.1 (53)*%
G04 Layer_Color=16711935*
%FSLAX45Y45*%
%MOMM*%
%TF.SameCoordinates,046F884E-5673-4B57-908A-D09F833A34A9*%
%TF.FilePolarity,Negative*%
%TF.FileFunction,Soldermask,Bot*%
%TF.Part,Single*%
G01*
G75*
%TA.AperFunction,SMDPad,CuDef*%
%ADD27R,0.84320X0.80320*%
%ADD28R,0.95320X0.80320*%
%ADD29O,0.80320X1.70320*%
%ADD30R,0.80320X1.70320*%
%ADD31R,0.80320X0.84320*%
%ADD32R,0.84320X0.70320*%
%TA.AperFunction,ConnectorPad*%
%ADD33R,2.20320X1.00320*%
%ADD34R,1.00320X2.20320*%
%TA.AperFunction,ComponentPad*%
%ADD35C,1.30320*%
%TA.AperFunction,ViaPad*%
%ADD36C,3.20320*%
G36*
X8510000Y11330000D02*
X8110000D01*
Y11730000D01*
X8510000D01*
Y11330000D01*
D02*
G37*
G36*
X8522677Y7476724D02*
X8525246D01*
Y7353383D01*
Y7350814D01*
Y7319979D01*
X8491842D01*
Y7322548D01*
X8494411D01*
Y7384218D01*
X8476424D01*
Y7381649D01*
X8473855D01*
Y7379079D01*
X8471285D01*
Y7376510D01*
X8468715D01*
Y7371371D01*
X8466146D01*
Y7368801D01*
X8463576D01*
Y7366231D01*
X8461006D01*
Y7361092D01*
X8455867D01*
Y7355953D01*
X8453298D01*
Y7353383D01*
X8450728D01*
Y7348244D01*
X8448159D01*
Y7345675D01*
X8445589D01*
Y7343105D01*
X8443019D01*
Y7337966D01*
X8437880D01*
Y7332827D01*
X8435311D01*
Y7330257D01*
X8432741D01*
Y7325118D01*
X8430171D01*
Y7322548D01*
X8427602D01*
Y7319979D01*
X8391628D01*
Y7322548D01*
X8394197D01*
Y7325118D01*
X8396767D01*
Y7327687D01*
X8399336D01*
Y7330257D01*
X8401906D01*
Y7335396D01*
X8404475D01*
Y7337966D01*
X8407045D01*
Y7340535D01*
X8409615D01*
Y7345675D01*
X8412184D01*
Y7348244D01*
X8414754D01*
Y7350814D01*
X8417324D01*
Y7353383D01*
X8419893D01*
Y7358522D01*
X8422463D01*
Y7361092D01*
X8425032D01*
Y7366231D01*
X8427602D01*
Y7368801D01*
X8430171D01*
Y7371371D01*
X8432741D01*
Y7376510D01*
X8435311D01*
Y7379079D01*
X8437880D01*
Y7381649D01*
X8440450D01*
Y7384218D01*
X8443019D01*
Y7389358D01*
X8445589D01*
Y7391927D01*
X8448159D01*
Y7394497D01*
X8450728D01*
Y7399636D01*
X8453298D01*
Y7404775D01*
X8450728D01*
Y7407345D01*
X8448159D01*
Y7412484D01*
X8445589D01*
Y7415054D01*
X8443019D01*
Y7417623D01*
X8440450D01*
Y7420193D01*
X8437880D01*
Y7425332D01*
X8435311D01*
Y7427902D01*
X8432741D01*
Y7433041D01*
X8430171D01*
Y7435610D01*
X8427602D01*
Y7438180D01*
X8425032D01*
Y7443319D01*
X8422463D01*
Y7445889D01*
X8419893D01*
Y7451028D01*
X8417324D01*
Y7453597D01*
X8414754D01*
Y7456167D01*
X8412184D01*
Y7461306D01*
X8409615D01*
Y7463876D01*
X8407045D01*
Y7466446D01*
X8404475D01*
Y7471585D01*
X8401906D01*
Y7474154D01*
X8399336D01*
Y7476724D01*
X8396767D01*
Y7479293D01*
X8432741D01*
Y7476724D01*
X8435311D01*
Y7471585D01*
X8437880D01*
Y7469015D01*
X8440450D01*
Y7466446D01*
X8443019D01*
Y7461306D01*
X8445589D01*
Y7458737D01*
X8448159D01*
Y7456167D01*
X8450728D01*
Y7451028D01*
X8453298D01*
Y7448458D01*
X8455867D01*
Y7443319D01*
X8458437D01*
Y7440750D01*
X8461006D01*
Y7438180D01*
X8463576D01*
Y7433041D01*
X8466146D01*
Y7430471D01*
X8468715D01*
Y7427902D01*
X8471285D01*
Y7422762D01*
X8473855D01*
Y7420193D01*
X8476424D01*
Y7417623D01*
X8478994D01*
Y7412484D01*
X8491842D01*
Y7415054D01*
X8494411D01*
Y7479293D01*
X8522677D01*
Y7476724D01*
D02*
G37*
G36*
X8383919Y7451028D02*
X8332527D01*
Y7319979D01*
X8301692D01*
Y7451028D01*
X8252869D01*
Y7453597D01*
X8250300D01*
Y7479293D01*
X8383919D01*
Y7451028D01*
D02*
G37*
G36*
X8520000Y5990000D02*
X8120000D01*
Y6390000D01*
X8520000D01*
Y5990000D01*
D02*
G37*
G36*
X8771927Y7471585D02*
X8779636D01*
Y7469015D01*
X8789914D01*
Y7466446D01*
X8797623D01*
Y7463876D01*
X8802762D01*
Y7461306D01*
X8807902D01*
Y7458737D01*
X8813041D01*
Y7456167D01*
X8815610D01*
Y7453597D01*
X8818180D01*
Y7451028D01*
X8820749D01*
Y7448458D01*
X8823319D01*
Y7445889D01*
X8825889D01*
Y7443319D01*
X8828458D01*
Y7438180D01*
X8831028D01*
Y7433041D01*
X8833598D01*
Y7425332D01*
X8836167D01*
Y7415054D01*
X8838737D01*
Y7412484D01*
Y7384218D01*
X8836167D01*
Y7376510D01*
X8833598D01*
Y7368801D01*
X8831028D01*
Y7363662D01*
X8828458D01*
Y7361092D01*
X8825889D01*
Y7355953D01*
X8823319D01*
Y7353383D01*
X8820749D01*
Y7350814D01*
X8818180D01*
Y7348244D01*
X8815610D01*
Y7345675D01*
X8813041D01*
Y7343105D01*
X8805332D01*
Y7340535D01*
X8802762D01*
Y7337966D01*
X8795054D01*
Y7335396D01*
X8787345D01*
Y7332827D01*
X8777067D01*
Y7330257D01*
X8771927D01*
Y7312270D01*
X8741092D01*
Y7330257D01*
X8738523D01*
Y7332827D01*
X8723105D01*
Y7335396D01*
X8717966D01*
Y7337966D01*
X8710257D01*
Y7340535D01*
X8707687D01*
Y7343105D01*
X8699979D01*
Y7345675D01*
X8697409D01*
Y7348244D01*
X8694840D01*
Y7350814D01*
X8692270D01*
Y7353383D01*
X8689700D01*
Y7355953D01*
X8687131D01*
Y7361092D01*
X8684561D01*
Y7363662D01*
X8681992D01*
Y7368801D01*
X8679422D01*
Y7376510D01*
X8676852D01*
Y7389358D01*
X8674283D01*
Y7412484D01*
X8676852D01*
Y7425332D01*
X8679422D01*
Y7433041D01*
X8681992D01*
Y7438180D01*
X8684561D01*
Y7443319D01*
X8687131D01*
Y7445889D01*
X8689700D01*
Y7448458D01*
X8692270D01*
Y7451028D01*
X8694840D01*
Y7453597D01*
X8697409D01*
Y7456167D01*
X8699979D01*
Y7458737D01*
X8705118D01*
Y7461306D01*
X8710257D01*
Y7463876D01*
X8715396D01*
Y7466446D01*
X8723105D01*
Y7469015D01*
X8733383D01*
Y7471585D01*
X8741092D01*
Y7492141D01*
X8771927D01*
Y7471585D01*
D02*
G37*
G36*
X8969786Y7476724D02*
X8972355D01*
Y7404775D01*
Y7402206D01*
Y7319979D01*
X8938951D01*
Y7371371D01*
X8895268D01*
Y7373940D01*
X8887559D01*
Y7376510D01*
X8879850D01*
Y7379079D01*
X8877281D01*
Y7381649D01*
X8872142D01*
Y7384218D01*
X8869572D01*
Y7386788D01*
X8867002D01*
Y7389358D01*
X8864433D01*
Y7391927D01*
X8861863D01*
Y7397066D01*
X8859293D01*
Y7402206D01*
X8856724D01*
Y7407345D01*
X8854154D01*
Y7422762D01*
X8851585D01*
Y7430471D01*
X8854154D01*
Y7443319D01*
X8856724D01*
Y7448458D01*
X8859293D01*
Y7453597D01*
X8861863D01*
Y7458737D01*
X8864433D01*
Y7461306D01*
X8867002D01*
Y7463876D01*
X8869572D01*
Y7466446D01*
X8872142D01*
Y7469015D01*
X8874711D01*
Y7471585D01*
X8879850D01*
Y7474154D01*
X8884989D01*
Y7476724D01*
X8892698D01*
Y7479293D01*
X8969786D01*
Y7476724D01*
D02*
G37*
G36*
X16043456Y9196965D02*
X16043108Y9197313D01*
X16042644Y9197545D01*
X16040326Y9199168D01*
X16039862Y9199399D01*
X16038586Y9200443D01*
X16037776Y9201022D01*
X16037080Y9201717D01*
X16036617Y9201949D01*
X16036269Y9202297D01*
X16036153Y9202645D01*
X16035690Y9202877D01*
X16035110Y9203456D01*
X16034995Y9203804D01*
X16034531Y9204036D01*
X16033951Y9204847D01*
X16033603Y9205195D01*
X16033139Y9205427D01*
X16032677Y9206122D01*
X16032211Y9206354D01*
X16023402Y9215163D01*
X16022939Y9215395D01*
X16022707Y9215859D01*
X16022244Y9216091D01*
X16019926Y9218409D01*
X16019463Y9218641D01*
X16017143Y9220959D01*
X16016679Y9221191D01*
X16016100Y9221770D01*
X16015984Y9222118D01*
X16015521Y9222350D01*
X16013666Y9224205D01*
X16013203Y9224436D01*
X16012740Y9225132D01*
X16012276Y9225364D01*
X16010422Y9227218D01*
X16009956Y9227450D01*
X16009377Y9228261D01*
X16008566Y9228841D01*
X16006480Y9230927D01*
X16006133Y9231043D01*
X16006017Y9231391D01*
X16005553Y9231623D01*
X16005205Y9231971D01*
X16004973Y9232434D01*
X16003931Y9233477D01*
X16003465Y9233709D01*
X16000916Y9236259D01*
X16000452Y9236491D01*
X15999525Y9237418D01*
X15999062Y9237650D01*
X15998714Y9237998D01*
X15998482Y9238462D01*
X15996510Y9240432D01*
X15996048Y9240664D01*
X15995004Y9241707D01*
X15994888Y9242055D01*
X15994424Y9242287D01*
X15993845Y9242866D01*
X15993613Y9243330D01*
X15992802Y9244141D01*
X15992339Y9244373D01*
X15991295Y9245416D01*
X15991527Y9246575D01*
X15992107Y9247155D01*
X15993266Y9247850D01*
X15997208Y9250632D01*
X15997670Y9250864D01*
X15998134Y9251328D01*
X15998598Y9251560D01*
X16001495Y9253530D01*
X16001959Y9254457D01*
X16001263Y9255616D01*
X16000916Y9255964D01*
X16000452Y9256196D01*
X15994888Y9261760D01*
X15994540Y9261876D01*
X15994308Y9262339D01*
X15991875Y9264774D01*
X15991411Y9265005D01*
X15990833Y9265585D01*
X15990601Y9266049D01*
X15989093Y9267556D01*
X15988629Y9267787D01*
X15988399Y9268251D01*
X15987933Y9268483D01*
X15985036Y9271380D01*
X15984920Y9271728D01*
X15984456Y9271960D01*
X15980284Y9276133D01*
X15979936Y9276249D01*
X15979704Y9276712D01*
X15976575Y9279842D01*
X15976111Y9280074D01*
X15975069Y9281117D01*
X15974837Y9281581D01*
X15974023Y9282160D01*
X15967186Y9288999D01*
X15967070Y9289347D01*
X15966606Y9289579D01*
X15965215Y9290970D01*
X15964751Y9291201D01*
X15964172Y9291781D01*
X15963940Y9292245D01*
X15963013Y9293172D01*
X15962781Y9293636D01*
X15959537Y9296881D01*
X15959419Y9297229D01*
X15958955Y9297461D01*
X15958376Y9298040D01*
X15958145Y9298504D01*
X15954552Y9302097D01*
X15954204Y9302213D01*
X15953972Y9302677D01*
X15953624Y9303025D01*
X15953160Y9303256D01*
X15950958Y9305459D01*
X15950726Y9305922D01*
X15950146Y9306502D01*
X15949683Y9306734D01*
X15946437Y9309979D01*
X15945975Y9310211D01*
X15944351Y9311834D01*
X15943887Y9312066D01*
X15942496Y9313457D01*
X15942033Y9313688D01*
X15941685Y9314036D01*
X15941454Y9314500D01*
X15940410Y9315543D01*
X15939946Y9315775D01*
X15939368Y9316354D01*
X15939136Y9316818D01*
X15938322Y9317629D01*
X15937860Y9317861D01*
X15936932Y9318789D01*
X15936584Y9318904D01*
X15936353Y9319368D01*
X15934846Y9320875D01*
X15934383Y9321107D01*
X15933803Y9321686D01*
X15933687Y9322034D01*
X15933223Y9322266D01*
X15929977Y9325511D01*
X15929514Y9325743D01*
X15928935Y9326323D01*
X15928703Y9326787D01*
X15928008Y9327482D01*
X15927544Y9328641D01*
X15927312Y9331423D01*
X15927080Y9332118D01*
X15926617Y9334900D01*
X15926270Y9340348D01*
X15926038Y9344289D01*
X15925574Y9346607D01*
X15925342Y9348462D01*
X15924878Y9355185D01*
X15924646Y9358894D01*
X15924414Y9359821D01*
X15924182Y9361212D01*
X15924066Y9362024D01*
X15924298Y9362719D01*
X15924066Y9365733D01*
X15923836Y9366660D01*
X15923602Y9370369D01*
X15923370Y9371065D01*
X15923138Y9374310D01*
X15922906Y9375006D01*
X15923138Y9378715D01*
X15923718Y9378831D01*
X15926385Y9376165D01*
X15926617Y9375701D01*
X15927428Y9375122D01*
X15931369Y9371181D01*
X15931831Y9370949D01*
X15932179Y9370601D01*
X15932413Y9370137D01*
X15932761Y9369790D01*
X15933223Y9369558D01*
X15934267Y9368515D01*
X15934499Y9368051D01*
X15934846Y9367703D01*
X15935310Y9367471D01*
X15936121Y9366660D01*
X15936353Y9366196D01*
X15936932Y9365617D01*
X15937396Y9365385D01*
X15938208Y9364574D01*
X15938670Y9363415D01*
X15938902Y9359242D01*
X15939368Y9358083D01*
X15939600Y9355069D01*
X15940062Y9350432D01*
X15940294Y9349737D01*
X15940526Y9345564D01*
X15940758Y9344869D01*
X15940990Y9340464D01*
X15941685Y9337682D01*
X15941917Y9333046D01*
X15943076Y9330959D01*
X15943771Y9330264D01*
X15944003Y9329800D01*
X15944467Y9329336D01*
X15944699Y9328873D01*
X15946207Y9327366D01*
X15946669Y9327134D01*
X15948756Y9325511D01*
X15951884Y9322382D01*
X15952116Y9321918D01*
X15952464Y9321338D01*
X15952928Y9321107D01*
X15954204Y9320064D01*
X15954552Y9319716D01*
X15955016Y9319484D01*
X15955942Y9318557D01*
X15956406Y9318325D01*
X15957101Y9317629D01*
X15957565Y9317398D01*
X15957913Y9317050D01*
X15958145Y9316586D01*
X15958723Y9316007D01*
X15959187Y9315775D01*
X15959767Y9314963D01*
X15961041Y9313688D01*
X15961391Y9313572D01*
X15961623Y9313109D01*
X15962549Y9312182D01*
X15962781Y9311718D01*
X15963708Y9310095D01*
X15965099Y9309168D01*
X15965678Y9308588D01*
X15966142Y9308357D01*
X15967648Y9306850D01*
X15967880Y9306386D01*
X15968692Y9305806D01*
X15969736Y9304763D01*
X15969968Y9304299D01*
X15970779Y9303720D01*
X15971822Y9302677D01*
X15972054Y9302213D01*
X15972865Y9301634D01*
X15974719Y9299779D01*
X15975069Y9299663D01*
X15975301Y9299199D01*
X15982602Y9291897D01*
X15983066Y9291665D01*
X15991643Y9283088D01*
X15992107Y9282856D01*
X15992686Y9282044D01*
X15993498Y9281465D01*
X15994308Y9280654D01*
X15994540Y9280190D01*
X15995120Y9279610D01*
X15995584Y9279378D01*
X16000105Y9274858D01*
X16000220Y9274510D01*
X16000684Y9274278D01*
X16004163Y9270801D01*
X16004625Y9270569D01*
X16006364Y9268831D01*
X16006596Y9268367D01*
X16007407Y9267556D01*
X16007870Y9267324D01*
X16009840Y9265353D01*
X16010072Y9264890D01*
X16010884Y9264310D01*
X16011232Y9263962D01*
X16011464Y9263499D01*
X16012856Y9262571D01*
X16013203Y9262224D01*
X16014362Y9262455D01*
X16015984Y9263614D01*
X16016447Y9263846D01*
X16018765Y9265469D01*
X16019231Y9265701D01*
X16019695Y9266165D01*
X16020853Y9266860D01*
X16025722Y9270337D01*
X16026186Y9270569D01*
X16026880Y9270801D01*
X16028040Y9270569D01*
X16034415Y9264194D01*
X16034647Y9263730D01*
X16035458Y9262919D01*
X16035921Y9262687D01*
X16036153Y9262224D01*
X16036617Y9261992D01*
X16037196Y9261412D01*
X16037428Y9260948D01*
X16039166Y9259210D01*
X16039516Y9259094D01*
X16039746Y9258630D01*
X16042644Y9255733D01*
X16043108Y9255501D01*
X16044383Y9254226D01*
X16044615Y9253762D01*
X16045773Y9252603D01*
X16045889Y9252255D01*
X16046353Y9252023D01*
X16046817Y9251560D01*
X16047281Y9251328D01*
X16047861Y9250516D01*
X16050874Y9247503D01*
X16051106Y9247039D01*
X16052032Y9245648D01*
X16052728Y9244489D01*
X16053540Y9243909D01*
X16054700Y9242750D01*
X16055164Y9242518D01*
X16058408Y9239273D01*
X16058871Y9239041D01*
X16059683Y9238230D01*
X16059915Y9237766D01*
X16060727Y9237187D01*
X16061887Y9236028D01*
X16062233Y9235911D01*
X16062465Y9235448D01*
X16063277Y9234637D01*
X16063741Y9234405D01*
X16068028Y9230116D01*
X16068262Y9229652D01*
X16068608Y9229305D01*
X16069072Y9229073D01*
X16069536Y9228609D01*
X16070000Y9228377D01*
X16070464Y9227682D01*
X16070927Y9227450D01*
X16072202Y9226175D01*
X16072433Y9225711D01*
X16072781Y9225364D01*
X16073245Y9225132D01*
X16074635Y9223741D01*
X16074985Y9223625D01*
X16075217Y9223161D01*
X16075911Y9222466D01*
X16076027Y9222118D01*
X16076491Y9221886D01*
X16079620Y9218757D01*
X16079852Y9218293D01*
X16080894Y9217250D01*
X16081358Y9217018D01*
X16083096Y9215279D01*
X16083328Y9214816D01*
X16083678Y9214468D01*
X16084142Y9214236D01*
X16087502Y9210875D01*
X16087733Y9210411D01*
X16088545Y9209600D01*
X16089009Y9209368D01*
X16090285Y9208093D01*
X16090517Y9207629D01*
X16091211Y9206934D01*
X16091327Y9206586D01*
X16091791Y9206354D01*
X16093182Y9204963D01*
X16093645Y9204731D01*
X16094225Y9203920D01*
X16094572Y9203572D01*
X16095036Y9203340D01*
X16095616Y9202529D01*
X16107323Y9190822D01*
X16107787Y9190590D01*
X16116595Y9181781D01*
X16117059Y9181549D01*
X16117407Y9181201D01*
X16117639Y9180738D01*
X16121696Y9176681D01*
X16122044Y9176565D01*
X16122276Y9176101D01*
X16124014Y9174362D01*
X16124478Y9174130D01*
X16130621Y9167987D01*
X16130737Y9167640D01*
X16131201Y9167408D01*
X16132591Y9166017D01*
X16132941Y9165901D01*
X16133171Y9165437D01*
X16136069Y9162539D01*
X16136417Y9162423D01*
X16136649Y9161960D01*
X16140474Y9158135D01*
X16140820Y9158019D01*
X16141052Y9157555D01*
X16143719Y9154889D01*
X16144067Y9154773D01*
X16144299Y9154310D01*
X16144647Y9153962D01*
X16145110Y9153730D01*
X16145457Y9153382D01*
X16145689Y9152919D01*
X16146501Y9152107D01*
X16146965Y9151876D01*
X16147313Y9151528D01*
X16147545Y9151064D01*
X16147893Y9150716D01*
X16148357Y9150485D01*
X16148705Y9150137D01*
X16148935Y9149673D01*
X16151370Y9147239D01*
X16151833Y9147007D01*
X16152412Y9146196D01*
X16153340Y9145268D01*
X16153572Y9144805D01*
X16154382Y9144225D01*
X16156354Y9142255D01*
X16156586Y9141791D01*
X16157050Y9141327D01*
X16157281Y9140864D01*
X16158556Y9139589D01*
X16159019Y9139357D01*
X16162845Y9135532D01*
X16163077Y9135068D01*
X16163541Y9134605D01*
X16163773Y9134141D01*
X16165395Y9132518D01*
X16165627Y9132055D01*
X16166206Y9131475D01*
X16166670Y9131243D01*
X16167249Y9130664D01*
X16167480Y9130200D01*
X16168524Y9128925D01*
X16173393Y9124057D01*
X16173856Y9123825D01*
X16175595Y9122086D01*
X16175711Y9121738D01*
X16176059Y9121623D01*
X16176289Y9121159D01*
X16177103Y9120348D01*
X16177567Y9120116D01*
X16179768Y9117913D01*
X16180000Y9117450D01*
X16180811Y9116638D01*
X16181274Y9116406D01*
X16186839Y9110843D01*
X16187302Y9110611D01*
X16187881Y9110031D01*
X16188113Y9109568D01*
X16189157Y9108524D01*
X16189619Y9108293D01*
X16189967Y9107945D01*
X16190199Y9107481D01*
X16191011Y9106902D01*
X16191475Y9106206D01*
X16191939Y9105974D01*
X16194952Y9102961D01*
X16195416Y9102729D01*
X16199126Y9099020D01*
X16199590Y9098788D01*
X16201443Y9096933D01*
X16201791Y9096817D01*
X16202023Y9096354D01*
X16207123Y9091254D01*
X16207355Y9090790D01*
X16209557Y9088588D01*
X16209904Y9088472D01*
X16210136Y9088008D01*
X16216743Y9081401D01*
X16217207Y9081169D01*
X16217787Y9080358D01*
X16219411Y9078735D01*
X16219643Y9078271D01*
X16220221Y9077692D01*
X16220685Y9077460D01*
X16224394Y9073751D01*
X16224858Y9073519D01*
X16225436Y9072939D01*
X16225668Y9072476D01*
X16226248Y9071896D01*
X16226596Y9071780D01*
X16226828Y9071317D01*
X16232971Y9065173D01*
X16233435Y9064941D01*
X16233899Y9064246D01*
X16234363Y9064014D01*
X16234711Y9063667D01*
X16234943Y9063203D01*
X16235291Y9062855D01*
X16235753Y9062623D01*
X16242244Y9056132D01*
X16243056Y9056016D01*
X16244563Y9056828D01*
X16245837Y9057407D01*
X16245953Y9057755D01*
X16249895Y9059841D01*
X16252213Y9061464D01*
X16253372Y9062160D01*
X16253836Y9062623D01*
X16255458Y9063551D01*
X16256154Y9064246D01*
X16256618Y9064478D01*
X16257082Y9064941D01*
X16257545Y9065173D01*
X16258936Y9066101D01*
X16259399Y9066333D01*
X16261021Y9067492D01*
X16261949Y9067724D01*
X16264963Y9064710D01*
X16265775Y9064362D01*
X16266006Y9063898D01*
X16266702Y9063203D01*
X16266470Y9061812D01*
X16265775Y9061348D01*
X16265543Y9060885D01*
X16265195Y9060537D01*
X16263573Y9060305D01*
X16262993Y9059494D01*
X16262529Y9059262D01*
X16262297Y9058798D01*
X16261719Y9058219D01*
X16261369Y9058103D01*
X16261137Y9057639D01*
X16260559Y9057060D01*
X16260211Y9056944D01*
X16259979Y9056480D01*
X16259399Y9055900D01*
X16259052Y9055785D01*
X16258820Y9055321D01*
X16258472Y9054973D01*
X16258124Y9054857D01*
X16257893Y9054394D01*
X16257314Y9053814D01*
X16255806Y9053698D01*
X16255574Y9053235D01*
X16250011Y9047671D01*
X16249895Y9047323D01*
X16248967Y9047091D01*
X16248505Y9047323D01*
X16247691Y9046511D01*
X16247575Y9046164D01*
X16247113Y9045932D01*
X16243288Y9042107D01*
X16243172Y9041759D01*
X16242476Y9041528D01*
X16241782Y9041759D01*
X16241200Y9041180D01*
X16240968Y9040716D01*
X16239578Y9039557D01*
X16238882Y9038862D01*
X16238651Y9038398D01*
X16237724Y9037702D01*
X16237492Y9037239D01*
X16236565Y9036543D01*
X16236449Y9036196D01*
X16235985Y9035964D01*
X16235637Y9035616D01*
X16235406Y9035152D01*
X16234595Y9034573D01*
X16234131Y9033877D01*
X16233667Y9033645D01*
X16233319Y9033298D01*
X16233087Y9032834D01*
X16231349Y9032486D01*
X16230769Y9031675D01*
X16230074Y9031211D01*
X16229842Y9030747D01*
X16229494Y9030400D01*
X16229031Y9030168D01*
X16228568Y9029473D01*
X16228104Y9029241D01*
X16227756Y9028893D01*
X16227524Y9028429D01*
X16226828Y9027966D01*
X16226596Y9027502D01*
X16226248Y9027154D01*
X16225784Y9026923D01*
X16225089Y9025995D01*
X16223466Y9025764D01*
X16222771Y9024836D01*
X16222423Y9024720D01*
X16222192Y9024257D01*
X16221613Y9023677D01*
X16221265Y9023561D01*
X16221033Y9023098D01*
X16220453Y9022518D01*
X16220105Y9022402D01*
X16219873Y9021938D01*
X16219527Y9021591D01*
X16219061Y9021359D01*
X16218481Y9020547D01*
X16218019Y9020315D01*
X16217787Y9019852D01*
X16217207Y9019272D01*
X16216280Y9019504D01*
X16215816Y9019272D01*
X16215237Y9018461D01*
X16210484Y9013709D01*
X16210136Y9013593D01*
X16209904Y9013129D01*
X16209325Y9012549D01*
X16207703Y9012781D01*
X16206313Y9013013D01*
X16205617Y9013709D01*
X16205153Y9013940D01*
X16203877Y9014983D01*
X16202255Y9016606D01*
X16202023Y9017070D01*
X16200169Y9018925D01*
X16199937Y9019388D01*
X16199126Y9019968D01*
X16198546Y9020547D01*
X16198776Y9022170D01*
X16199126Y9022518D01*
X16200284Y9023213D01*
X16202487Y9024720D01*
X16202834Y9025068D01*
X16203297Y9025300D01*
X16203993Y9025995D01*
X16204457Y9026227D01*
X16206081Y9027386D01*
X16206544Y9027618D01*
X16207239Y9028313D01*
X16207703Y9028545D01*
X16211064Y9030979D01*
X16211296Y9031443D01*
X16212106Y9032254D01*
X16212572Y9032486D01*
X16213150Y9033066D01*
X16212920Y9034457D01*
X16211296Y9036079D01*
X16210600Y9037239D01*
X16209904Y9037934D01*
X16209673Y9038398D01*
X16208862Y9039209D01*
X16208398Y9039441D01*
X16206429Y9041411D01*
X16206197Y9041875D01*
X16205153Y9042918D01*
X16204689Y9043150D01*
X16203297Y9044541D01*
X16202834Y9044773D01*
X16201559Y9045816D01*
X16200748Y9046628D01*
X16198662Y9047787D01*
X16197272Y9049177D01*
X16196922Y9049294D01*
X16196690Y9049757D01*
X16195880Y9050569D01*
X16195416Y9050800D01*
X16194836Y9051612D01*
X16194373Y9051843D01*
X16194141Y9052307D01*
X16193793Y9052655D01*
X16193330Y9052887D01*
X16192982Y9053235D01*
X16192867Y9053582D01*
X16192403Y9053814D01*
X16190315Y9055900D01*
X16189851Y9056132D01*
X16184288Y9061696D01*
X16183826Y9061928D01*
X16180811Y9064941D01*
X16180347Y9065173D01*
X16180000Y9065521D01*
X16179768Y9065985D01*
X16179420Y9066333D01*
X16178957Y9066564D01*
X16170380Y9075142D01*
X16169914Y9075374D01*
X16168872Y9076417D01*
X16168640Y9076880D01*
X16168294Y9077228D01*
X16167944Y9077344D01*
X16167712Y9077808D01*
X16167134Y9078387D01*
X16166670Y9078619D01*
X16164468Y9080822D01*
X16164236Y9081285D01*
X16163889Y9081633D01*
X16163425Y9081865D01*
X16162265Y9083024D01*
X16161803Y9083256D01*
X16161221Y9084067D01*
X16160643Y9084647D01*
X16160179Y9084878D01*
X16156006Y9089051D01*
X16155542Y9089283D01*
X16152065Y9092760D01*
X16151601Y9092992D01*
X16148357Y9096238D01*
X16147893Y9096470D01*
X16145226Y9099135D01*
X16144994Y9099599D01*
X16144647Y9099947D01*
X16144183Y9100179D01*
X16142676Y9101686D01*
X16142444Y9102149D01*
X16140242Y9104352D01*
X16139778Y9104584D01*
X16139432Y9104931D01*
X16139198Y9105395D01*
X16138387Y9106206D01*
X16137924Y9106438D01*
X16136765Y9107829D01*
X16135606Y9108988D01*
X16135143Y9109220D01*
X16131664Y9112697D01*
X16131201Y9112929D01*
X16129926Y9113972D01*
X16129346Y9114552D01*
X16128188Y9114784D01*
X16126564Y9115943D01*
X16122971Y9119536D01*
X16122739Y9120000D01*
X16121696Y9121043D01*
X16121233Y9121275D01*
X16120305Y9122202D01*
X16119957Y9122318D01*
X16119843Y9122666D01*
X16119379Y9122897D01*
X16117639Y9124636D01*
X16117407Y9125100D01*
X16115785Y9127186D01*
X16115437Y9127534D01*
X16114973Y9127766D01*
X16114278Y9128461D01*
X16113814Y9128693D01*
X16112888Y9129620D01*
X16112424Y9129852D01*
X16112074Y9130200D01*
X16111844Y9130664D01*
X16111032Y9131243D01*
X16110336Y9131939D01*
X16109988Y9132055D01*
X16109756Y9132518D01*
X16108250Y9134025D01*
X16107787Y9134257D01*
X16107323Y9134952D01*
X16106859Y9135184D01*
X16106512Y9135532D01*
X16106281Y9135995D01*
X16105005Y9137271D01*
X16104541Y9137502D01*
X16103963Y9138314D01*
X16103149Y9138893D01*
X16099210Y9142834D01*
X16098862Y9142950D01*
X16098630Y9143414D01*
X16098050Y9143993D01*
X16097588Y9144225D01*
X16097008Y9145037D01*
X16094804Y9147239D01*
X16094341Y9147471D01*
X16093761Y9148282D01*
X16093414Y9148630D01*
X16092950Y9148862D01*
X16090749Y9151064D01*
X16090517Y9151528D01*
X16089125Y9152687D01*
X16086459Y9155353D01*
X16085995Y9155585D01*
X16082054Y9159526D01*
X16081590Y9159757D01*
X16079736Y9161612D01*
X16079272Y9161844D01*
X16078925Y9162192D01*
X16078693Y9162655D01*
X16078345Y9163003D01*
X16077881Y9163235D01*
X16075099Y9166017D01*
X16074635Y9166249D01*
X16072781Y9168103D01*
X16072318Y9168335D01*
X16071738Y9169146D01*
X16070348Y9170537D01*
X16070116Y9171001D01*
X16065594Y9175521D01*
X16065131Y9175753D01*
X16064552Y9176333D01*
X16064320Y9176796D01*
X16063741Y9177376D01*
X16063277Y9177608D01*
X16062465Y9178419D01*
X16062233Y9178883D01*
X16061887Y9179231D01*
X16061423Y9179462D01*
X16060379Y9180506D01*
X16060147Y9180969D01*
X16059799Y9181317D01*
X16059335Y9181549D01*
X16050526Y9190358D01*
X16050063Y9190590D01*
X16048788Y9191865D01*
X16048557Y9192329D01*
X16048209Y9192677D01*
X16047745Y9192908D01*
X16046933Y9193720D01*
X16046701Y9194183D01*
X16045889Y9194763D01*
X16044267Y9196386D01*
X16043803Y9196617D01*
X16043571Y9196849D01*
X16043456Y9196965D01*
D02*
G37*
G36*
X18200000Y5990000D02*
X17800000D01*
Y6390000D01*
X18200000D01*
Y5990000D01*
D02*
G37*
G36*
Y11330000D02*
X17800000D01*
Y11730000D01*
X18200000D01*
Y11330000D01*
D02*
G37*
%LPC*%
G36*
X8741092Y7443319D02*
X8733383D01*
Y7440750D01*
X8728244D01*
Y7438180D01*
X8720536D01*
Y7435610D01*
X8717966D01*
Y7433041D01*
X8715396D01*
Y7430471D01*
X8712827D01*
Y7427902D01*
X8710257D01*
Y7425332D01*
X8707687D01*
Y7415054D01*
X8705118D01*
Y7386788D01*
X8707687D01*
Y7379079D01*
X8710257D01*
Y7376510D01*
X8712827D01*
Y7371371D01*
X8715396D01*
Y7368801D01*
X8717966D01*
Y7366231D01*
X8723105D01*
Y7363662D01*
X8728244D01*
Y7361092D01*
X8741092D01*
Y7366231D01*
Y7368801D01*
Y7443319D01*
D02*
G37*
G36*
X8779636D02*
X8771927D01*
Y7435610D01*
Y7433041D01*
Y7361092D01*
X8784775D01*
Y7363662D01*
X8787345D01*
Y7366231D01*
X8795054D01*
Y7368801D01*
X8797623D01*
Y7371371D01*
X8800193D01*
Y7373940D01*
X8802762D01*
Y7379079D01*
X8805332D01*
Y7384218D01*
X8807902D01*
Y7417623D01*
X8805332D01*
Y7422762D01*
X8802762D01*
Y7427902D01*
X8800193D01*
Y7430471D01*
X8797623D01*
Y7433041D01*
X8795054D01*
Y7435610D01*
X8792484D01*
Y7438180D01*
X8784775D01*
Y7440750D01*
X8779636D01*
Y7443319D01*
D02*
G37*
G36*
X8938951Y7451028D02*
X8895268D01*
Y7448458D01*
X8892698D01*
Y7445889D01*
X8890129D01*
Y7443319D01*
X8887559D01*
Y7438180D01*
X8884989D01*
Y7412484D01*
X8887559D01*
Y7407345D01*
X8890129D01*
Y7404775D01*
X8892698D01*
Y7402206D01*
X8897837D01*
Y7399636D01*
X8938951D01*
Y7451028D01*
D02*
G37*
%LPD*%
D27*
X13150000Y6086000D02*
D03*
Y6174000D02*
D03*
X18093240Y8329998D02*
D03*
Y8241998D02*
D03*
X13150000Y9994000D02*
D03*
Y9906000D02*
D03*
X13148000Y8084000D02*
D03*
Y7996000D02*
D03*
D28*
X13292500Y10000000D02*
D03*
X13407500D02*
D03*
X13385001Y6162500D02*
D03*
X13270000D02*
D03*
X13272501Y8082500D02*
D03*
X13387500D02*
D03*
D29*
X13897000Y8250000D02*
D03*
X13770000D02*
D03*
X13642999D02*
D03*
X13516000D02*
D03*
X13389000D02*
D03*
X13262000D02*
D03*
X13135001D02*
D03*
X13008000D02*
D03*
X12881000D02*
D03*
X12754000D02*
D03*
X12627000D02*
D03*
X12500000D02*
D03*
X13897000Y9230000D02*
D03*
X13770000D02*
D03*
X13642999D02*
D03*
X13516000D02*
D03*
X13389000D02*
D03*
X13262000D02*
D03*
X13135001D02*
D03*
X13008000D02*
D03*
X12881000D02*
D03*
X12754000D02*
D03*
X12627000D02*
D03*
X13897000Y10170000D02*
D03*
X13770000D02*
D03*
X13642999D02*
D03*
X13516000D02*
D03*
X13389000D02*
D03*
X13262000D02*
D03*
X13135001D02*
D03*
X13008000D02*
D03*
X12881000D02*
D03*
X12754000D02*
D03*
X12627000D02*
D03*
X12500000D02*
D03*
X13897000Y11150000D02*
D03*
X13770000D02*
D03*
X13642999D02*
D03*
X13516000D02*
D03*
X13389000D02*
D03*
X13262000D02*
D03*
X13135001D02*
D03*
X13008000D02*
D03*
X12881000D02*
D03*
X12754000D02*
D03*
X12627000D02*
D03*
Y7300000D02*
D03*
X12754000D02*
D03*
X12881000D02*
D03*
X13008000D02*
D03*
X13135001D02*
D03*
X13262000D02*
D03*
X13389000D02*
D03*
X13516000D02*
D03*
X13642999D02*
D03*
X13770000D02*
D03*
X13897000D02*
D03*
X12500000Y6320000D02*
D03*
X12627000D02*
D03*
X12754000D02*
D03*
X12881000D02*
D03*
X13008000D02*
D03*
X13135001D02*
D03*
X13262000D02*
D03*
X13389000D02*
D03*
X13516000D02*
D03*
X13642999D02*
D03*
X13770000D02*
D03*
X13897000D02*
D03*
D30*
X12500000Y9230000D02*
D03*
Y11150000D02*
D03*
Y7300000D02*
D03*
D31*
X9818824Y6377999D02*
D03*
X9906824D02*
D03*
X9820159Y11364222D02*
D03*
X9908159D02*
D03*
D32*
X8367500Y8331500D02*
D03*
Y8243500D02*
D03*
D33*
X18100000Y9100000D02*
D03*
Y8975000D02*
D03*
Y8850000D02*
D03*
Y8725000D02*
D03*
Y8600000D02*
D03*
X8240000Y8850000D02*
D03*
Y9100000D02*
D03*
Y8975000D02*
D03*
Y8725000D02*
D03*
Y8600000D02*
D03*
D34*
X9000000Y6100000D02*
D03*
X9125000D02*
D03*
X9250000D02*
D03*
X9375000D02*
D03*
X9500000D02*
D03*
X9000000Y11620000D02*
D03*
X9125000D02*
D03*
X9250000D02*
D03*
X9375000D02*
D03*
X9500000D02*
D03*
D35*
X11270000Y11524000D02*
D03*
X11016000D02*
D03*
X10762000D02*
D03*
X10508000D02*
D03*
X10254000D02*
D03*
X10000000D02*
D03*
X11270000Y10000000D02*
D03*
X11016000D02*
D03*
X10762000D02*
D03*
X10508000D02*
D03*
X10254000D02*
D03*
X10000000D02*
D03*
X15050000D02*
D03*
X15303999D02*
D03*
X15558000D02*
D03*
X15812000D02*
D03*
X16066000D02*
D03*
X16320000D02*
D03*
X15050000Y11524000D02*
D03*
X15303999D02*
D03*
X15558000D02*
D03*
X15812000D02*
D03*
X16066000D02*
D03*
X16320000D02*
D03*
X11270000Y9614000D02*
D03*
X11016000D02*
D03*
X10762000D02*
D03*
X10508000D02*
D03*
X10254000D02*
D03*
X10000000D02*
D03*
X11270000Y8090000D02*
D03*
X11016000D02*
D03*
X10762000D02*
D03*
X10508000D02*
D03*
X10254000D02*
D03*
X10000000D02*
D03*
X15050000D02*
D03*
X15303999D02*
D03*
X15558000D02*
D03*
X15812000D02*
D03*
X16066000D02*
D03*
X16320000D02*
D03*
X15050000Y9614000D02*
D03*
X15303999D02*
D03*
X15558000D02*
D03*
X15812000D02*
D03*
X16066000D02*
D03*
X16320000D02*
D03*
Y7704000D02*
D03*
X16066000D02*
D03*
X15812000D02*
D03*
X15558000D02*
D03*
X15303999D02*
D03*
X15050000D02*
D03*
X16320000Y6180000D02*
D03*
X16066000D02*
D03*
X15812000D02*
D03*
X15558000D02*
D03*
X15303999D02*
D03*
X15050000D02*
D03*
X10000000D02*
D03*
X10254000D02*
D03*
X10508000D02*
D03*
X10762000D02*
D03*
X11016000D02*
D03*
X11270000D02*
D03*
X10000000Y7704000D02*
D03*
X10254000D02*
D03*
X10508000D02*
D03*
X10762000D02*
D03*
X11016000D02*
D03*
X11270000D02*
D03*
D36*
X8325000Y6200000D02*
D03*
X18000000D02*
D03*
Y11525000D02*
D03*
X8325000D02*
D03*
%TF.MD5,67ba032ef04011994f838717becf897c*%
M02*
