%TF.GenerationSoftware,Altium Limited,Altium Designer,21.8.1 (53)*%
G04 Layer_Color=255*
%FSLAX45Y45*%
%MOMM*%
%TF.SameCoordinates,046F884E-5673-4B57-908A-D09F833A34A9*%
%TF.FilePolarity,Positive*%
%TF.FileFunction,Pads,Top*%
%TF.Part,Single*%
G01*
G75*
%TA.AperFunction,ComponentPad*%
%ADD13C,1.10000*%
D13*
X11270000Y11524000D02*
D03*
X11016000D02*
D03*
X10762000D02*
D03*
X10508000D02*
D03*
X10254000D02*
D03*
X10000000D02*
D03*
X11270000Y10000000D02*
D03*
X11016000D02*
D03*
X10762000D02*
D03*
X10508000D02*
D03*
X10254000D02*
D03*
X10000000D02*
D03*
X15050000D02*
D03*
X15303999D02*
D03*
X15558000D02*
D03*
X15812000D02*
D03*
X16066000D02*
D03*
X16320000D02*
D03*
X15050000Y11524000D02*
D03*
X15303999D02*
D03*
X15558000D02*
D03*
X15812000D02*
D03*
X16066000D02*
D03*
X16320000D02*
D03*
X11270000Y9614000D02*
D03*
X11016000D02*
D03*
X10762000D02*
D03*
X10508000D02*
D03*
X10254000D02*
D03*
X10000000D02*
D03*
X11270000Y8090000D02*
D03*
X11016000D02*
D03*
X10762000D02*
D03*
X10508000D02*
D03*
X10254000D02*
D03*
X10000000D02*
D03*
X15050000D02*
D03*
X15303999D02*
D03*
X15558000D02*
D03*
X15812000D02*
D03*
X16066000D02*
D03*
X16320000D02*
D03*
X15050000Y9614000D02*
D03*
X15303999D02*
D03*
X15558000D02*
D03*
X15812000D02*
D03*
X16066000D02*
D03*
X16320000D02*
D03*
Y7704000D02*
D03*
X16066000D02*
D03*
X15812000D02*
D03*
X15558000D02*
D03*
X15303999D02*
D03*
X15050000D02*
D03*
X16320000Y6180000D02*
D03*
X16066000D02*
D03*
X15812000D02*
D03*
X15558000D02*
D03*
X15303999D02*
D03*
X15050000D02*
D03*
X10000000D02*
D03*
X10254000D02*
D03*
X10508000D02*
D03*
X10762000D02*
D03*
X11016000D02*
D03*
X11270000D02*
D03*
X10000000Y7704000D02*
D03*
X10254000D02*
D03*
X10508000D02*
D03*
X10762000D02*
D03*
X11016000D02*
D03*
X11270000D02*
D03*
%TF.MD5,c5cc3ac1b5954dea35c825edf53617ae*%
M02*
